SplineFontDB: 3.2
FontName: SeriousShannsLight
FullName: Serious Shanns Light
FamilyName: Serious Shanns Light
Weight: Light
Copyright: https://github.com/kaBeech/serious-shanns/blob/main/LICENSE
Version: 4.0.0
ItalicAngle: 0
UnderlinePosition: 0
UnderlineWidth: 0
Ascent: 1638
Descent: 410
InvalidEm: 0
sfntRevision: 0x00003333
LayerCount: 2
Layer: 0 0 "Back" 1
Layer: 1 0 "Fore" 0
XUID: [1021 45 630387186 3556736]
StyleMap: 0x0040
FSType: 4
OS2Version: 3
OS2_WeightWidthSlopeOnly: 0
OS2_UseTypoMetrics: 0
CreationTime: 1532631502
ModificationTime: 315532800
PfmFamily: 81
TTFWeight: 300
TTFWidth: 5
LineGap: 0
VLineGap: 0
Panose: 0 0 0 0 0 0 0 0 0 0
OS2TypoAscent: 1255
OS2TypoAOffset: 0
OS2TypoDescent: -385
OS2TypoDOffset: 0
OS2TypoLinegap: 201
OS2WinAscent: 1593
OS2WinAOffset: 0
OS2WinDescent: 631
OS2WinDOffset: 0
HheadAscent: 1630
HheadAOffset: 0
HheadDescent: -649
HheadDOffset: 0
OS2SubXSize: 649
OS2SubYSize: 600
OS2SubXOff: 0
OS2SubYOff: 76
OS2SupXSize: 649
OS2SupYSize: 600
OS2SupXOff: 0
OS2SupYOff: 350
OS2StrikeYSize: 0
OS2StrikeYPos: 270
OS2CapHeight: 1180
OS2XHeight: 993
OS2Vendor: 'NONE'
OS2CodePages: 00000001.00000000
OS2UnicodeRanges: 00000001.00000000.00000000.00000000
MarkAttachClasses: 1
DEI: 91125
LangName: 1033 "" "" "Normal" "" "" "Version 0.2.0"
Encoding: UnicodeBmp
UnicodeInterp: none
NameList: AGL For New Fonts
DisplaySize: -48
AntiAlias: 1
FitToEm: 0
WinInfo: 64 16 14
BeginPrivate: 8
BlueValues 39 [-80 -16 1008 1071 1413 1470 1567 1575]
OtherBlues 11 [-608 -588]
BlueScale 9 0.0333333
BlueShift 2 35
StdHW 5 [137]
StdVW 5 [150]
StemSnapH 5 [137]
StemSnapV 9 [139 150]
EndPrivate
BeginChars: 65537 104

StartChar: .notdef
Encoding: 65536 -1 0
Width: 1114
GlyphClass: 1
Flags: HW
HStem: -528 70<209 907> 1444 70<209 907>
VStem: 139 70<-459 1444> 907 70<-459 1444>
LayerCount: 2
Fore
SplineSet
139 1513 m 1
 977 1513 l 1
 977 -528 l 1
 139 -528 l 1
 139 1513 l 1
209 -459 m 1
 907 -459 l 1
 907 1444 l 1
 209 1444 l 1
 209 -459 l 1
EndSplineSet
Validated: 1
EndChar

StartChar: exclam
Encoding: 33 33 1
Width: 1114
GlyphClass: 2
Flags: HW
HStem: -31 277<455 662>
VStem: 412 293<18 203> 481 160<502 709 712 820> 498 147<596 1511>
LayerCount: 2
Fore
SplineSet
657 1511 m 0x90
 657 1499 654 1423 649 1282 c 0
 645 1141 643 1040 643 977 c 0
 642 946 642 916 642 890 c 0
 642 864 642 840 643 819 c 0
 644 777 645 741 645 711 c 0x90
 645 681 644 661 643 651 c 0
 641 637 640 619 640 595 c 0
 640 583 641 570 641 555 c 0xa0
 638 532 628 514 612 500 c 0
 597 486 579 479 557 479 c 2
 551 479 l 2
 529 480 512 488 498 502 c 0x90
 487 514 481 531 481 553 c 0xa0
 481 567 484 590 489 623 c 0
 493 642 497 662 498 684 c 0
 499 706 500 752 500 823 c 0
 500 852 499 895 496 954 c 0
 493 1018 492 1089 492 1165 c 0
 493 1221 495 1301 498 1403 c 0
 499 1455 500 1489 500 1505 c 0
 501 1536 509 1560 524 1575 c 0
 539 1590 559 1597 582 1597 c 2
 588 1597 l 2
 608 1597 625 1591 637 1579 c 0
 651 1565 657 1542 657 1511 c 0x90
666 16 m 0
 640 -10 605 -26 561 -31 c 0
 556 -32 550 -31 545 -31 c 0
 509 -31 479 -19 455 6 c 0
 426 35 412 70 412 111 c 0
 412 146 427 177 457 203 c 0
 491 232 529 246 571 246 c 0
 609 246 641 234 666 209 c 0
 692 183 705 151 705 113 c 0xc0
 705 75 692 42 666 16 c 0
EndSplineSet
Validated: 1
EndChar

StartChar: quotedbl
Encoding: 34 34 2
Width: 1114
GlyphClass: 2
Flags: HW
HStem: 911 672
VStem: 307 172<924 1556> 633 178<926 1576>
LayerCount: 2
Fore
SplineSet
727 1583 m 0
 747 1583 766 1579 782 1569 c 0
 790 1565 798 1558 803 1548 c 0
 808 1537 811 1525 811 1511 c 2
 811 1425 l 2
 811 1385 810 1312 807 1206 c 0
 804 1100 800 1023 795 975 c 0
 792 955 783 939 768 928 c 0
 754 917 739 911 723 911 c 2
 717 911 l 2
 695 912 674 920 655 934 c 0
 641 944 635 957 635 975 c 0
 636 978 637 981 637 985 c 0
 640 1037 641 1101 641 1176 c 2
 641 1253 l 2
 638 1362 636 1453 633 1524 c 2
 633 1528 l 2
 633 1539 636 1548 641 1556 c 0
 646 1564 654 1570 662 1573 c 0
 681 1581 699 1585 715 1585 c 0
 720 1584 724 1583 727 1583 c 0
467 975 m 0
 464 953 455 938 440 928 c 0
 424 917 408 911 393 911 c 2
 389 911 l 2
 367 912 347 920 328 934 c 0
 314 944 307 957 307 975 c 2
 307 985 l 2
 311 1040 313 1106 313 1184 c 0
 312 1206 311 1228 311 1253 c 0
 308 1362 306 1453 305 1524 c 2
 305 1530 l 2
 305 1540 307 1548 311 1556 c 0
 316 1564 324 1570 332 1573 c 0
 351 1580 369 1583 389 1583 c 0
 392 1583 396 1583 399 1583 c 0
 419 1583 439 1579 455 1569 c 0
 462 1565 468 1558 473 1548 c 0
 478 1537 481 1524 481 1509 c 0
 482 1493 483 1465 483 1427 c 0
 483 1389 482 1316 479 1208 c 0
 476 1100 472 1023 467 975 c 0
EndSplineSet
Validated: 1
EndChar

StartChar: numbersign
Encoding: 35 35 3
Width: 1114
GlyphClass: 2
Flags: HW
HStem: 410 131<52 205 395 655 846 1005> 932 133<136 309 500 750 938 1062> 1423 41G<470 480 902 913>
LayerCount: 2
Fore
SplineSet
475 932 m 1
 395 541 l 1
 467 542 557 543 662 543 c 2
 678 543 l 1
 703 666 727 795 750 932 c 1
 475 932 l 1
387 410 m 1
 371 410 l 1
 340 252 317 145 305 90 c 0
 297 65 280 46 254 31 c 0
 238 21 222 16 207 16 c 0
 200 15 193 15 186 18 c 0
 167 22 153 36 143 59 c 0
 138 73 135 86 135 100 c 0
 135 114 137 128 141 143 c 0
 152 177 174 266 205 408 c 1
 119 408 l 2
 88 408 65 413 51 424 c 0
 39 434 33 447 33 463 c 2
 33 467 l 2
 34 485 40 499 51 510 c 0
 63 524 85 531 115 532 c 0
 125 533 141 535 164 535 c 0
 187 535 209 536 231 537 c 1
 309 930 l 1
 285 930 l 1
 199 928 l 1
 193 928 l 2
 168 927 149 932 135 944 c 0
 121 955 115 969 115 987 c 2
 115 993 l 2
 115 1009 121 1024 133 1036 c 0
 147 1050 169 1058 199 1059 c 0
 225 1060 264 1061 317 1061 c 2
 334 1061 l 1
 395 1393 l 2
 405 1422 418 1441 436 1452 c 0
 450 1460 463 1464 477 1464 c 0
 482 1464 489 1463 496 1462 c 0
 521 1457 539 1445 551 1427 c 0
 558 1416 561 1402 561 1386 c 0
 562 1376 562 1368 559 1358 c 2
 500 1065 l 1
 772 1065 l 1
 829 1378 l 2
 839 1407 852 1427 870 1438 c 0
 882 1446 895 1450 909 1450 c 0
 916 1449 924 1447 932 1446 c 0
 957 1441 975 1429 987 1413 c 0
 994 1403 997 1391 997 1376 c 0
 997 1366 996 1355 993 1343 c 0
 978 1286 960 1194 938 1067 c 1
 963 1067 l 1
 985 1067 l 2
 1014 1067 1037 1059 1055 1044 c 0
 1073 1029 1082 1014 1083 999 c 0
 1082 981 1075 966 1063 952 c 0
 1051 940 1031 933 1004 932 c 2
 911 932 l 1
 846 541 l 1
 954 541 l 2
 980 541 998 536 1006 526 c 0
 1014 516 1019 502 1020 483 c 0
 1020 461 1016 445 1008 434 c 0
 998 420 980 414 954 414 c 2
 823 414 l 1
 794 249 774 138 762 82 c 0
 752 59 736 41 713 29 c 0
 698 21 683 16 668 16 c 0
 661 15 653 15 645 18 c 0
 625 23 610 37 600 57 c 0
 595 69 592 82 592 94 c 0
 592 106 594 120 598 135 c 0
 612 190 630 282 655 412 c 1
 631 412 l 1
 387 410 l 1
EndSplineSet
Validated: 1
EndChar

StartChar: dollar
Encoding: 36 36 4
Width: 1114
GlyphClass: 2
Flags: HW
HStem: -39 133<339 494> 754 129<380 501> 1337 121<631 807>
VStem: 133 150<974 1212> 502 129<879 1323 1460 1649> 502 119<-256 -39 121 715 879 1289> 868 152<282 580>
LayerCount: 2
Fore
SplineSet
859 503 m 0xf6
 853 527 841 552 825 578 c 0
 809 604 785 627 754 649 c 0
 723 669 685 689 643 705 c 2
 621 715 l 1
 621 686 l 1
 618 383 l 2
 617 271 615 184 614 121 c 1
 641 133 l 2
 704 162 757 201 801 252 c 0
 846 303 868 360 868 426 c 0
 868 453 865 479 859 503 c 0xf6
340 961 m 0
 374 926 420 899 479 883 c 2
 502 879 l 1xfa
 503 990 504 1128 504 1296 c 2
 504 1323 l 1
 479 1317 l 2
 423 1298 377 1269 342 1229 c 0
 302 1191 283 1143 283 1087 c 0
 283 1038 302 996 340 961 c 0
346 -23 m 0
 305 -12 271 5 242 25 c 0
 183 63 140 107 113 158 c 0
 102 183 96 203 96 221 c 0
 96 244 107 261 129 272 c 0
 144 279 155 284 162 285 c 0
 169 286 174 287 178 287 c 2
 190 287 l 2
 198 287 207 283 216 275 c 0
 225 267 235 256 246 240 c 0
 275 195 308 159 346 133 c 0
 380 107 423 94 475 94 c 2
 479 94 l 1
 498 94 l 1
 501 336 502 546 502 725 c 2
 502 743 l 1
 484 744 468 747 454 749 c 2
 418 754 l 2
 376 759 336 772 299 791 c 0
 261 810 230 833 207 860 c 0
 184 887 166 916 153 947 c 0
 140 978 133 1007 133 1036 c 0
 133 1082 141 1127 156 1170 c 0
 171 1213 192 1253 221 1290 c 0
 250 1327 288 1359 336 1386 c 0
 381 1413 432 1433 489 1444 c 2
 502 1446 l 1xf6
 505 1490 506 1535 506 1581 c 0
 507 1611 512 1634 521 1650 c 0
 530 1666 545 1673 565 1673 c 2
 569 1673 l 2
 591 1674 606 1667 616 1651 c 0
 626 1636 631 1614 631 1587 c 2
 631 1460 l 1xfa
 647 1458 l 2
 674 1457 712 1450 760 1438 c 0
 812 1426 851 1415 877 1405 c 0
 897 1398 912 1386 922 1370 c 0
 930 1356 934 1343 934 1329 c 0
 934 1325 933 1320 932 1315 c 0
 931 1303 927 1293 922 1288 c 0
 915 1283 908 1280 900 1279 c 0
 892 1278 886 1278 879 1278 c 0
 852 1278 821 1285 788 1300 c 0
 770 1308 751 1316 728 1324 c 0
 705 1332 678 1336 647 1337 c 2
 629 1337 l 1
 621 866 l 1xf6
 637 862 l 2
 693 855 742 841 786 821 c 0
 834 801 872 778 900 752 c 0
 928 726 952 696 971 663 c 0
 990 630 1003 596 1010 563 c 0
 1017 530 1020 496 1020 461 c 0
 1020 401 1009 344 988 290 c 0
 967 236 938 190 902 150 c 0
 866 110 823 76 774 47 c 0
 730 18 682 -3 629 -18 c 2
 614 -23 l 1
 614 -37 l 2
 615 -118 617 -172 618 -201 c 0
 615 -226 607 -244 593 -257 c 0
 579 -270 561 -276 541 -276 c 2
 539 -276 l 1
 537 -276 l 2
 521 -276 508 -270 500 -258 c 0
 493 -247 489 -231 489 -211 c 2
 489 -193 l 2
 492 -163 494 -118 494 -59 c 2
 494 -39 l 1
 475 -39 l 1
 467 -39 l 2
 425 -39 384 -34 346 -23 c 0
EndSplineSet
Validated: 1
EndChar

StartChar: percent
Encoding: 37 37 5
Width: 1114
GlyphClass: 2
Flags: HW
HStem: -37 117<718 905> 371 111<726 915> 905 113<202 392> 1315 108<212 394>
VStem: 68 109<1062 1271> 101 140<-77 -19> 428 94<1052 1281> 594 100<122 326> 819 143<1284 1410> 942 106<119 323>
LayerCount: 2
Fore
SplineSet
717 121 m 0xf340
 735 96 767 83 813 80 c 2
 819 80 l 2xf380
 856 80 885 93 906 118 c 0
 927 143 939 175 942 215 c 2
 942 217 l 1
 942 223 l 2
 942 226 942 229 942 232 c 0
 942 270 934 301 918 324 c 0
 895 355 859 371 811 371 c 0
 774 371 745 357 725 328 c 0
 706 299 695 263 694 219 c 2
 694 211 l 2
 694 208 694 205 694 202 c 0
 694 168 702 141 717 121 c 0xf340
686 -1 m 0
 655 23 631 53 616 90 c 0
 601 127 594 167 594 209 c 2
 594 213 l 2
 594 292 613 357 653 407 c 0
 693 457 750 481 825 481 c 0
 827 481 829 481 831 481 c 0
 894 481 946 461 987 420 c 0
 1007 398 1023 369 1034 332 c 0
 1044 303 1049 271 1049 236 c 0xf340
 1049 228 1048 215 1047 199 c 0
 1043 120 1021 60 981 20 c 0
 941 -18 882 -37 801 -37 c 2
 795 -37 l 2
 754 -37 717 -25 686 -1 c 0
201 1061 m 0
 220 1036 255 1022 307 1018 c 2
 309 1018 l 2
 346 1018 374 1031 393 1057 c 0
 412 1083 423 1116 426 1157 c 0
 427 1160 428 1163 428 1167 c 0
 427 1215 415 1251 395 1276 c 0
 373 1302 343 1315 303 1315 c 0
 301 1315 300 1315 298 1315 c 0
 261 1315 232 1301 211 1272 c 0
 192 1245 180 1208 176 1163 c 2
 176 1153 l 2xfb
 176 1150 176 1148 176 1145 c 0
 176 1109 185 1081 201 1061 c 0
319 399 m 2
 616 967 l 2
 716 1158 784 1295 819 1378 c 0
 835 1403 859 1415 889 1415 c 0
 903 1415 916 1412 930 1405 c 0
 952 1394 963 1380 963 1362 c 0
 963 1347 956 1329 942 1307 c 0
 890 1224 775 1011 596 670 c 0
 420 329 302 97 242 -25 c 0
 219 -66 195 -86 170 -86 c 0
 162 -86 152 -83 140 -78 c 0
 128 -73 120 -65 113 -56 c 0
 106 -47 102 -36 101 -22 c 0xf780
 101 -21 101 -20 101 -19 c 0
 101 -5 107 12 117 31 c 0
 146 90 213 212 319 399 c 2
169 941 m 0
 136 965 110 995 93 1032 c 0
 76 1069 68 1109 68 1151 c 2
 68 1155 l 2xfb
 68 1234 89 1299 133 1349 c 0
 177 1399 238 1423 317 1423 c 0
 319 1423 321 1423 323 1423 c 0
 381 1423 429 1403 467 1362 c 0
 486 1340 500 1311 510 1274 c 0
 518 1245 522 1212 522 1174 c 0
 522 1078 502 1009 461 965 c 0
 424 925 367 905 289 905 c 2
 285 905 l 2
 241 905 202 917 169 941 c 0
EndSplineSet
Validated: 1
EndChar

StartChar: ampersand
Encoding: 38 38 6
Width: 1114
GlyphClass: 2
Flags: HW
HStem: -66 152<311 599> 1341 121<418 652>
VStem: 49 164<192 573> 225 156<1031 1295> 707 129<1023 1288>
LayerCount: 2
Fore
SplineSet
1038 23 m 2
 1038 6 l 2
 1034 -27 1025 -47 1010 -55 c 0
 1002 -60 992 -63 981 -63 c 0
 971 -63 960 -60 946 -53 c 0
 919 -39 894 -15 874 20 c 0
 870 27 862 47 850 80 c 0
 838 113 827 138 819 154 c 2
 805 184 l 1
 763 125 738 92 731 84 c 0
 724 77 713 65 698 49 c 0
 683 33 670 20 659 12 c 0
 648 5 634 -4 616 -16 c 0
 600 -28 583 -38 567 -43 c 0
 551 -48 532 -53 510 -57 c 0
 487 -62 463 -66 440 -66 c 0
 368 -66 302 -47 242 -10 c 0
 182 27 134 76 100 137 c 0
 66 200 49 267 49 338 c 0
 49 449 70 544 111 623 c 0
 160 721 241 795 356 846 c 2
 377 856 l 1
 357 889 337 919 319 948 c 0
 301 975 290 996 283 1008 c 0
 276 1020 268 1035 258 1053 c 0
 248 1071 243 1086 240 1098 c 0
 230 1135 225 1171 225 1206 c 0
 225 1229 229 1252 236 1274 c 0
 241 1296 251 1318 266 1341 c 0
 281 1364 300 1385 322 1403 c 0
 344 1421 373 1435 410 1446 c 0
 445 1457 486 1462 532 1462 c 0
 536 1462 540 1462 544 1462 c 0
 578 1462 611 1457 643 1446 c 0
 680 1434 712 1417 741 1395 c 0
 770 1372 793 1342 811 1307 c 0
 827 1272 836 1232 836 1188 c 0
 836 1183 836 1178 836 1173 c 0
 836 1135 831 1101 821 1069 c 0
 810 1032 796 1002 780 979 c 0
 764 956 744 933 719 911 c 0
 694 889 671 872 651 858 c 0
 629 844 604 831 575 817 c 2
 557 809 l 1
 567 791 l 2
 593 747 635 683 694 600 c 0
 753 517 791 462 807 436 c 2
 825 406 l 1
 845 446 861 478 872 504 c 0
 884 530 894 550 901 565 c 0
 908 580 914 591 918 598 c 0
 940 631 959 650 977 657 c 0
 982 658 988 659 995 659 c 0
 1007 659 1020 656 1034 649 c 0
 1050 642 1061 627 1065 604 c 0
 1066 597 1067 591 1067 586 c 0
 1067 566 1061 542 1049 516 c 0
 1044 505 1023 478 989 436 c 0
 955 394 926 354 903 319 c 2
 897 309 l 1
 919 272 959 203 1016 102 c 0
 1031 77 1038 52 1038 23 c 2
381 1171 m 0
 381 1134 391 1095 410 1051 c 0
 430 1009 454 971 481 938 c 2
 489 928 l 1
 502 932 l 2
 533 942 560 952 582 963 c 0
 604 974 625 988 645 1006 c 0
 665 1024 680 1046 690 1073 c 0
 701 1099 707 1130 707 1165 c 0
 707 1222 688 1266 653 1296 c 0
 618 1326 576 1341 528 1341 c 0
 473 1341 435 1323 410 1286 c 0
 391 1257 381 1219 381 1171 c 0
213 356 m 0
 213 280 234 217 276 166 c 0
 318 113 374 86 442 86 c 0
 477 87 515 94 553 106 c 0
 567 110 581 118 596 129 c 0
 612 139 625 147 633 154 c 0
 641 161 652 170 664 184 c 0
 676 198 684 208 688 213 c 0
 693 217 701 227 711 242 c 0
 721 257 728 268 735 276 c 1
 706 337 684 384 668 414 c 0
 650 447 616 498 567 569 c 0
 518 640 480 697 453 741 c 1
 436 735 l 2
 394 715 358 691 328 664 c 0
 297 637 272 605 256 571 c 0
 241 537 230 503 223 469 c 0
 216 435 213 397 213 356 c 0
EndSplineSet
Validated: 1
EndChar

StartChar: quotesingle
Encoding: 39 39 7
Width: 1114
GlyphClass: 2
Flags: HW
HStem: 934 629<492 603>
VStem: 471 172<957 1525>
LayerCount: 2
Fore
SplineSet
631 997 m 0
 628 975 619 959 604 948 c 0
 589 938 573 934 557 934 c 2
 553 934 l 2
 530 935 510 942 492 956 c 0
 478 967 471 981 471 999 c 2
 471 1006 l 1
 471 1008 l 2
 475 1065 477 1130 477 1204 c 0
 477 1291 474 1390 469 1501 c 2
 469 1505 l 2
 469 1516 471 1526 475 1534 c 0
 480 1542 488 1547 496 1550 c 0
 515 1558 535 1563 555 1563 c 0
 558 1563 560 1563 563 1563 c 0
 583 1562 602 1556 618 1546 c 0
 626 1542 634 1536 639 1526 c 0
 643 1516 645 1503 645 1487 c 0
 646 1471 647 1444 647 1407 c 0
 647 1370 646 1304 643 1210 c 0
 640 1116 636 1045 631 997 c 0
EndSplineSet
Validated: 1
EndChar

StartChar: parenleft
Encoding: 40 40 8
Width: 1114
GlyphClass: 2
Flags: HW
HStem: -250 133<679 827> 1522 125<654 827>
VStem: 272 160<314 1119>
LayerCount: 2
Fore
SplineSet
842 -190 m 0
 842 -206 835 -220 821 -231 c 0
 809 -243 795 -250 780 -250 c 0
 693 -249 614 -217 543 -154 c 0
 472 -91 414 -2 369 111 c 0
 324 226 294 357 279 506 c 0
 275 547 272 598 272 659 c 0
 272 668 272 678 272 687 c 0
 272 744 276 811 283 891 c 0
 298 1049 324 1179 362 1280 c 0
 378 1325 401 1369 430 1411 c 0
 459 1453 491 1493 528 1528 c 0
 563 1563 604 1592 649 1614 c 0
 695 1636 740 1647 782 1647 c 0
 802 1647 817 1642 827 1634 c 0
 838 1624 844 1608 844 1585 c 0
 844 1562 838 1546 827 1536 c 0
 815 1526 798 1522 778 1522 c 0
 738 1522 702 1510 668 1487 c 0
 635 1465 607 1435 582 1397 c 0
 534 1326 498 1239 475 1137 c 0
 457 1066 445 968 438 842 c 0
 434 778 432 721 432 670 c 0
 433 618 435 573 438 535 c 0
 445 452 460 370 483 289 c 0
 505 208 532 139 563 82 c 0
 593 23 628 -24 666 -61 c 0
 706 -98 743 -117 780 -117 c 0
 800 -117 816 -121 827 -131 c 0
 837 -141 842 -160 842 -190 c 0
EndSplineSet
Validated: 1
EndChar

StartChar: parenright
Encoding: 41 41 9
Width: 1114
GlyphClass: 2
Flags: HW
HStem: -250 133<289 436> 1522 125<289 461>
VStem: 684 160<314 1119>
LayerCount: 2
Fore
SplineSet
838 506 m 0
 823 357 793 226 748 111 c 0
 703 -2 644 -91 573 -154 c 0
 501 -218 422 -250 336 -250 c 0
 322 -249 309 -242 295 -231 c 0
 280 -220 272 -206 272 -190 c 0
 272 -160 278 -141 289 -131 c 0
 299 -121 314 -117 336 -117 c 0
 373 -117 411 -98 449 -61 c 0
 487 -23 522 25 553 82 c 0
 583 139 610 208 633 289 c 0
 656 370 671 452 678 535 c 0
 682 576 684 621 684 672 c 0
 684 723 682 779 678 842 c 0
 671 966 659 1065 641 1137 c 0
 616 1239 581 1327 535 1399 c 0
 512 1434 483 1464 449 1487 c 0
 415 1510 378 1522 340 1522 c 0
 320 1522 303 1526 289 1536 c 0
 278 1544 272 1560 272 1583 c 0
 271 1598 272 1610 276 1618 c 0
 280 1628 286 1633 291 1636 c 0
 303 1643 318 1647 334 1647 c 0
 379 1647 423 1636 467 1614 c 0
 511 1592 551 1563 588 1528 c 0
 625 1493 657 1453 686 1411 c 0
 715 1367 738 1324 754 1280 c 0
 792 1179 817 1049 831 891 c 0
 839 798 844 720 844 659 c 0
 844 598 842 547 838 506 c 0
EndSplineSet
Validated: 1
EndChar

StartChar: asterisk
Encoding: 42 42 10
Width: 1114
GlyphClass: 2
Flags: HW
HStem: 621 172<73 428> 647 143<672 1016> 647 117<672 985>
VStem: 694 147<271 414>
LayerCount: 2
Fore
SplineSet
821 270 m 0x30
 809 262 793 259 774 260 c 0
 756 260 740 263 725 270 c 0
 710 277 699 288 694 303 c 0
 676 360 641 441 586 545 c 2
 567 580 l 1
 551 545 l 2
 485 417 445 332 430 291 c 0
 426 280 420 271 410 264 c 0
 400 259 389 255 377 254 c 2
 367 254 l 2
 342 254 321 258 305 268 c 0
 297 272 290 280 283 291 c 0
 276 303 271 317 268 332 c 2
 268 338 l 2
 268 352 272 365 279 379 c 2
 434 633 l 1
 297 625 203 621 150 621 c 0
 123 621 101 629 86 647 c 0
 71 663 63 682 63 702 c 2
 63 709 l 2
 63 729 69 748 80 766 c 0
 85 776 92 782 102 786 c 0
 113 790 124 793 135 793 c 2
 141 793 l 2x90
 204 788 310 780 457 770 c 1
 438 803 l 2
 379 903 331 979 293 1032 c 0
 279 1055 272 1078 272 1100 c 2
 272 1112 l 2
 275 1134 284 1148 299 1155 c 1
 299 1157 l 1
 310 1164 323 1167 338 1167 c 0
 353 1168 369 1165 385 1155 c 0
 401 1145 414 1132 422 1114 c 0
 437 1080 483 991 559 846 c 1
 575 877 l 2
 630 971 671 1049 700 1112 c 0
 708 1128 720 1141 735 1151 c 0
 749 1160 764 1165 777 1165 c 0
 789 1165 801 1161 813 1153 c 0
 823 1148 831 1139 838 1128 c 0
 845 1117 848 1103 848 1085 c 0
 848 1067 842 1050 831 1034 c 0
 787 970 739 891 686 795 c 2
 670 764 l 1
 705 764 l 2x30
 827 764 913 771 965 786 c 0
 972 789 978 791 985 791 c 0
 1000 791 1013 786 1024 776 c 0
 1042 760 1052 743 1053 725 c 0
 1053 714 1052 703 1049 692 c 0
 1042 666 1031 649 1016 641 c 0
 1011 638 1004 637 999 637 c 0
 992 636 987 636 983 637 c 0
 948 644 885 647 795 647 c 0x50
 781 648 763 648 743 648 c 0
 723 648 699 648 672 647 c 1
 827 381 l 2
 838 358 844 337 844 319 c 0
 843 316 842 313 842 309 c 0
 841 290 833 277 821 270 c 0x30
EndSplineSet
Validated: 1
EndChar

StartChar: plus
Encoding: 43 43 11
Width: 1114
GlyphClass: 2
Flags: HW
HStem: 752 131<203 492 618 915>
VStem: 492 127<461 752 883 1179>
LayerCount: 2
Fore
SplineSet
266 750 m 2
 237 750 217 756 205 770 c 0
 191 782 184 798 184 817 c 2
 184 823 l 2
 185 841 192 856 203 868 c 0
 215 880 233 887 258 887 c 2
 264 887 l 2
 361 884 431 883 473 883 c 2
 492 883 l 1
 492 903 l 2
 492 971 490 1045 487 1124 c 2
 487 1133 l 2
 487 1155 494 1170 506 1180 c 0
 517 1188 533 1192 555 1192 c 2
 563 1192 l 2
 582 1192 598 1188 610 1180 c 0
 620 1173 625 1159 625 1137 c 2
 625 1126 l 2
 621 1047 618 971 618 899 c 2
 618 881 l 1
 864 881 l 2
 890 881 907 876 915 866 c 0
 925 855 931 841 932 823 c 0
 931 812 929 803 928 795 c 0
 927 787 923 778 918 770 c 0
 911 759 896 754 874 754 c 2
 866 754 l 2
 843 757 810 758 768 758 c 0
 727 758 676 757 616 756 c 1
 616 735 l 1
 616 604 l 2
 617 553 618 523 618 512 c 0
 617 487 612 471 602 461 c 0
 592 451 579 445 561 444 c 0
 539 445 523 451 512 459 c 0
 498 469 492 486 492 512 c 2
 492 752 l 1
 473 752 l 1
 266 750 l 2
EndSplineSet
Validated: 1
EndChar

StartChar: comma
Encoding: 44 44 12
Width: 1114
GlyphClass: 2
Flags: HW
VStem: 369 381
LayerCount: 2
Fore
SplineSet
442 -424 m 0
 417 -424 398 -416 383 -401 c 0
 375 -391 370 -381 369 -367 c 0
 368 -364 367 -361 367 -360 c 0
 368 -352 373 -340 381 -324 c 0
 410 -283 449 -192 500 -51 c 0
 552 90 583 188 594 244 c 0
 597 258 603 268 614 276 c 0
 626 284 639 289 651 289 c 2
 655 289 l 2
 669 289 682 288 694 285 c 0
 712 280 726 269 737 254 c 0
 745 244 750 232 750 217 c 0
 750 214 749 209 748 201 c 0
 734 134 704 32 659 -106 c 0
 634 -182 614 -241 598 -281 c 0
 580 -319 567 -344 557 -358 c 0
 538 -384 513 -403 483 -414 c 0
 467 -421 453 -424 442 -424 c 0
EndSplineSet
Validated: 1
EndChar

StartChar: hyphen
Encoding: 45 45 13
Width: 1114
GlyphClass: 2
Flags: HW
HStem: 516 139<281 809> 530 125<281 329 332 839>
VStem: 262 592<556 643>
LayerCount: 2
Fore
SplineSet
262 594 m 2x60
 262 617 269 633 281 643 c 0
 291 651 306 655 326 655 c 0
 404 655 496 656 604 657 c 0
 712 660 773 662 788 662 c 0
 814 662 832 657 840 647 c 0
 848 636 853 622 854 604 c 0
 854 582 850 566 842 555 c 0
 832 541 814 535 788 535 c 0
 770 535 702 531 582 526 c 0
 462 519 378 516 330 516 c 0xa0
 308 517 292 522 281 530 c 0
 269 541 262 560 262 586 c 2
 262 594 l 2x60
EndSplineSet
Validated: 1
EndChar

StartChar: period
Encoding: 46 46 14
Width: 1114
GlyphClass: 2
Flags: HW
HStem: -8 275<456 663>
VStem: 412 293<34 223>
LayerCount: 2
Fore
SplineSet
561 -8 m 2
 543 -8 l 2
 541 -8 539 -8 537 -8 c 0
 504 -8 477 4 455 27 c 0
 426 57 412 91 412 131 c 0
 412 166 427 197 457 223 c 0
 491 252 529 266 571 266 c 0
 573 266 575 266 577 266 c 0
 613 266 643 254 666 231 c 0
 692 205 705 173 705 135 c 0
 705 97 692 65 666 39 c 0
 641 13 606 -3 561 -8 c 2
EndSplineSet
Validated: 1
EndChar

StartChar: slash
Encoding: 47 47 15
Width: 1114
GlyphClass: 2
Flags: HW
LayerCount: 2
Fore
SplineSet
66 -18 m 0
 66 11 73 36 88 59 c 0
 287 387 458 679 600 934 c 0
 690 1091 785 1269 885 1468 c 0
 895 1486 907 1499 922 1509 c 0
 937 1519 951 1524 965 1524 c 0
 980 1524 996 1520 1012 1513 c 0
 1030 1502 1042 1487 1047 1468 c 0
 1048 1464 1049 1459 1049 1452 c 0
 1049 1442 1044 1424 1034 1395 c 0
 999 1324 899 1153 735 881 c 0
 571 609 471 440 436 373 c 0
 420 342 385 270 330 158 c 0
 281 58 250 -3 238 -25 c 0
 219 -59 194 -82 164 -96 c 0
 150 -103 138 -106 127 -106 c 0
 115 -106 104 -103 94 -96 c 0
 79 -88 71 -68 68 -37 c 0
 67 -30 66 -23 66 -18 c 0
EndSplineSet
Validated: 1
EndChar

StartChar: zero
Encoding: 48 48 16
Width: 1114
GlyphClass: 2
Flags: HW
HStem: -31 133<389 692> 1323 127<419 701>
VStem: 117 162<363 1117> 846 154<304 1076>
LayerCount: 2
Fore
SplineSet
119 801 m 0
 120 857 124 905 129 945 c 0
 134 985 142 1029 152 1075 c 0
 162 1121 172 1163 184 1198 c 0
 215 1281 269 1344 344 1386 c 0
 412 1428 496 1450 594 1450 c 0
 642 1450 687 1441 729 1423 c 0
 774 1405 815 1380 852 1345 c 0
 889 1310 919 1263 944 1206 c 0
 969 1149 984 1084 991 1010 c 0
 996 928 999 838 999 741 c 0
 999 667 997 590 992 509 c 0
 987 428 979 364 967 319 c 0
 944 233 915 165 881 113 c 0
 865 88 845 67 825 51 c 0
 805 35 784 21 762 10 c 0
 743 -1 719 -9 692 -15 c 0
 665 -21 638 -26 612 -28 c 0
 586 -30 555 -31 518 -31 c 0
 462 -30 411 -18 365 4 c 0
 313 26 268 56 231 95 c 0
 194 134 166 183 146 240 c 0
 126 297 117 359 117 426 c 2
 117 438 l 1
 117 633 l 2
 117 648 116 664 116 681 c 0
 116 716 117 756 119 801 c 0
393 1255 m 0
 349 1210 316 1138 293 1040 c 0
 285 1005 278 964 274 918 c 0
 271 878 269 824 269 757 c 0
 269 690 271 610 274 516 c 0
 275 479 277 455 278 445 c 0
 279 435 279 428 279 424 c 2
 279 363 l 1
 315 412 l 1
 484 662 637 919 772 1184 c 2
 778 1196 l 1
 770 1206 l 2
 745 1243 716 1272 681 1292 c 0
 646 1312 607 1323 565 1323 c 0
 491 1323 434 1300 393 1255 c 0
611 113 m 0
 639 120 666 131 692 147 c 0
 744 181 784 245 813 338 c 0
 818 356 824 402 830 476 c 0
 836 550 841 635 844 731 c 0
 845 757 846 782 846 807 c 0
 846 877 843 944 838 1008 c 2
 831 1079 l 1
 799 1014 l 1
 664 716 506 466 324 264 c 1
 315 254 l 1
 319 242 l 2
 342 191 374 154 412 131 c 0
 442 112 477 102 518 102 c 0
 552 102 583 106 611 113 c 0
EndSplineSet
Validated: 1
EndChar

StartChar: one
Encoding: 49 49 17
Width: 1114
GlyphClass: 2
Flags: HW
HStem: 2 133<635 997> 1067 43G<254 263>
VStem: 492 143<150 1245> 514 125<788 1249>
LayerCount: 2
Fore
SplineSet
997 121 m 0xe0
 1009 109 1016 92 1016 72 c 0
 1016 52 1010 35 998 22 c 0
 986 9 964 2 930 2 c 0
 473 6 219 8 168 8 c 0
 143 8 126 15 116 28 c 0
 106 41 100 58 100 78 c 2
 100 84 l 2
 100 103 106 119 116 133 c 0
 126 147 144 154 170 154 c 0
 230 154 338 153 492 150 c 1
 492 170 l 2xe0
 492 223 490 262 489 285 c 0
 488 308 487 329 487 348 c 0
 487 370 488 435 489 543 c 0
 489 570 493 673 499 852 c 0
 505 1031 510 1163 514 1249 c 1
 481 1221 l 2
 391 1139 324 1089 279 1071 c 0
 272 1068 265 1067 260 1067 c 0
 248 1067 233 1073 217 1087 c 0
 195 1106 184 1125 184 1143 c 2
 184 1145 l 1
 184 1147 l 2
 184 1165 189 1181 197 1196 c 0
 205 1211 220 1227 242 1243 c 0
 283 1274 325 1308 367 1343 c 2
 453 1421 l 2
 469 1436 486 1449 503 1460 c 0
 520 1471 534 1477 545 1477 c 0
 568 1477 591 1466 616 1444 c 0
 630 1432 640 1421 645 1411 c 0
 649 1406 651 1401 651 1397 c 0
 650 1364 646 1252 639 1061 c 0xd0
 632 870 629 758 629 725 c 0
 629 486 631 292 635 143 c 1
 724 140 793 138 844 137 c 0
 895 136 924 135 934 135 c 0
 937 135 941 135 944 135 c 0
 970 135 987 131 997 121 c 0xe0
EndSplineSet
Validated: 1
EndChar

StartChar: two
Encoding: 50 50 18
Width: 1114
GlyphClass: 2
Flags: HW
HStem: -16 131<287 950> -4 141<537 991> 1325 133<425 725>
VStem: 119 166<123 329> 803 164<926 1251>
LayerCount: 2
Fore
SplineSet
528 -16 m 0xb8
 468 -19 407 -20 346 -20 c 0
 278 -19 224 -16 186 -12 c 0
 174 -11 164 -7 156 1 c 0
 148 9 141 19 137 31 c 0
 125 62 119 108 119 167 c 0
 119 226 131 287 156 349 c 0
 181 411 217 471 265 528 c 0
 313 585 367 633 426 668 c 0
 560 751 646 809 684 842 c 0
 739 888 775 938 791 993 c 0
 799 1023 803 1060 803 1104 c 0
 803 1182 780 1239 735 1274 c 0
 694 1308 637 1325 563 1325 c 0
 511 1325 462 1308 416 1274 c 0
 370 1240 332 1201 303 1159 c 0
 291 1143 280 1131 272 1123 c 0
 264 1115 256 1111 248 1110 c 2
 237 1110 l 2
 232 1110 226 1111 219 1112 c 0
 212 1113 201 1117 186 1124 c 0
 168 1134 158 1147 154 1163 c 2
 154 1178 l 2
 154 1180 153 1181 153 1183 c 0
 153 1199 159 1218 170 1241 c 0
 182 1264 201 1289 227 1314 c 0
 253 1339 283 1362 317 1384 c 0
 351 1406 389 1424 430 1438 c 0
 471 1452 513 1458 555 1458 c 0
 685 1458 786 1426 858 1362 c 0
 930 1298 967 1200 967 1069 c 0
 967 961 940 875 885 809 c 0
 843 761 771 707 670 647 c 0
 639 627 596 600 543 569 c 0
 487 538 440 499 403 451 c 0
 365 403 336 354 318 304 c 0
 300 254 289 200 285 143 c 2
 285 123 l 1
 378 118 461 115 535 115 c 0xb8
 588 115 632 116 666 119 c 0
 700 122 745 125 801 129 c 0
 860 133 897 136 913 137 c 2
 934 137 l 2
 940 137 946 138 951 138 c 0
 960 138 966 137 969 135 c 0
 973 134 978 131 983 127 c 0
 987 124 990 122 991 119 c 0
 995 111 997 99 997 84 c 0
 997 54 990 29 975 10 c 0
 968 0 959 -4 948 -4 c 0x78
 850 -4 710 -8 528 -16 c 0xb8
EndSplineSet
Validated: 1
EndChar

StartChar: three
Encoding: 51 51 19
Width: 1114
GlyphClass: 2
Flags: HW
HStem: -31 133<408 697> 672 166<381 586> 1325 133<399 701>
VStem: 774 166<963 1255> 821 164<226 538>
LayerCount: 2
Fore
SplineSet
938 1090 m 0xf0
 939 1087 940 1084 940 1081 c 0xf0
 940 1047 935 1015 925 986 c 0
 915 957 901 932 885 912 c 0
 869 892 848 874 824 858 c 0
 800 842 776 829 750 819 c 0
 727 809 702 802 676 797 c 2
 590 778 l 1
 676 758 l 2
 725 747 768 733 806 716 c 0
 844 699 876 677 903 650 c 0
 930 623 951 591 965 551 c 0
 979 511 985 464 985 408 c 0
 985 274 943 167 860 88 c 0
 778 9 670 -31 535 -31 c 0
 494 -31 453 -24 412 -10 c 0
 368 5 329 23 294 44 c 0
 259 65 229 89 204 114 c 0
 179 139 159 163 147 188 c 0
 136 208 131 228 131 246 c 0
 131 251 132 257 133 262 c 0
 137 281 148 295 164 303 c 0
 179 311 193 315 207 315 c 0
 212 315 218 314 223 313 c 0
 242 308 262 293 281 268 c 0
 312 226 351 188 399 154 c 0
 443 120 491 102 543 102 c 0
 621 102 684 127 735 178 c 0
 792 229 821 294 821 373 c 0xe8
 821 419 814 461 799 497 c 0
 784 533 760 565 729 592 c 0
 672 645 575 672 440 672 c 0
 420 672 402 680 387 698 c 0
 372 716 365 737 365 761 c 0
 365 785 370 803 381 817 c 0
 391 831 406 838 426 838 c 0
 532 838 617 861 678 909 c 0
 742 957 774 1026 774 1116 c 2
 774 1124 l 1
 774 1133 l 2
 774 1135 774 1136 774 1138 c 0
 774 1199 752 1246 707 1278 c 0
 663 1309 601 1325 522 1325 c 0
 496 1325 469 1321 440 1311 c 0
 430 1307 421 1300 410 1290 c 0
 399 1280 390 1273 383 1268 c 0
 376 1263 367 1253 357 1240 c 0
 347 1227 340 1218 336 1213 c 0
 332 1208 325 1199 315 1184 c 0
 296 1158 278 1143 260 1139 c 0
 255 1138 249 1137 244 1137 c 0
 230 1137 215 1141 199 1149 c 0
 183 1157 172 1171 168 1190 c 0
 167 1194 166 1199 166 1204 c 0
 166 1222 171 1242 182 1264 c 0
 208 1316 248 1360 301 1397 c 0
 328 1416 361 1431 399 1442 c 0
 434 1453 473 1458 514 1458 c 0
 798 1458 940 1338 940 1098 c 0
 939 1095 938 1093 938 1090 c 0xf0
EndSplineSet
Validated: 1
EndChar

StartChar: four
Encoding: 52 52 20
Width: 1114
GlyphClass: 2
Flags: HW
HStem: -29 43G<793 809> 479 125<271 715 852 1000> 1425 41G<733 743>
VStem: 700 134<937 1285> 715 154<-12 465> 715 137<-3 475 602 1228>
LayerCount: 2
Fore
SplineSet
745 -2 m 0xf0
 726 14 716 30 715 45 c 2
 715 123 l 1xe8
 715 477 l 1xe4
 671 478 635 479 606 479 c 0
 426 478 294 469 209 451 c 0
 201 450 192 449 184 449 c 0
 176 449 168 450 160 453 c 0
 148 458 137 465 129 475 c 0
 110 500 100 529 100 563 c 0
 100 579 104 596 109 612 c 0
 123 650 158 713 217 798 c 0
 276 883 349 989 438 1116 c 0
 525 1243 588 1336 625 1395 c 0
 640 1418 656 1435 674 1447 c 0
 692 1459 708 1464 723 1464 c 1
 727 1465 731 1466 735 1466 c 0
 751 1466 768 1462 784 1452 c 0
 800 1442 811 1426 815 1403 c 0
 823 1357 830 1284 835 1185 c 0xf0
 840 1086 843 1002 844 934 c 2
 850 602 l 1
 885 599 917 598 945 598 c 0
 973 598 991 593 1000 583 c 0
 1009 573 1015 559 1016 541 c 0
 1016 519 1012 503 1004 492 c 0
 993 478 974 471 947 471 c 0
 920 471 889 472 852 475 c 1xe4
 853 259 857 138 864 109 c 0
 867 94 868 80 868 68 c 0xe8
 869 46 866 26 856 8 c 0
 851 -3 844 -11 835 -18 c 0
 826 -25 815 -29 803 -29 c 0
 784 -28 764 -18 745 -2 c 0xf0
700 1235 m 2xf0
 698 1288 l 1
 668 1245 l 2
 482 979 355 772 285 625 c 2
 270 594 l 1
 303 596 l 2
 375 601 463 604 565 604 c 0
 606 604 656 603 715 602 c 1
 715 623 l 2
 715 880 710 1083 700 1235 c 2xf0
EndSplineSet
Validated: 1
EndChar

StartChar: five
Encoding: 53 53 21
Width: 1114
GlyphClass: 2
Flags: HW
HStem: -16 133<361 663> 881 143<447 743> 1288 141<514 971> 1311 123<293 922>
VStem: 131 152<849 1272> 147 139<947 1272> 842 164<333 771>
LayerCount: 2
Fore
SplineSet
969 340 m 0xd6
 944 261 909 195 865 143 c 0
 821 91 770 52 713 25 c 0
 657 -2 595 -16 528 -16 c 0
 476 -16 428 -10 383 2 c 0
 335 14 295 30 262 50 c 0
 229 70 202 92 180 115 c 0
 158 138 141 161 127 186 c 0
 116 212 111 234 111 250 c 0
 111 273 122 290 145 301 c 0
 168 312 185 317 195 317 c 0
 199 316 202 315 205 315 c 0
 213 315 221 311 229 303 c 0
 237 295 248 282 260 266 c 0
 327 166 411 117 512 117 c 0
 610 117 689 160 748 246 c 0
 811 331 842 443 842 584 c 0
 842 673 821 744 780 797 c 0
 740 853 682 881 606 881 c 0
 573 881 539 876 504 868 c 0
 485 863 459 852 428 834 c 0
 420 830 409 822 396 810 c 0
 383 798 375 790 371 786 c 0
 351 767 333 751 319 737 c 0
 297 718 271 708 240 705 c 2
 231 705 l 2
 217 705 205 708 193 713 c 0
 175 720 162 737 152 764 c 0
 141 795 134 835 133 881 c 0
 132 903 131 924 131 944 c 0xda
 131 995 134 1066 141 1159 c 0
 145 1210 147 1246 147 1266 c 2
 147 1272 l 1
 143 1276 l 2
 131 1296 125 1321 125 1350 c 0
 125 1381 134 1405 152 1423 c 0
 163 1434 174 1440 188 1440 c 0
 239 1439 352 1437 528 1434 c 0xd6
 701 1431 838 1430 936 1430 c 0
 946 1430 955 1425 963 1415 c 0
 973 1403 978 1388 981 1371 c 0
 984 1354 984 1339 983 1325 c 0
 982 1311 978 1302 972 1299 c 0
 966 1296 960 1293 957 1292 c 0
 954 1291 948 1290 940 1289 c 0
 932 1288 926 1288 923 1288 c 0xe6
 920 1288 912 1288 900 1289 c 0
 888 1290 877 1290 867 1291 c 0
 857 1292 827 1294 778 1298 c 0
 733 1302 692 1306 657 1308 c 0
 622 1310 573 1311 511 1311 c 0
 449 1311 376 1308 293 1303 c 1
 292 1277 290 1231 287 1165 c 0xd6
 284 1099 283 1058 283 1040 c 0xda
 283 1022 283 1005 284 988 c 0
 285 971 286 924 287 848 c 1
 319 885 l 2
 354 925 401 957 458 984 c 0
 515 1011 579 1024 653 1024 c 0
 706 1024 755 1013 799 991 c 0
 845 969 883 940 912 903 c 0
 941 866 965 822 981 771 c 0
 997 720 1006 665 1006 606 c 0
 1006 508 994 419 969 340 c 0xd6
EndSplineSet
Validated: 1
EndChar

StartChar: six
Encoding: 54 54 22
Width: 1114
GlyphClass: 2
Flags: HW
HStem: -27 133<421 686> 823 143<420 749>
VStem: 106 143<318 623> 850 160<298 713>
LayerCount: 2
Fore
SplineSet
973 295 m 0
 948 229 915 173 873 126 c 0
 831 79 783 41 727 14 c 0
 674 -13 618 -27 559 -27 c 0
 485 -27 422 -11 367 20 c 0
 307 51 257 97 219 155 c 0
 181 213 152 281 134 361 c 0
 116 441 106 530 106 627 c 0
 106 750 118 860 141 958 c 0
 163 1049 192 1127 230 1190 c 0
 268 1253 314 1306 369 1348 c 0
 420 1392 473 1424 532 1446 c 0
 591 1468 657 1482 729 1489 c 2
 741 1489 l 2
 761 1489 781 1485 797 1477 c 0
 813 1469 822 1455 825 1436 c 2
 825 1434 l 2
 825 1424 819 1413 807 1399 c 0
 792 1381 776 1369 758 1364 c 0
 744 1360 723 1355 694 1349 c 0
 665 1343 641 1336 621 1329 c 0
 601 1322 576 1312 549 1300 c 0
 494 1274 439 1227 383 1157 c 1
 353 1119 325 1069 299 1006 c 0
 273 943 257 887 250 838 c 2
 242 770 l 1
 285 821 l 2
 326 869 376 905 436 930 c 0
 495 955 561 967 635 967 c 0
 690 966 738 956 782 940 c 0
 828 924 869 897 903 861 c 0
 937 825 964 777 982 718 c 0
 1000 659 1010 587 1010 504 c 0
 1010 430 998 361 973 295 c 0
254 469 m 0
 259 402 280 337 315 276 c 0
 333 243 354 215 377 190 c 0
 399 164 426 144 457 129 c 0
 488 114 522 106 557 106 c 2
 561 106 l 2
 612 106 658 126 702 164 c 0
 746 201 782 248 809 305 c 0
 836 362 850 420 850 479 c 0
 850 546 843 602 831 648 c 0
 819 694 800 730 774 756 c 0
 749 782 722 799 692 809 c 0
 662 819 627 823 586 823 c 0
 520 823 458 805 401 768 c 0
 342 731 294 684 254 627 c 1
 250 623 l 1
 250 616 l 2
 250 552 251 503 254 469 c 0
EndSplineSet
Validated: 1
EndChar

StartChar: seven
Encoding: 55 55 23
Width: 1114
GlyphClass: 2
Flags: HW
HStem: -29 43G<245 256> 1296 146<168 817>
LayerCount: 2
Fore
SplineSet
962 1420 m 0
 974 1415 983 1408 993 1397 c 0
 1003 1386 1008 1372 1008 1354 c 0
 1008 1336 1002 1314 991 1288 c 0
 972 1247 938 1186 888 1104 c 0
 838 1022 787 937 735 850 c 0
 686 764 626 649 555 505 c 0
 484 361 417 213 354 61 c 0
 339 28 320 5 297 -10 c 0
 281 -22 264 -29 248 -29 c 0
 243 -29 237 -28 233 -27 c 0
 211 -22 196 -8 186 13 c 0
 182 22 180 32 180 42 c 0
 180 55 183 68 190 82 c 0
 261 221 335 361 410 500 c 0
 482 639 542 750 589 833 c 0
 636 916 680 996 721 1075 c 0
 763 1153 793 1217 809 1266 c 2
 817 1292 l 1
 741 1294 666 1296 591 1296 c 0
 541 1296 491 1295 442 1294 c 0
 311 1290 224 1283 182 1272 c 0
 178 1271 173 1270 168 1270 c 0
 163 1270 157 1271 152 1274 c 0
 142 1277 134 1282 129 1290 c 0
 117 1308 110 1329 109 1352 c 0
 109 1371 113 1386 122 1398 c 0
 131 1410 149 1418 178 1423 c 0
 250 1435 365 1442 522 1442 c 0
 571 1442 668 1439 811 1432 c 0
 883 1429 923 1427 928 1427 c 0
 939 1427 950 1425 962 1420 c 0
EndSplineSet
Validated: 1
EndChar

StartChar: eight
Encoding: 56 56 24
Width: 1114
GlyphClass: 2
Flags: HW
HStem: -37 135<378 715> 1343 106<411 672>
VStem: 94 137<239 531> 150 152<989 1234> 788 143<981 1224> 870 152<243 551>
LayerCount: 2
Fore
SplineSet
1006 292 m 0xc4
 995 250 976 210 949 170 c 0
 922 130 891 96 853 66 c 0
 815 36 769 11 713 -8 c 0
 660 -27 601 -37 537 -37 c 0
 473 -37 416 -28 367 -10 c 0
 315 8 273 30 240 59 c 0
 207 88 179 122 156 161 c 0
 133 200 117 239 108 279 c 0
 99 319 94 359 94 402 c 0xe4
 94 445 105 492 128 543 c 0
 151 594 183 640 225 684 c 0
 267 728 313 758 362 774 c 2
 408 791 l 1
 365 811 l 2
 297 844 244 886 206 938 c 0
 168 990 150 1043 150 1096 c 0
 150 1111 151 1127 153 1145 c 0
 155 1163 160 1183 168 1207 c 0
 176 1231 186 1254 198 1276 c 0
 210 1298 226 1319 247 1340 c 0
 268 1361 292 1381 319 1397 c 0
 345 1412 377 1425 415 1435 c 0
 453 1445 495 1450 541 1450 c 0
 587 1450 629 1446 667 1436 c 0
 705 1426 736 1413 762 1397 c 0
 789 1381 814 1361 835 1340 c 0
 856 1319 872 1298 884 1276 c 0
 896 1254 904 1231 912 1206 c 0
 920 1181 925 1160 928 1142 c 0
 931 1124 932 1106 932 1090 c 0xd8
 932 1074 930 1057 926 1043 c 0
 922 1029 916 1017 911 1005 c 0
 906 993 898 981 888 969 c 0
 878 957 868 946 858 936 c 0
 842 918 814 895 774 868 c 0
 758 856 731 836 694 809 c 1
 725 795 l 2
 771 775 813 751 850 724 c 0
 887 697 916 671 937 645 c 0
 958 619 975 592 989 564 c 0
 1003 536 1012 511 1016 488 c 0
 1020 465 1022 443 1022 418 c 0
 1022 376 1017 334 1006 292 c 0xc4
369 967 m 0
 409 930 473 893 563 858 c 1
 569 854 l 1
 578 858 l 2
 631 881 679 914 721 956 c 0
 766 1000 788 1042 788 1083 c 0
 788 1124 778 1164 756 1204 c 0
 734 1244 704 1277 666 1304 c 0
 628 1331 587 1343 543 1343 c 2
 539 1343 l 2
 476 1342 421 1317 375 1268 c 0
 326 1219 301 1163 301 1102 c 0xd8
 301 1051 324 1007 369 967 c 0
281 232 m 0
 314 188 353 154 399 131 c 0
 444 109 493 98 545 98 c 0
 582 98 618 105 655 117 c 0
 692 129 727 147 758 170 c 0
 791 195 818 225 839 263 c 0
 860 301 870 341 870 385 c 0
 870 410 868 433 865 454 c 0
 862 475 854 499 840 526 c 0
 826 553 807 579 784 602 c 0
 762 625 733 649 697 673 c 0
 661 697 616 719 563 741 c 1
 557 739 l 2
 464 712 388 665 328 598 c 0
 264 531 231 459 231 381 c 0xe4
 231 326 248 276 281 232 c 0
EndSplineSet
Validated: 1
EndChar

StartChar: nine
Encoding: 57 57 25
Width: 1114
GlyphClass: 2
Flags: HW
HStem: -27 43G<317 380> 502 141<396 726> 1362 131<428 690>
VStem: 106 160<789 1180> 868 141<811 1141>
LayerCount: 2
Fore
SplineSet
971 487 m 0
 946 401 912 328 870 268 c 0
 828 208 778 157 721 115 c 0
 666 73 608 40 546 17 c 0
 484 -6 416 -20 344 -27 c 2
 328 -27 l 2
 308 -27 288 -22 271 -13 c 0
 254 -4 245 9 242 27 c 2
 242 29 l 2
 242 40 248 52 260 66 c 0
 275 82 292 93 311 98 c 0
 326 103 350 110 381 117 c 0
 412 124 440 130 465 137 c 0
 490 144 518 154 549 167 c 0
 580 180 611 197 640 220 c 0
 669 243 697 270 723 301 c 1
 756 343 786 391 813 444 c 0
 840 497 858 547 868 592 c 2
 883 666 l 1
 834 608 l 2
 799 568 754 541 702 526 c 0
 651 510 587 502 508 502 c 0
 456 502 406 516 358 543 c 0
 307 569 264 604 227 648 c 0
 190 692 161 744 139 802 c 0
 117 860 106 920 106 981 c 0
 106 1055 118 1124 143 1188 c 0
 168 1252 201 1307 242 1351 c 0
 283 1395 331 1430 387 1456 c 0
 440 1481 497 1493 557 1493 c 0
 703 1493 815 1433 893 1313 c 0
 971 1193 1010 1022 1010 799 c 0
 1010 683 997 578 971 487 c 0
344 737 m 0
 392 674 462 643 555 643 c 0
 612 643 668 657 723 686 c 0
 782 715 829 754 864 805 c 2
 868 811 l 1
 868 844 l 2
 868 882 866 933 862 997 c 2
 862 999 l 2
 855 1066 835 1131 801 1192 c 0
 783 1225 762 1253 739 1278 c 0
 717 1303 690 1322 659 1338 c 0
 628 1354 594 1362 559 1362 c 2
 555 1362 l 2
 506 1361 460 1343 416 1309 c 0
 372 1275 336 1231 308 1176 c 0
 280 1121 266 1065 266 1006 c 0
 266 890 292 800 344 737 c 0
EndSplineSet
Validated: 1
EndChar

StartChar: colon
Encoding: 58 58 26
Width: 1114
GlyphClass: 2
Flags: HW
HStem: 100 279<460 651> 649 277<482 643>
VStem: 446 225<122 363 674 888>
LayerCount: 2
Fore
SplineSet
565 649 m 2
 559 649 l 2
 526 650 500 657 481 668 c 0
 461 680 449 699 446 725 c 0
 445 748 444 772 444 797 c 0
 443 809 443 820 443 831 c 0
 443 842 443 853 444 864 c 0
 445 878 450 889 457 897 c 0
 464 905 472 911 483 915 c 0
 504 922 527 926 550 926 c 0
 554 926 557 926 561 926 c 1
 572 926 583 925 594 922 c 0
 623 917 642 905 653 889 c 0
 660 879 665 867 666 852 c 0
 667 844 668 835 668 827 c 0
 668 792 662 755 651 715 c 0
 646 693 634 677 616 666 c 0
 598 655 581 649 565 649 c 2
559 100 m 0
 533 100 508 109 483 125 c 0
 463 137 452 154 449 176 c 0
 448 213 446 234 446 238 c 0
 446 242 448 253 449 272 c 0
 450 291 452 306 453 317 c 1
 453 329 456 340 463 348 c 0
 468 356 476 363 487 367 c 0
 511 375 533 379 554 379 c 0
 557 379 560 379 563 379 c 1
 577 379 590 377 604 373 c 0
 619 369 633 360 645 348 c 0
 657 336 665 321 668 305 c 0
 671 287 672 270 672 254 c 0
 672 225 667 196 659 166 c 0
 654 144 640 128 618 117 c 0
 598 106 578 100 559 100 c 0
EndSplineSet
Validated: 1
EndChar

StartChar: semicolon
Encoding: 59 59 27
Width: 1114
GlyphClass: 2
Flags: HW
HStem: 563 279<521 705>
VStem: 504 225<585 827>
LayerCount: 2
Fore
SplineSet
688 162 m 0
 688 128 644 -52 555 -377 c 0
 548 -402 537 -418 522 -428 c 0
 507 -438 491 -442 475 -442 c 2
 471 -442 l 2
 448 -441 427 -434 408 -420 c 0
 394 -410 387 -397 387 -379 c 0
 387 -356 401 -273 430 -131 c 0
 456 -5 478 91 494 158 c 0
 498 176 503 189 509 199 c 0
 515 209 521 214 526 217 c 0
 540 222 553 225 565 225 c 0
 569 225 575 224 580 223 c 2
 582 223 l 2
 605 223 628 218 653 207 c 0
 665 202 675 194 682 184 c 0
 686 179 688 172 688 162 c 0
623 563 m 2
 608 564 591 568 574 573 c 0
 557 578 542 587 529 599 c 0
 516 611 509 624 508 639 c 0
 507 662 506 686 505 710 c 0
 505 718 504 725 504 733 c 0
 504 748 505 763 506 778 c 0
 507 790 511 801 518 810 c 0
 525 819 535 825 547 829 c 0
 559 833 571 837 583 839 c 0
 595 841 603 842 609 842 c 2
 623 842 l 2
 646 841 668 835 688 825 c 0
 699 821 708 814 715 804 c 0
 722 794 726 782 727 768 c 0
 728 760 729 751 729 743 c 0
 729 706 724 669 713 629 c 0
 708 607 696 591 678 580 c 0
 660 569 643 563 627 563 c 2
 624 563 l 1
 623 563 l 2
EndSplineSet
Validated: 1
EndChar

StartChar: less
Encoding: 60 60 28
Width: 1114
GlyphClass: 2
Flags: HW
HStem: 1399 41G<941 956>
LayerCount: 2
Fore
SplineSet
1026 1327 m 0
 1012 1305 984 1278 940 1247 c 0
 864 1194 748 1107 592 985 c 0
 435 862 328 779 272 737 c 1
 295 723 l 2
 347 682 405 632 471 573 c 0
 537 514 594 462 643 416 c 0
 692 368 746 319 803 270 c 0
 862 221 912 183 954 156 c 0
 998 127 1026 103 1038 84 c 0
 1043 76 1047 67 1047 57 c 0
 1047 53 1045 47 1042 37 c 0
 1038 26 1031 17 1020 10 c 0
 1009 3 993 -1 973 -4 c 0
 968 -5 962 -6 958 -6 c 0
 940 -6 921 -2 899 6 c 0
 865 17 824 41 776 76 c 0
 727 111 673 155 616 207 c 0
 559 259 501 312 444 365 c 0
 387 418 326 472 262 528 c 0
 198 584 143 629 98 662 c 0
 84 673 76 688 72 707 c 0
 71 717 70 725 70 735 c 0
 70 745 71 754 74 764 c 0
 79 782 88 795 100 803 c 0
 178 860 270 933 375 1020 c 0
 480 1107 576 1185 662 1255 c 0
 749 1325 826 1379 893 1419 c 0
 913 1433 932 1440 950 1440 c 0
 962 1440 973 1437 981 1432 c 0
 1004 1420 1020 1402 1030 1380 c 0
 1034 1370 1036 1362 1036 1354 c 0
 1035 1346 1031 1337 1026 1327 c 0
EndSplineSet
Validated: 1
EndChar

StartChar: equal
Encoding: 61 61 29
Width: 1114
GlyphClass: 2
Flags: HW
HStem: 526 129<205 915> 928 135<203 901>
LayerCount: 2
Fore
SplineSet
258 1063 m 2
 264 1063 l 2
 342 1060 422 1059 504 1059 c 0
 587 1059 664 1060 735 1061 c 0
 806 1062 849 1063 864 1063 c 0
 890 1062 907 1057 915 1047 c 0
 925 1037 931 1024 932 1006 c 0
 931 971 920 948 901 940 c 0
 896 937 890 936 883 936 c 2
 866 936 l 2
 835 937 806 938 780 938 c 2
 709 938 l 1
 483 932 l 2
 389 929 319 928 274 928 c 0
 271 928 269 928 266 928 c 0
 240 928 221 934 207 946 c 0
 192 958 184 973 184 991 c 2
 184 997 l 2
 185 1015 192 1030 203 1042 c 0
 215 1056 233 1063 258 1063 c 2
270 655 m 2
 314 654 366 653 426 653 c 0
 487 654 561 656 647 657 c 2
 864 662 l 2
 890 662 907 657 915 647 c 0
 925 636 931 622 932 604 c 0
 932 582 928 565 920 553 c 0
 915 546 908 542 901 539 c 0
 896 536 890 535 883 535 c 2
 866 535 l 2
 832 536 794 537 752 537 c 0
 710 537 618 534 477 530 c 0
 380 527 310 526 266 526 c 0
 263 526 261 526 259 526 c 0
 234 526 216 533 205 545 c 0
 191 559 184 575 184 594 c 2
 184 598 l 2
 185 614 193 628 205 639 c 0
 217 650 237 655 266 655 c 2
 270 655 l 2
EndSplineSet
Validated: 1
EndChar

StartChar: greater
Encoding: 62 62 30
Width: 1114
GlyphClass: 2
Flags: HW
HStem: 1413 41G<156 167>
LayerCount: 2
Fore
SplineSet
1042 684 m 0
 1037 666 1028 653 1016 645 c 0
 938 588 846 515 741 428 c 0
 636 341 541 263 455 193 c 0
 368 125 290 70 223 29 c 0
 203 15 183 8 164 8 c 0
 153 8 143 11 135 16 c 0
 112 28 96 46 86 68 c 0
 82 78 80 86 80 94 c 0
 80 102 83 111 88 121 c 0
 102 143 131 170 176 201 c 0
 252 254 368 341 524 463 c 0
 680 586 779 663 823 694 c 2
 844 711 l 1
 823 725 l 2
 770 766 711 815 645 874 c 0
 579 933 522 986 473 1032 c 0
 424 1080 370 1129 313 1178 c 0
 254 1227 204 1265 162 1292 c 0
 118 1321 90 1345 78 1364 c 0
 73 1374 70 1383 70 1393 c 0
 70 1396 71 1401 74 1411 c 0
 78 1422 85 1431 96 1438 c 0
 107 1445 123 1449 143 1452 c 0
 148 1453 154 1454 158 1454 c 0
 176 1454 195 1450 217 1442 c 0
 250 1431 291 1407 340 1372 c 0
 389 1337 443 1293 500 1241 c 0
 557 1189 615 1136 672 1083 c 0
 729 1030 790 976 854 920 c 0
 917 864 972 819 1018 786 c 0
 1032 775 1040 760 1044 741 c 0
 1045 731 1047 723 1047 713 c 0
 1047 703 1045 694 1042 684 c 0
EndSplineSet
Validated: 1
EndChar

StartChar: question
Encoding: 63 63 31
Width: 1114
GlyphClass: 2
Flags: HW
HStem: -8 275<410 617> 1325 133<420 720>
VStem: 367 293<40 223> 799 164<980 1250>
LayerCount: 2
Fore
SplineSet
963 1069 m 0
 963 1035 957 1004 946 975 c 0
 935 948 921 923 903 903 c 0
 885 883 865 863 842 844 c 0
 817 826 793 807 768 788 c 0
 743 769 719 749 696 727 c 0
 674 704 655 676 637 645 c 0
 619 614 607 579 602 541 c 0
 597 510 585 485 569 469 c 0
 559 461 546 457 530 457 c 0
 522 456 514 456 504 459 c 0
 473 467 452 482 442 502 c 0
 437 513 434 526 434 541 c 0
 434 557 436 575 440 594 c 0
 450 628 463 661 481 692 c 0
 499 723 519 750 539 772 c 0
 561 795 583 818 606 838 c 0
 629 858 652 878 674 897 c 0
 696 916 716 936 735 956 c 0
 753 976 768 999 780 1024 c 0
 792 1049 799 1075 799 1104 c 0
 799 1182 775 1239 729 1274 c 0
 685 1308 623 1325 541 1325 c 0
 519 1325 497 1321 475 1311 c 0
 453 1303 435 1292 420 1280 c 0
 405 1268 389 1252 373 1233 c 0
 355 1213 342 1196 334 1184 c 0
 326 1172 315 1157 303 1139 c 0
 291 1121 280 1108 272 1100 c 0
 264 1093 256 1088 248 1087 c 2
 236 1087 l 2
 232 1087 226 1089 219 1090 c 0
 212 1091 201 1095 186 1102 c 0
 170 1112 160 1125 156 1141 c 0
 155 1145 153 1151 153 1160 c 0
 153 1176 159 1196 170 1219 c 0
 200 1275 243 1326 299 1374 c 0
 329 1400 365 1421 406 1436 c 0
 447 1451 488 1458 532 1458 c 0
 674 1458 782 1426 854 1362 c 0
 926 1298 963 1200 963 1069 c 0
514 -8 m 2
 496 -8 l 2
 494 -8 492 -8 490 -8 c 0
 457 -8 430 4 408 27 c 0
 381 57 367 91 367 131 c 0
 367 166 382 197 412 223 c 0
 445 252 482 266 526 266 c 0
 528 266 530 266 532 266 c 0
 566 266 595 254 618 231 c 0
 645 205 659 173 659 135 c 0
 659 97 647 65 621 39 c 0
 594 13 558 -3 514 -8 c 2
EndSplineSet
Validated: 1
EndChar

StartChar: at
Encoding: 64 64 32
Width: 1114
GlyphClass: 2
Flags: HW
HStem: -246 135<405 747> 227 121<823 931> 260 125<452 630> 801 117<486 708> 1276 143<456 761>
VStem: 49 137<195 874> 301 119<414 733> 674 125<476 659> 956 111<361 997>
LayerCount: 2
Fore
SplineSet
965 18 m 0xdf80
 958 -1 950 -17 942 -31 c 0
 935 -46 925 -63 913 -82 c 0
 901 -102 888 -119 874 -133 c 0
 860 -147 843 -161 821 -176 c 0
 801 -191 778 -203 752 -213 c 0
 726 -223 696 -231 662 -236 c 0
 628 -243 592 -246 555 -246 c 2
 543 -246 l 2
 475 -246 410 -229 350 -195 c 0
 289 -161 237 -112 193 -51 c 0
 149 10 114 85 88 174 c 0
 62 264 49 362 49 467 c 0
 50 586 60 697 78 799 c 0
 97 903 123 992 156 1067 c 0
 189 1142 227 1207 272 1260 c 0
 316 1315 365 1354 418 1380 c 0
 471 1406 527 1419 586 1419 c 0
 631 1419 672 1416 707 1409 c 0
 744 1402 778 1390 811 1374 c 0
 844 1358 872 1336 897 1309 c 0
 923 1282 947 1247 969 1206 c 0
 991 1165 1008 1117 1022 1061 c 0
 1052 939 1067 785 1067 598 c 0
 1066 501 1051 416 1024 344 c 0
 1010 307 992 278 967 258 c 0
 944 238 916 227 883 227 c 0xdf80
 835 228 799 244 774 274 c 0
 754 299 740 335 735 383 c 2
 727 475 l 1
 696 387 l 2
 682 349 665 319 643 299 c 0
 617 273 583 260 539 260 c 0
 464 261 406 286 365 332 c 0
 323 378 301 451 301 549 c 0
 301 598 306 644 317 686 c 0
 328 728 343 764 362 793 c 0
 381 820 403 844 428 864 c 0
 454 884 480 899 506 907 c 0
 532 914 558 918 584 918 c 0
 621 918 656 911 690 897 c 0
 719 886 742 872 758 854 c 0
 768 843 772 834 772 827 c 0
 772 824 771 822 770 819 c 0
 762 803 751 792 739 788 c 0
 725 784 716 782 709 782 c 0
 698 783 683 787 664 791 c 2
 633 797 l 2
 621 800 609 801 598 801 c 2
 573 801 l 2
 554 800 535 792 516 780 c 0
 497 768 481 753 467 735 c 0
 452 719 440 697 432 668 c 0
 424 639 420 607 420 573 c 0
 420 555 421 538 424 520 c 0
 425 504 429 485 436 463 c 0
 443 441 455 423 471 408 c 0
 487 393 507 385 532 385 c 0xbf80
 583 385 619 405 641 446 c 0
 660 481 671 540 674 621 c 0
 675 635 689 646 715 657 c 0
 735 664 753 668 768 668 c 0
 778 668 787 667 795 664 c 0
 803 660 807 654 807 649 c 2
 807 645 l 2
 802 594 799 552 799 518 c 0
 799 500 800 485 801 471 c 0
 806 427 814 397 825 379 c 0
 839 359 858 348 883 348 c 0
 903 348 919 361 930 387 c 0
 938 407 944 433 948 463 c 0
 953 514 956 560 956 604 c 0
 956 675 953 740 948 799 c 0
 941 859 934 910 924 952 c 0
 914 996 902 1035 887 1069 c 0
 872 1104 857 1133 842 1155 c 0
 827 1177 808 1196 788 1212 c 0
 768 1227 750 1239 735 1247 c 0
 720 1257 702 1264 682 1268 c 0
 662 1272 647 1274 637 1274 c 0
 627 1275 616 1276 602 1276 c 0
 543 1275 489 1256 438 1221 c 0
 387 1186 344 1136 307 1073 c 0
 270 1009 241 931 219 840 c 0
 197 749 186 649 186 541 c 0
 187 447 195 362 209 287 c 0
 224 211 243 148 266 100 c 0
 289 52 317 13 350 -20 c 0
 381 -53 415 -76 449 -90 c 0
 483 -104 518 -111 555 -111 c 0
 590 -111 624 -107 655 -100 c 0
 686 -93 713 -85 733 -74 c 0
 755 -63 776 -49 795 -31 c 0
 813 -15 827 1 838 16 c 0
 848 31 858 50 872 72 c 0
 877 82 883 89 887 94 c 0
 891 98 895 104 899 111 c 0
 904 118 908 122 911 125 c 2
 924 131 l 2
 929 135 936 135 946 131 c 0
 961 126 972 116 977 104 c 0
 980 99 981 93 981 88 c 0
 981 70 976 47 965 18 c 0xdf80
EndSplineSet
Validated: 1
EndChar

StartChar: A
Encoding: 65 65 33
Width: 1114
GlyphClass: 2
Flags: HW
HStem: 555 104<386 774>
VStem: 51 147<38 246>
LayerCount: 2
Fore
SplineSet
631 1243 m 2
 575 1150 495 955 391 657 c 2
 381 627 l 1
 410 631 l 2
 538 647 652 656 752 659 c 2
 774 659 l 1
 655 1284 l 1
 631 1243 l 2
901 111 m 0
 885 153 850 301 797 555 c 0
 793 569 787 569 782 555 c 1
 620 547 471 531 334 508 c 1
 289 388 244 255 199 109 c 0
 188 72 172 48 152 37 c 0
 141 32 131 29 121 29 c 0
 111 29 102 31 92 35 c 0
 65 46 51 71 51 109 c 0
 51 125 54 144 59 166 c 0
 69 214 110 325 182 500 c 1
 177 516 172 519 168 508 c 1
 150 520 141 535 141 551 c 2
 141 553 l 2
 140 565 146 578 160 590 c 0
 178 605 199 617 225 625 c 1
 228 639 230 639 233 627 c 1
 394 1023 517 1285 600 1415 c 0
 618 1441 632 1459 644 1469 c 0
 656 1479 668 1485 682 1485 c 2
 684 1485 l 1
 696 1485 l 2
 711 1485 725 1481 739 1473 c 0
 753 1465 762 1448 766 1423 c 0
 793 1254 840 1013 907 702 c 0
 974 389 1022 210 1049 162 c 0
 1060 143 1065 126 1065 111 c 0
 1064 110 1063 107 1063 104 c 0
 1062 86 1057 72 1048 60 c 0
 1039 48 1028 40 1016 35 c 0
 1006 31 997 29 987 29 c 0
 976 29 965 32 954 37 c 0
 932 48 915 73 901 111 c 0
EndSplineSet
Validated: 1
EndChar

StartChar: B
Encoding: 66 66 34
Width: 1114
GlyphClass: 2
Flags: HW
HStem: -42 163<326 353 392 446> 629 106<262 647> 1311 102<271 651>
VStem: 100 159<127 247 377 627 741 1280> 109 170<117 616> 786 147<867 1186> 856 164<300 492>
LayerCount: 2
Fore
SplineSet
758 532 m 0xea
 729 551 690 570 640 587 c 0
 590 604 533 618 469 629 c 1
 467 629 l 2
 374 629 306 628 262 627 c 1
 269 394 275 223 279 117 c 1
 306 120 336 121 369 121 c 0
 402 122 426 123 442 123 c 0
 501 126 556 137 609 156 c 0
 662 175 705 198 739 227 c 0
 773 254 801 284 823 316 c 0
 845 348 856 379 856 408 c 0
 856 450 824 491 758 532 c 0xea
285 1284 m 2
 270 1280 l 1
 270 1245 269 1198 266 1141 c 0
 262 1032 260 925 260 820 c 0
 260 794 260 767 260 741 c 1
 334 737 398 735 451 735 c 0
 491 735 526 738 558 746 c 0
 590 754 618 763 641 775 c 0
 664 787 684 801 702 818 c 0
 720 835 733 852 743 870 c 0
 753 888 761 908 768 928 c 0
 775 948 779 967 782 985 c 0
 785 1003 786 1020 786 1038 c 0xf4
 785 1076 778 1112 764 1145 c 0
 750 1178 733 1204 711 1224 c 0
 689 1244 665 1260 639 1274 c 0
 593 1299 544 1311 492 1311 c 0
 422 1311 353 1302 285 1284 c 2
982 266 m 0
 957 218 919 174 871 132 c 0
 823 90 763 56 692 27 c 0
 622 -2 546 -21 461 -29 c 1
 420 -42 l 0
 410 -42 401 -40 391 -35 c 1
 353 -48 l 0
 344 -48 335 -46 326 -41 c 1
 285 -45 252 -47 229 -47 c 0
 214 -47 200 -46 186 -43 c 2
 178 -43 l 2
 156 -44 139 -38 125 -23 c 0
 114 -11 109 7 109 29 c 2
 109 39 l 2xea
 112 81 113 152 113 252 c 0
 113 438 108 643 100 868 c 0
 97 959 96 1021 96 1052 c 0
 96 1083 97 1125 100 1178 c 0
 103 1231 104 1268 104 1288 c 0
 105 1319 114 1343 130 1358 c 0
 146 1373 164 1380 186 1380 c 2
 195 1380 l 1
 197 1380 l 2
 220 1387 243 1393 266 1397 c 0
 311 1405 352 1410 389 1411 c 0
 409 1412 425 1413 436 1413 c 2
 475 1413 l 1
 496 1413 l 2
 578 1413 650 1397 713 1364 c 0
 779 1331 831 1284 872 1222 c 0
 913 1160 934 1085 934 999 c 0xf4
 934 927 917 865 883 813 c 0
 849 761 802 723 743 698 c 1
 727 678 711 671 696 678 c 1
 712 658 728 651 743 659 c 1
 785 644 828 623 871 595 c 0
 914 567 950 536 978 502 c 0
 1006 468 1020 438 1020 412 c 2
 1020 408 l 2xe2
 1020 362 1007 314 982 266 c 0
EndSplineSet
Validated: 1
EndChar

StartChar: C
Encoding: 67 67 35
Width: 1114
GlyphClass: 2
Flags: HW
HStem: -63 147<393 728> 1331 129<602 840>
VStem: 70 166<279 768> 874 170<1112 1294>
LayerCount: 2
Fore
SplineSet
1018 1134 m 0
 1000 1109 983 1095 967 1092 c 2
 954 1092 l 2
 938 1092 921 1097 903 1108 c 0
 884 1122 874 1139 874 1161 c 0
 874 1172 876 1205 879 1260 c 1
 848 1282 828 1294 823 1298 c 0
 818 1302 810 1308 799 1313 c 0
 779 1325 757 1331 735 1331 c 0
 693 1331 648 1316 601 1286 c 0
 554 1256 509 1214 467 1161 c 0
 425 1108 386 1047 352 979 c 0
 318 909 290 831 268 745 c 0
 246 659 236 572 236 485 c 0
 236 419 247 357 272 296 c 0
 297 235 331 184 375 143 c 0
 417 103 464 84 516 84 c 0
 558 84 599 88 639 98 c 0
 679 108 714 120 746 136 c 0
 778 152 806 167 831 182 c 0
 854 197 877 213 899 231 c 0
 915 242 929 251 941 256 c 0
 953 261 965 264 977 264 c 0
 988 264 998 261 1008 254 c 0
 1026 240 1034 225 1034 207 c 0
 1034 185 1021 159 995 129 c 0
 884 1 723 -63 510 -63 c 2
 494 -63 l 2
 445 -63 398 -55 354 -37 c 0
 309 -18 270 8 236 39 c 0
 202 70 171 106 146 147 c 0
 121 188 102 233 89 279 c 0
 76 325 70 372 70 418 c 0
 70 518 80 615 100 710 c 0
 120 805 148 890 182 965 c 0
 216 1040 257 1108 303 1171 c 0
 345 1235 390 1288 437 1330 c 0
 484 1372 533 1403 581 1426 c 0
 629 1449 676 1460 721 1460 c 0
 766 1460 808 1455 848 1444 c 1
 853 1455 859 1453 866 1438 c 1
 869 1458 871 1465 872 1458 c 1
 876 1474 885 1488 897 1499 c 0
 909 1509 923 1515 938 1516 c 0
 945 1517 949 1518 950 1518 c 0
 964 1518 978 1513 993 1503 c 0
 1011 1492 1023 1475 1028 1452 c 0
 1039 1400 1044 1345 1044 1286 c 2
 1044 1210 l 2
 1044 1184 1036 1159 1018 1134 c 0
EndSplineSet
Validated: 1
EndChar

StartChar: D
Encoding: 68 68 36
Width: 1114
GlyphClass: 2
Flags: HW
HStem: -63 156<319 737> 1382 41G<142 175>
VStem: 66 159<169 309 478 1319> 893 158<301 787>
LayerCount: 2
Fore
SplineSet
588 1128 m 0
 518 1176 418 1226 287 1278 c 1
 285 1280 l 1
 283 1280 l 1
 281 1282 l 1
 279 1282 l 1
 276 1282 l 1
 276 1284 l 1
 274 1284 l 1
 272 1284 l 1
 270 1284 l 1
 270 1286 l 1
 268 1286 l 1
 266 1286 l 1
 264 1286 l 1
 264 1288 l 1
 262 1288 l 1
 260 1288 l 1
 258 1290 l 1
 256 1290 l 1
 229 1319 l 1
 227 1272 l 2
 225 1195 225 1118 225 1043 c 0
 225 943 226 846 229 750 c 0
 232 665 235 563 238 445 c 0
 241 327 243 234 246 166 c 1
 258 162 l 2
 314 136 371 118 428 108 c 0
 485 98 551 92 625 92 c 0
 665 92 701 106 735 134 c 0
 769 162 797 198 819 240 c 0
 842 282 860 328 873 378 c 0
 892 452 893 507 893 530 c 0
 893 791 791 990 588 1128 c 0
1032 312 m 0
 1020 264 1001 217 975 172 c 0
 949 127 919 87 885 52 c 0
 851 17 811 -11 766 -33 c 0
 722 -53 676 -63 627 -63 c 2
 608 -63 l 2
 552 -63 496 -60 439 -55 c 0
 382 -50 336 -43 301 -35 c 0
 264 -25 231 -17 202 -10 c 0
 173 -3 154 0 147 0 c 0
 125 0 108 6 94 20 c 0
 82 32 76 50 76 72 c 2
 76 84 l 2
 80 133 82 209 82 313 c 0
 81 499 76 720 68 977 c 0
 67 1053 66 1103 66 1127 c 0
 66 1151 67 1188 69 1239 c 0
 71 1290 72 1320 72 1331 c 0
 73 1362 81 1386 96 1401 c 0
 111 1416 131 1423 154 1423 c 0
 198 1423 254 1417 322 1403 c 0
 362 1395 401 1383 442 1369 c 0
 483 1355 527 1335 575 1310 c 0
 623 1285 669 1255 711 1221 c 0
 753 1187 795 1145 836 1096 c 0
 880 1047 917 992 948 933 c 0
 979 874 1005 803 1023 720 c 0
 1041 637 1051 549 1051 453 c 0
 1051 408 1044 360 1032 312 c 0
EndSplineSet
Validated: 1
EndChar

StartChar: E
Encoding: 69 69 37
Width: 1114
GlyphClass: 2
Flags: HW
HStem: -41 139<278 701> -12 145<475 1007> 639 135<252 723> 680 127<464 981> 1260 131<281 999>
VStem: 94 156<110 637 774 1231>
LayerCount: 2
Fore
SplineSet
944 -12 m 2x4c
 918 -12 l 2x4c
 887 -12 835 -14 764 -18 c 0
 558 -33 415 -41 336 -41 c 0
 294 -41 258 -40 229 -37 c 0
 202 -36 174 -22 146 4 c 0
 118 30 102 61 98 98 c 0
 94 131 92 187 92 266 c 0
 92 345 93 431 94 524 c 2
 94 703 l 2
 94 758 93 836 90 934 c 0
 89 1016 88 1070 88 1096 c 0
 88 1122 89 1160 91 1211 c 0
 93 1262 94 1295 94 1309 c 0
 95 1340 104 1363 120 1379 c 0
 136 1395 154 1403 176 1403 c 1
 177 1389 179 1389 182 1403 c 1
 208 1402 228 1392 242 1374 c 0
 245 1359 247 1356 250 1366 c 1
 254 1354 258 1354 262 1368 c 1
 366 1383 496 1391 653 1391 c 0
 697 1391 736 1390 770 1389 c 0
 849 1385 912 1379 958 1374 c 0
 987 1371 1006 1366 1015 1357 c 0
 1024 1348 1028 1335 1028 1319 c 0
 1028 1284 1018 1261 999 1253 c 0
 991 1249 984 1247 978 1248 c 0
 972 1249 967 1249 963 1249 c 0
 867 1256 774 1260 684 1260 c 0
 653 1260 621 1258 590 1257 c 0
 471 1254 366 1247 276 1233 c 1
 271 1219 265 1219 260 1231 c 1
 253 1077 250 932 250 795 c 0
 250 775 250 774 250 774 c 1xac
 359 775 493 781 651 791 c 0
 815 802 908 807 928 807 c 0
 954 807 971 802 981 792 c 0
 991 782 995 768 995 750 c 0
 995 727 991 709 983 698 c 0
 972 686 954 680 929 680 c 0x1c
 904 680 803 673 627 659 c 0
 455 645 336 639 270 639 c 1
 265 624 259 623 252 637 c 1
 252 582 253 508 254 412 c 0
 254 353 255 305 256 268 c 0
 259 190 264 141 272 119 c 0
 273 103 275 100 276 111 c 1
 280 97 284 97 287 109 c 1
 309 102 352 98 416 98 c 0xac
 462 98 520 99 590 102 c 0
 757 110 866 119 918 129 c 0
 936 132 950 133 962 133 c 0x4c
 974 133 983 131 991 127 c 0
 999 123 1006 119 1010 115 c 0
 1014 111 1017 105 1020 98 c 0x8c
 1023 91 1025 86 1026 81 c 0
 1027 76 1028 71 1028 64 c 0
 1029 42 1023 22 1008 6 c 0
 997 -8 979 -14 956 -14 c 0
 952 -13 948 -12 944 -12 c 2x4c
EndSplineSet
Validated: 1
EndChar

StartChar: F
Encoding: 70 70 38
Width: 1114
GlyphClass: 2
Flags: HW
HStem: 635 127<483 940> 662 133<275 927> 1268 139<268 1009> 1382 41G<165 199>
VStem: 90 159<414 645 783 1254> 98 172<-22 544>
LayerCount: 2
Fore
SplineSet
961 1397 m 0x28
 988 1394 1006 1388 1014 1379 c 0
 1022 1370 1027 1357 1028 1339 c 0
 1028 1320 1022 1303 1010 1288 c 0
 1000 1274 982 1268 956 1268 c 2
 954 1268 l 2
 879 1272 803 1274 727 1274 c 0
 586 1274 431 1266 260 1251 c 1
 259 1217 257 1174 256 1122 c 0
 252 1029 249 938 249 849 c 0
 249 827 250 804 250 782 c 0
 258 770 265 770 272 784 c 1
 328 791 389 795 453 795 c 2
 498 795 l 2x68
 580 792 653 787 719 782 c 0
 786 775 841 769 883 762 c 0
 913 757 932 749 940 741 c 0
 948 733 953 721 954 705 c 0
 954 685 950 666 940 651 c 0
 935 640 921 635 899 635 c 2
 889 635 l 2x88
 847 642 789 648 715 653 c 0
 645 658 566 662 479 662 c 0
 396 661 325 655 268 647 c 1
 263 633 257 633 252 645 c 1
 257 427 263 222 270 31 c 0
 267 8 257 -11 239 -25 c 0
 221 -39 199 -45 176 -45 c 1
 175 -57 173 -57 170 -43 c 1
 148 -44 131 -38 117 -23 c 0
 105 -11 98 7 98 29 c 2
 98 39 l 2x44
 102 84 104 159 104 264 c 0
 103 458 98 673 90 911 c 0
 87 1002 86 1065 86 1096 c 0
 86 1127 87 1169 90 1222 c 0
 93 1275 94 1311 94 1331 c 0
 95 1362 104 1386 119 1401 c 0
 134 1416 153 1423 176 1423 c 1
 180 1409 183 1409 186 1423 c 1x58
 212 1423 232 1415 246 1397 c 1
 247 1379 249 1375 252 1386 c 1
 416 1400 570 1407 713 1407 c 0
 809 1407 891 1404 961 1397 c 0x28
EndSplineSet
Validated: 1
EndChar

StartChar: G
Encoding: 71 71 39
Width: 1114
GlyphClass: 2
Flags: HW
HStem: -63 147<389 628> 509 153<398 568> 586 132<517 886> 1354 129<600 861>
VStem: 68 164<279 782>
LayerCount: 2
Fore
SplineSet
895 1444 m 0xb8
 963 1418 1006 1395 1024 1376 c 0
 1040 1360 1049 1341 1049 1319 c 0
 1050 1307 1047 1293 1042 1278 c 0
 1039 1266 1031 1256 1016 1251 c 0
 1006 1248 998 1247 992 1247 c 0
 986 1247 978 1248 967 1251 c 0
 959 1254 939 1264 910 1282 c 0
 881 1300 850 1316 817 1331 c 0
 786 1346 757 1354 731 1354 c 0
 689 1354 644 1339 597 1308 c 0
 550 1277 506 1234 464 1179 c 0
 422 1124 384 1061 350 991 c 0
 315 920 286 841 264 753 c 0
 242 665 231 575 231 485 c 0
 231 419 243 357 268 296 c 0
 293 235 327 184 371 143 c 0
 413 103 460 84 512 84 c 0
 546 84 580 96 614 119 c 0
 648 142 679 172 706 207 c 0
 733 242 757 282 780 324 c 0
 803 366 824 408 840 449 c 0
 856 490 869 527 879 561 c 0
 882 566 884 576 887 588 c 1
 877 585 868 585 858 586 c 0
 776 582 696 574 618 562 c 0
 540 550 486 535 455 516 c 0
 448 512 441 510 434 509 c 0
 427 508 421 511 414 516 c 0
 399 527 390 541 387 559 c 2
 387 575 l 2
 387 610 409 640 451 662 c 1xd8
 484 681 558 696 674 707 c 0
 760 714 835 717 899 717 c 0
 911 718 923 718 934 718 c 0
 945 718 955 718 965 717 c 0
 995 714 1014 708 1024 700 c 0
 1036 690 1042 673 1042 647 c 0
 1042 633 1040 622 1035 612 c 0
 1030 602 1022 596 1010 592 c 0
 1006 587 1001 585 997 586 c 1
 997 571 l 2
 997 567 996 557 994 539 c 0
 992 521 990 507 989 496 c 0
 986 467 979 434 965 396 c 0
 951 358 933 318 910 275 c 0
 887 232 860 191 829 150 c 0
 799 110 767 74 733 41 c 0
 699 8 662 -18 621 -37 c 0
 580 -55 538 -63 496 -63 c 2
 492 -63 l 1
 489 -63 l 2
 440 -63 394 -55 350 -37 c 0
 305 -18 265 8 231 39 c 0
 197 70 167 106 142 147 c 0
 117 188 98 233 86 279 c 0
 74 325 68 372 68 418 c 0
 68 520 77 620 97 717 c 0
 117 814 144 901 178 978 c 0
 212 1055 253 1126 299 1190 c 0
 341 1254 386 1308 433 1350 c 0
 480 1392 529 1425 578 1448 c 0
 627 1471 674 1483 719 1483 c 0
 768 1483 827 1470 895 1444 c 0xb8
EndSplineSet
Validated: 1
EndChar

StartChar: H
Encoding: 72 72 40
Width: 1114
GlyphClass: 2
Flags: HW
HStem: 639 135<287 689> 1382 41G<197 226 911 939>
VStem: 124 163<774 1126 1129 1176 1177 1400> 823 170<-22 296> 842 164<113 702 825 1400>
LayerCount: 2
Fore
SplineSet
282 598 m 0xe8
 281 588 281 582 281 578 c 0
 277 510 274 430 274 339 c 0
 274 248 277 146 281 31 c 0
 278 8 267 -11 248 -25 c 0
 229 -39 207 -45 184 -45 c 1
 183 -57 181 -57 178 -43 c 1
 158 -44 141 -38 127 -23 c 0
 115 -11 109 7 109 27 c 0
 110 31 111 35 111 39 c 0
 114 79 115 166 115 303 c 0
 115 374 116 439 117 496 c 2
 117 498 l 2
 117 543 118 608 120 695 c 0
 122 782 123 838 124 863 c 0
 125 888 125 914 125 939 c 0
 125 964 124 1006 123 1063 c 0
 122 1120 121 1159 121 1177 c 0
 121 1195 123 1246 127 1331 c 0
 128 1362 137 1386 152 1401 c 0
 167 1416 186 1423 209 1423 c 2
 215 1423 l 2
 237 1423 255 1417 270 1404 c 0
 285 1391 293 1368 293 1337 c 0
 293 1323 291 1294 288 1250 c 0
 285 1206 283 1165 283 1127 c 0
 283 1089 284 1035 285 962 c 0
 286 889 287 833 287 795 c 0
 287 775 287 774 287 774 c 2
 292 760 298 760 305 774 c 1
 414 777 545 790 698 813 c 0
 757 821 805 826 840 829 c 1
 840 848 l 2
 840 858 839 872 838 891 c 0
 837 910 836 924 836 934 c 0
 835 1019 834 1074 834 1101 c 0
 834 1128 835 1170 838 1227 c 0
 841 1284 842 1319 842 1331 c 0
 842 1362 849 1386 865 1401 c 0
 881 1416 900 1423 922 1423 c 2
 928 1423 l 2
 951 1423 970 1417 985 1404 c 0
 1000 1391 1008 1368 1008 1337 c 0
 1008 1311 1007 1259 1005 1179 c 0
 1003 1099 1001 1028 1001 967 c 0
 1001 906 1003 817 1004 702 c 0
 1005 671 1006 626 1006 569 c 0xe8
 1006 512 1003 423 999 302 c 0
 995 181 993 96 993 47 c 2
 993 35 l 1
 993 31 l 2
 993 9 983 -10 961 -25 c 0
 943 -39 922 -45 899 -45 c 1
 898 -57 896 -57 893 -43 c 1
 871 -44 854 -38 840 -23 c 0
 829 -11 823 7 823 29 c 2
 823 39 l 1xf0
 835 212 842 404 842 616 c 2
 842 702 l 1
 834 688 826 688 819 700 c 1
 796 699 718 688 586 668 c 0
 455 649 360 639 301 639 c 2
 283 639 l 1
 283 619 283 618 283 618 c 2
 283 614 283 608 282 598 c 0xe8
EndSplineSet
Validated: 1
EndChar

StartChar: I
Encoding: 73 73 41
Width: 1114
GlyphClass: 2
Flags: HW
HStem: -13 120<173 473 629 1016> 1253 141<649 968 969 1005> 1278 131<120 489 641 960>
VStem: 473 156<106 602> 487 154<120 1276>
LayerCount: 2
Fore
SplineSet
481 1106 m 2xc8
 481 1120 482 1147 485 1188 c 0
 488 1229 489 1253 489 1260 c 2
 489 1278 l 1
 419 1279 361 1280 315 1280 c 0
 264 1280 230 1280 211 1279 c 0
 192 1278 181 1278 180 1278 c 0
 153 1278 133 1283 120 1295 c 0
 107 1307 100 1321 100 1339 c 2
 100 1346 l 2
 100 1362 107 1377 119 1390 c 0
 131 1403 152 1409 182 1409 c 0xa8
 295 1413 397 1415 487 1415 c 0
 667 1415 822 1409 952 1395 c 0
 975 1392 994 1386 1006 1378 c 0
 1020 1368 1027 1353 1028 1331 c 0
 1028 1311 1022 1292 1010 1274 c 0
 1005 1266 997 1259 987 1255 c 0
 980 1252 974 1251 969 1251 c 0
 964 1251 957 1252 952 1253 c 0
 910 1260 806 1268 641 1276 c 1
 641 1256 641 1255 641 1255 c 2
 641 1244 640 1209 639 1148 c 0
 638 1087 637 1033 637 987 c 2
 637 893 l 2
 637 851 638 807 639 763 c 0
 640 719 641 668 641 611 c 0xc8
 641 554 639 467 635 348 c 0
 631 229 629 156 629 127 c 0
 629 107 629 106 629 106 c 1
 647 106 l 2
 696 106 802 105 963 104 c 0
 990 104 1008 99 1017 89 c 0
 1026 79 1031 65 1032 47 c 0
 1032 36 1031 26 1029 18 c 0
 1027 10 1023 2 1018 -6 c 0
 1015 -13 1011 -17 1004 -19 c 0
 997 -21 990 -23 984 -24 c 0
 978 -25 972 -24 967 -23 c 0
 930 -18 872 -14 791 -14 c 0
 781 -14 758 -14 721 -13 c 0
 714 -13 705 -13 697 -13 c 0
 663 -13 621 -14 571 -16 c 1
 436 -31 l 0
 406 -31 376 -29 346 -25 c 1
 261 -28 203 -29 171 -29 c 0
 139 -29 116 -23 103 -13 c 0
 90 -3 84 11 84 27 c 2
 84 31 l 2
 84 47 90 62 102 75 c 0
 114 88 136 95 166 96 c 0
 223 97 326 100 473 104 c 1xd0
 483 273 487 442 487 610 c 0
 487 638 488 666 488 695 c 0
 488 752 487 810 485 868 c 0
 482 928 481 993 481 1063 c 2
 481 1106 l 2xc8
EndSplineSet
Validated: 1
EndChar

StartChar: J
Encoding: 74 74 42
Width: 1114
GlyphClass: 2
Flags: HW
HStem: -72 168<363 557> 1282 133<130 596 723 970>
VStem: 80 143<249 452> 600 131<138 1249>
LayerCount: 2
Fore
SplineSet
362 1282 m 0
 298 1282 254 1281 229 1280 c 0
 204 1279 191 1278 190 1278 c 0
 163 1278 143 1283 129 1295 c 0
 115 1307 109 1321 109 1339 c 2
 109 1346 l 2
 109 1362 115 1377 128 1390 c 0
 141 1403 163 1409 193 1409 c 0
 305 1413 406 1415 496 1415 c 0
 676 1415 831 1409 961 1395 c 0
 984 1394 1002 1388 1014 1378 c 0
 1028 1368 1035 1353 1036 1331 c 0
 1036 1311 1030 1292 1018 1274 c 0
 1013 1266 1005 1259 995 1255 c 0
 990 1252 984 1251 978 1251 c 0
 972 1251 966 1252 961 1253 c 0
 920 1260 840 1267 723 1272 c 1
 723 1252 723 1251 723 1251 c 2
 723 1211 724 1152 727 1071 c 0
 728 985 730 912 733 852 c 0
 736 795 737 725 737 642 c 0
 737 559 735 486 731 422 c 0
 721 299 707 201 687 127 c 0
 667 53 644 1 618 -28 c 0
 592 -57 561 -72 526 -72 c 0
 486 -72 448 -64 408 -48 c 0
 368 -32 333 -12 303 14 c 0
 272 40 242 69 214 100 c 0
 186 131 162 163 144 194 c 0
 126 225 111 251 100 276 c 0
 89 301 83 321 82 336 c 0
 81 343 80 350 80 358 c 0
 80 374 83 394 88 414 c 0
 91 428 98 438 108 447 c 0
 118 456 131 462 147 465 c 2
 164 465 l 2
 180 466 193 463 203 453 c 0
 217 439 223 421 223 401 c 0
 223 361 235 316 260 264 c 0
 274 235 291 209 313 184 c 0
 332 159 359 139 392 122 c 0
 425 105 463 96 504 96 c 0
 534 96 556 124 571 180 c 0
 586 240 596 337 600 471 c 2
 600 520 l 2
 600 547 599 635 597 782 c 0
 596 870 595 965 595 1066 c 0
 595 1133 595 1203 596 1276 c 1
 502 1280 423 1282 362 1282 c 0
EndSplineSet
Validated: 1
EndChar

StartChar: K
Encoding: 75 75 43
Width: 1114
GlyphClass: 2
Flags: HW
HStem: -43 43G<939 950> 1421 43G<169 186 887 898>
VStem: 94 162<182 278 433 678 821 1435> 102 170<-16 515>
LayerCount: 2
Fore
SplineSet
90 1109 m 0xe0
 90 1140 91 1184 94 1243 c 0
 97 1300 98 1337 98 1352 c 0
 99 1390 108 1418 123 1436 c 0
 138 1454 157 1462 180 1462 c 2
 186 1462 l 2
 208 1463 227 1456 242 1440 c 0
 257 1425 264 1398 264 1358 c 0
 264 1327 263 1256 260 1145 c 0
 257 1034 255 926 254 821 c 1
 324 895 405 983 496 1085 c 0
 679 1280 786 1392 819 1421 c 0
 835 1440 851 1453 866 1458 c 0
 876 1462 884 1464 891 1464 c 0
 905 1464 918 1456 930 1440 c 0
 941 1422 946 1403 946 1384 c 0
 946 1366 934 1346 909 1323 c 0
 889 1298 819 1224 700 1100 c 0
 587 970 482 851 385 745 c 1
 397 731 l 2
 441 683 514 607 616 502 c 0
 822 292 946 163 987 115 c 0
 1005 95 1016 81 1020 74 c 0
 1024 67 1026 60 1026 53 c 0
 1026 41 1025 30 1022 20 c 0
 1015 0 1005 -16 991 -27 c 0
 977 -38 964 -43 952 -43 c 0
 951 -43 951 -43 950 -43 c 0
 929 -43 907 -26 883 8 c 0
 868 27 819 75 737 150 c 0
 661 226 578 310 489 401 c 0
 400 499 335 578 291 635 c 2
 256 678 l 1
 256 582 l 1xe0
 272 49 l 2
 271 19 261 -4 242 -20 c 0
 223 -36 201 -45 178 -45 c 1
 177 -57 175 -57 172 -43 c 1
 150 -44 133 -35 119 -16 c 0
 108 0 102 22 102 49 c 2
 102 57 l 2xd0
 106 102 109 178 109 283 c 0
 108 478 102 694 94 932 c 0
 91 1019 90 1078 90 1109 c 0xe0
EndSplineSet
Validated: 1
EndChar

StartChar: L
Encoding: 76 76 44
Width: 1114
GlyphClass: 2
Flags: HW
HStem: -31 137<262 787>
VStem: 152 147<224 1276>
LayerCount: 2
Fore
SplineSet
1005 148 m 0
 1011 139 1016 130 1020 120 c 0
 1024 110 1026 100 1026 90 c 0
 1026 70 1022 54 1013 44 c 0
 1004 34 984 25 954 20 c 0
 863 2 730 -10 555 -18 c 0
 379 -26 247 -31 160 -31 c 0
 140 -32 123 -25 109 -10 c 0
 97 2 90 19 90 41 c 0
 90 45 90 51 91 59 c 0
 92 67 100 144 115 287 c 0
 130 433 140 574 147 709 c 0
 150 746 152 795 152 857 c 0
 152 919 152 966 151 998 c 0
 150 1030 148 1136 145 1313 c 0
 146 1346 155 1369 171 1384 c 0
 187 1399 205 1407 227 1407 c 2
 233 1407 l 2
 255 1407 274 1400 289 1386 c 0
 304 1372 311 1351 311 1321 c 0
 311 1308 312 1294 312 1278 c 0
 312 1246 311 1207 309 1161 c 0
 305 1060 302 973 299 901 c 0
 295 797 292 707 289 631 c 0
 288 575 282 492 274 383 c 0
 266 274 262 188 262 127 c 0
 262 107 262 106 262 106 c 1
 311 106 l 2
 412 107 530 115 664 129 c 0
 803 143 898 156 950 168 c 0
 955 169 961 170 966 170 c 0
 971 170 976 169 981 168 c 0
 991 164 999 157 1005 148 c 0
EndSplineSet
Validated: 1
EndChar

StartChar: M
Encoding: 77 77 45
Width: 1114
GlyphClass: 2
Flags: HW
HStem: -20 43G<85 115 993 1004> 1401 41G<291 321 817 880>
VStem: 45 139<11 94 94 642> 467 176<-9 109>
LayerCount: 2
Fore
SplineSet
162 10 m 0
 146 -10 126 -20 104 -20 c 0
 64 -19 45 28 45 119 c 0
 45 135 47 164 50 204 c 0
 53 244 59 296 66 362 c 0
 73 428 78 486 82 535 c 0
 94 702 102 807 106 852 c 0
 111 911 119 983 127 1069 c 0
 143 1236 160 1336 178 1370 c 0
 192 1395 211 1413 236 1425 c 0
 259 1436 281 1442 301 1442 c 2
 309 1442 l 2
 332 1442 352 1438 367 1430 c 0
 385 1419 396 1401 401 1378 c 0
 416 1318 434 1219 452 1081 c 0
 470 943 489 785 508 607 c 0
 527 429 541 311 549 254 c 0
 554 219 560 172 567 115 c 1
 571 171 575 217 578 254 c 0
 590 448 605 622 621 776 c 0
 633 889 649 1003 669 1116 c 0
 689 1229 706 1317 721 1378 c 0
 725 1394 735 1408 749 1419 c 0
 763 1430 778 1437 793 1440 c 0
 804 1441 813 1442 821 1442 c 2
 842 1442 l 1
 850 1442 l 1
 877 1442 l 2
 884 1442 892 1441 904 1438 c 0
 916 1435 925 1431 930 1426 c 0
 935 1421 941 1415 947 1405 c 0
 953 1395 958 1383 961 1368 c 0
 966 1326 982 1122 1009 755 c 0
 1036 388 1054 180 1065 131 c 0
 1069 109 1071 90 1071 72 c 0
 1071 31 1057 4 1028 -10 c 0
 1018 -14 1008 -16 998 -16 c 0
 988 -16 977 -13 965 -6 c 0
 945 5 927 30 915 68 c 0
 886 158 862 555 840 1260 c 0
 839 1294 837 1338 836 1391 c 1
 828 1339 819 1297 811 1264 c 0
 773 1066 748 885 737 723 c 0
 726 567 711 420 691 281 c 0
 671 142 655 57 643 27 c 0
 632 0 601 -14 549 -14 c 2
 541 -14 l 2
 522 -14 506 -11 492 -3 c 0
 478 5 470 15 467 29 c 0
 452 95 426 244 391 478 c 0
 356 712 323 938 293 1155 c 0
 286 1186 279 1228 274 1280 c 1
 270 1228 266 1186 262 1155 c 0
 252 1035 245 937 240 862 c 0
 236 792 231 733 227 684 c 0
 223 616 219 557 215 506 c 0
 211 449 206 389 201 328 c 0
 197 269 192 220 188 182 c 0
 185 153 184 131 184 115 c 0
 185 99 186 94 186 94 c 2
 186 59 178 30 162 10 c 0
EndSplineSet
Validated: 1
EndChar

StartChar: N
Encoding: 78 78 46
Width: 1114
GlyphClass: 2
Flags: HW
HStem: -25 43G<145 164> 1403 41G<193 209 930 947>
VStem: 94 129<5 370> 109 120<114 1292> 872 150<844 1427> 894 128<206 1309>
LayerCount: 2
Fore
SplineSet
940 1444 m 0xc8
 954 1444 965 1443 973 1440 c 0
 981 1436 987 1431 991 1427 c 0
 995 1423 998 1415 1001 1401 c 0
 1005 1393 1009 1384 1010 1374 c 0
 1011 1364 1013 1349 1016 1329 c 0
 1019 1310 1021 1202 1022 1004 c 2
 1022 918 l 2
 1022 746 1020 585 1016 436 c 0
 1012 286 1006 184 1001 129 c 0
 996 72 990 37 985 23 c 0
 974 -11 943 -29 891 -29 c 1
 887 -43 884 -43 881 -29 c 1
 863 -29 848 -24 836 -14 c 0
 824 -4 814 9 809 25 c 0
 799 47 768 107 715 207 c 2
 563 506 l 2
 511 606 457 718 401 842 c 0
 344 969 299 1076 268 1165 c 0
 252 1213 236 1256 221 1294 c 1
 224 1249 226 1202 229 1151 c 0
 236 1034 240 921 240 815 c 0
 240 788 239 735 238 659 c 0
 237 581 233 487 229 375 c 0xd8
 225 263 223 185 223 143 c 2
 223 127 l 2
 224 117 225 109 225 102 c 2
 225 90 l 2
 225 50 219 22 205 4 c 0
 191 -15 174 -25 154 -25 c 2
 150 -25 l 2
 140 -25 132 -21 125 -16 c 0
 118 -11 113 -2 109 12 c 0
 99 34 94 68 94 113 c 0xe0
 94 139 96 244 100 428 c 0
 104 614 108 775 109 913 c 0
 109 947 109 982 109 1016 c 0
 109 1117 107 1216 104 1311 c 2
 104 1325 l 2
 105 1345 110 1364 115 1380 c 0
 120 1398 128 1411 139 1421 c 0
 158 1436 180 1444 205 1444 c 0
 213 1444 220 1443 227 1442 c 2
 229 1442 l 2
 251 1442 270 1437 285 1427 c 0
 303 1416 315 1397 322 1368 c 0
 349 1278 423 1108 543 860 c 0
 662 613 765 414 852 262 c 0
 863 236 874 217 885 205 c 1
 886 225 888 251 889 281 c 0
 892 368 893 481 893 619 c 0
 894 653 894 688 894 726 c 0xd4
 894 764 894 803 893 844 c 0
 889 1091 882 1254 872 1333 c 1
 872 1346 l 2
 872 1372 878 1393 889 1411 c 0
 903 1433 920 1444 940 1444 c 0xc8
EndSplineSet
Validated: 1
EndChar

StartChar: O
Encoding: 79 79 47
Width: 1114
GlyphClass: 2
Flags: HW
HStem: -49 152<381 666> 1324 146<445 712>
VStem: 96 158<284 1021> 862 158<328 1141>
LayerCount: 2
Fore
SplineSet
772 246 m 0
 798 281 817 322 831 367 c 0
 836 385 843 426 849 492 c 0
 855 558 859 634 862 723 c 0
 863 749 864 775 864 801 c 0
 864 865 861 928 856 989 c 0
 848 1083 817 1163 764 1227 c 0
 715 1291 654 1323 582 1324 c 0
 581 1324 580 1324 579 1324 c 0
 508 1324 448 1295 399 1237 c 0
 351 1180 316 1101 293 1001 c 0
 267 895 254 774 254 637 c 0
 255 552 260 478 268 414 c 0
 272 376 281 337 293 299 c 0
 305 261 320 228 338 199 c 0
 354 170 376 147 403 129 c 0
 430 111 462 102 496 102 c 0
 568 102 633 122 690 162 c 0
 720 182 747 211 772 246 c 0
96 535 m 2
 96 598 97 647 98 685 c 0
 99 723 102 773 106 836 c 0
 114 958 137 1069 174 1171 c 0
 208 1258 266 1330 348 1386 c 0
 423 1442 508 1470 604 1470 c 0
 652 1470 697 1460 741 1440 c 0
 786 1420 828 1390 866 1351 c 0
 904 1312 937 1262 962 1201 c 0
 987 1140 1003 1071 1010 995 c 0
 1017 910 1020 824 1020 735 c 0
 1020 667 1018 595 1013 521 c 0
 1008 447 999 386 987 340 c 0
 969 276 948 220 923 174 c 0
 898 128 870 90 841 61 c 0
 812 32 777 10 739 -6 c 0
 704 -22 667 -34 629 -41 c 0
 591 -46 547 -49 496 -49 c 0
 424 -49 356 -24 295 25 c 0
 231 74 181 139 147 221 c 0
 113 303 96 391 96 487 c 2
 96 487 96 490 96 498 c 2
 96 535 l 2
EndSplineSet
Validated: 1
EndChar

StartChar: P
Encoding: 80 80 48
Width: 1114
GlyphClass: 2
Flags: HW
HStem: -39 43G<211 241> 471 147<299 689> 1311 107<298 716>
VStem: 135 154<3 171 229 498 653 1122> 150 168<-18 493> 852 150<791 1186>
LayerCount: 2
Fore
SplineSet
295 1292 m 1xf4
 289 1122 l 2
 285 983 282 856 282 739 c 0
 282 710 283 681 283 653 c 1
 297 649 l 2
 353 629 415 618 485 618 c 0
 522 618 556 622 587 628 c 0
 618 634 645 642 668 652 c 0
 691 662 711 676 729 692 c 0
 748 708 764 725 778 742 c 0
 792 759 803 779 813 801 c 0
 823 823 830 843 835 861 c 0
 840 879 843 901 846 924 c 0
 849 947 850 966 851 981 c 0
 852 996 852 1014 852 1034 c 0
 852 1075 844 1113 829 1146 c 0
 814 1179 795 1207 772 1227 c 0
 750 1246 726 1262 699 1275 c 0
 672 1288 648 1298 624 1303 c 0
 600 1308 576 1311 553 1311 c 0
 511 1311 425 1304 295 1292 c 1xf4
133 1282 m 1
 130 1272 127 1276 123 1292 c 0
 118 1302 115 1311 115 1319 c 0
 116 1320 117 1322 117 1325 c 0
 118 1339 123 1351 132 1361 c 0
 141 1371 150 1377 160 1380 c 0
 208 1391 279 1400 373 1407 c 0
 459 1414 519 1417 553 1417 c 0
 635 1417 708 1401 772 1370 c 0
 842 1339 897 1292 938 1229 c 0
 979 1166 1000 1090 1001 1001 c 0
 1001 927 990 859 966 794 c 0
 942 729 909 673 867 625 c 0
 825 577 776 539 719 512 c 0
 664 485 605 471 541 471 c 0
 445 471 368 478 311 492 c 1
 301 481 293 483 285 498 c 1
 290 389 298 267 309 135 c 0
 314 72 317 37 317 27 c 2
 317 25 l 2
 317 6 309 -9 293 -20 c 0
 274 -32 252 -39 229 -39 c 2
 223 -39 l 2
 198 -39 179 -32 164 -18 c 0
 153 -7 147 8 147 27 c 0
 147 31 147 41 148 58 c 0
 149 75 150 114 150 174 c 0
 150 188 150 205 150 225 c 0xec
 150 305 147 435 143 614 c 0
 139 761 137 862 137 915 c 0
 136 948 135 993 135 1048 c 0
 135 1103 136 1179 139 1276 c 1
 136 1265 134 1267 133 1282 c 1
EndSplineSet
Validated: 1
EndChar

StartChar: Q
Encoding: 81 81 49
Width: 1114
GlyphClass: 2
Flags: HW
HStem: -49 152<414 585> 1323 147<435 709>
VStem: 88 156<340 1023> 492 104<275 433> 862 152<288 1124>
LayerCount: 2
Fore
SplineSet
389 -23 m 0
 344 -4 303 23 266 56 c 0
 229 89 198 130 172 176 c 0
 121 266 93 374 88 500 c 2
 88 606 l 2
 88 611 88 617 88 622 c 0
 88 836 115 1016 168 1161 c 0
 199 1248 257 1321 340 1380 c 0
 418 1440 504 1470 598 1470 c 0
 696 1469 782 1432 856 1360 c 0
 893 1325 924 1275 950 1213 c 0
 976 1151 993 1080 1001 1001 c 0
 1009 922 1014 831 1014 729 c 0
 1014 552 1005 418 987 328 c 0
 958 183 895 79 795 18 c 0
 788 4 781 1 776 8 c 1
 811 -44 846 -91 877 -133 c 0
 907 -174 929 -204 943 -222 c 0
 957 -240 983 -274 1020 -322 c 0
 1025 -329 1028 -336 1028 -346 c 2
 1028 -354 l 2
 1025 -369 1021 -383 1013 -396 c 0
 1005 -409 997 -419 989 -424 c 0
 978 -431 966 -434 954 -434 c 0
 949 -434 943 -433 936 -432 c 0
 916 -425 897 -412 881 -393 c 0
 861 -370 827 -325 782 -258 c 0
 741 -191 698 -119 653 -41 c 1
 649 -55 645 -55 641 -43 c 1
 610 -47 575 -49 537 -49 c 0
 533 -49 530 -49 526 -49 c 0
 477 -49 431 -41 389 -23 c 0
571 428 m 0
 581 421 589 408 596 389 c 0
 618 321 650 247 694 166 c 2
 705 145 l 1
 721 158 l 2
 781 202 821 269 840 360 c 0
 844 379 849 421 854 485 c 0
 858 548 861 627 862 721 c 2
 862 754 l 2
 862 764 862 775 862 785 c 0
 862 857 858 925 850 991 c 0
 838 1091 807 1172 756 1233 c 0
 710 1293 649 1323 575 1323 c 0
 501 1323 440 1295 391 1239 c 0
 342 1183 306 1106 283 1006 c 0
 257 900 244 786 244 666 c 2
 244 657 l 2
 245 619 247 579 250 537 c 0
 255 454 271 379 296 316 c 0
 321 253 354 202 396 162 c 0
 438 122 485 102 537 102 c 2
 555 102 l 1
 586 102 l 1
 571 133 l 2
 541 193 521 239 509 271 c 0
 497 303 492 331 492 354 c 0
 492 383 501 406 520 422 c 0
 531 432 541 436 551 436 c 0
 558 436 564 433 571 428 c 0
EndSplineSet
Validated: 1
EndChar

StartChar: R
Encoding: 82 82 50
Width: 1114
GlyphClass: 2
Flags: HW
HStem: -39 43G<171 200 933 952> 575 140<422 485> 1382 41G<167 191>
VStem: 98 156<1021 1300> 106 172<-18 506> 116 122<49 510 510 541 717 1017> 118 144<724 1295> 848 147<808 1032>
LayerCount: 2
Fore
SplineSet
803 1032 m 0xe3
 773 1070 737 1104 696 1132 c 0
 655 1160 610 1185 559 1208 c 0
 463 1250 369 1280 276 1296 c 2
 254 1300 l 1xf1
 257 1184 259 1090 262 1018 c 0
 262 993 260 953 256 897 c 0
 255 879 250 820 240 719 c 1
 256 717 l 2
 274 714 296 712 322 712 c 0
 341 712 363 713 387 715 c 0
 547 722 656 736 715 758 c 0
 738 766 760 777 780 791 c 0
 825 820 848 859 848 911 c 0
 848 953 833 994 803 1032 c 0xe3
874 6 m 0
 852 35 821 71 780 115 c 0
 743 157 699 204 646 255 c 0
 593 306 534 357 467 408 c 0
 400 459 332 498 264 528 c 1
 254 518 246 523 236 541 c 1
 237 518 238 510 238 510 c 2xe5
 241 431 248 334 260 219 c 0
 272 104 279 40 279 25 c 0
 278 6 268 -9 252 -20 c 0
 233 -32 211 -39 188 -39 c 2
 182 -39 l 2
 159 -39 140 -32 125 -18 c 0
 113 -7 106 8 106 27 c 0xe9
 107 30 109 34 109 39 c 0
 113 110 115 171 116 222 c 0
 116 239 116 264 116 297 c 0xe5
 116 363 116 462 115 592 c 2
 115 626 l 2
 115 644 116 682 118 739 c 0xe3
 120 796 121 846 121 886 c 0
 121 926 120 967 119 1008 c 0
 118 1049 114 1109 108 1189 c 0
 102 1269 98 1316 98 1331 c 2
 98 1343 l 1
 98 1350 l 2xf1
 98 1366 106 1382 121 1397 c 0
 135 1415 154 1423 180 1423 c 0
 202 1423 219 1419 231 1409 c 1
 234 1395 237 1395 238 1407 c 1xe5
 349 1402 445 1387 529 1363 c 0
 613 1339 682 1310 737 1276 c 0
 794 1242 844 1203 884 1159 c 0
 924 1115 953 1072 970 1029 c 0
 987 986 995 943 995 899 c 0
 995 836 979 784 948 743 c 0
 933 724 914 707 889 691 c 0
 864 675 838 662 809 651 c 0
 782 640 750 631 715 622 c 0
 680 613 643 606 607 601 c 0
 571 596 530 592 485 588 c 1
 473 579 461 575 449 575 c 0
 440 575 431 577 422 582 c 1
 438 560 454 548 471 548 c 0
 473 548 475 549 477 549 c 1
 601 479 712 398 809 305 c 0
 913 211 981 132 1014 68 c 0
 1017 58 1018 49 1018 40 c 0
 1018 31 1017 22 1014 14 c 0
 1007 -1 997 -13 983 -23 c 0
 971 -33 958 -37 946 -37 c 0
 920 -37 896 -23 874 6 c 0
EndSplineSet
Validated: 1
EndChar

StartChar: S
Encoding: 83 83 51
Width: 1114
GlyphClass: 2
Flags: HW
HStem: -59 137<330 663> 1362 121<465 953>
VStem: 145 166<976 1226> 868 164<268 581>
LayerCount: 2
Fore
SplineSet
86 209 m 0
 90 227 101 240 119 248 c 0
 134 255 145 259 151 260 c 0
 157 261 162 262 166 262 c 2
 178 262 l 2
 186 262 195 258 204 250 c 0
 213 242 222 229 233 213 c 0
 260 172 297 140 342 115 c 0
 384 90 432 78 485 78 c 0
 516 78 550 82 585 92 c 0
 620 102 653 116 686 135 c 0
 719 154 748 178 774 205 c 0
 801 232 824 264 842 301 c 0
 860 338 868 377 868 418 c 0
 868 440 867 460 864 478 c 0
 861 496 856 517 847 538 c 0
 838 559 827 578 813 596 c 0
 799 614 781 631 758 649 c 0
 735 667 708 682 679 694 c 0
 650 706 613 718 570 729 c 0
 527 740 480 749 428 756 c 0
 386 761 346 774 311 793 c 0
 273 812 242 835 219 863 c 0
 196 891 178 921 165 952 c 0
 152 983 145 1014 145 1044 c 0
 145 1089 153 1134 168 1176 c 0
 183 1218 207 1257 238 1295 c 0
 269 1333 306 1366 350 1393 c 0
 391 1420 441 1442 499 1458 c 0
 557 1474 619 1483 686 1483 c 0
 691 1483 698 1483 704 1483 c 0
 735 1483 775 1481 825 1475 c 0
 888 1468 930 1460 952 1452 c 0
 974 1444 989 1431 997 1415 c 0
 1005 1401 1010 1388 1010 1374 c 0
 1010 1356 1005 1343 997 1335 c 0
 992 1328 985 1325 977 1324 c 0
 969 1323 961 1323 954 1323 c 0
 935 1323 917 1326 899 1333 c 0
 874 1340 855 1345 840 1348 c 0
 825 1351 801 1353 770 1356 c 0
 740 1360 707 1362 670 1362 c 0
 611 1362 555 1352 502 1333 c 0
 447 1313 402 1282 367 1241 c 0
 330 1200 311 1153 311 1100 c 0
 312 1039 337 987 385 946 c 0
 430 905 492 883 573 879 c 0
 643 875 704 863 756 844 c 0
 811 825 855 801 889 774 c 0
 923 747 951 715 974 678 c 0
 997 641 1012 604 1020 569 c 0
 1028 534 1032 496 1032 455 c 0
 1032 392 1021 334 1001 279 c 0
 981 224 952 176 916 136 c 0
 880 96 837 61 788 31 c 0
 744 1 696 -22 643 -37 c 0
 590 -52 535 -59 479 -59 c 0
 393 -59 316 -41 246 -4 c 0
 176 33 128 77 102 129 c 0
 90 155 84 177 84 195 c 0
 84 200 85 205 86 209 c 0
EndSplineSet
Validated: 1
EndChar

StartChar: T
Encoding: 84 84 52
Width: 1114
GlyphClass: 2
Flags: HW
HStem: 1253 141<653 1011> 1312 112<103 470>
VStem: 483 154<780 1266> 504 156<-4 544>
LayerCount: 2
Fore
SplineSet
162 1421 m 0x60
 238 1409 503 1400 958 1395 c 1
 984 1395 1003 1388 1014 1376 c 0
 1025 1364 1031 1349 1032 1331 c 0
 1032 1309 1026 1290 1012 1274 c 0
 1001 1260 985 1253 963 1253 c 2
 954 1253 l 1
 916 1250 878 1248 841 1248 c 0
 772 1248 704 1254 637 1266 c 1xa0
 638 974 645 568 659 49 c 0
 658 26 649 8 631 -6 c 0
 613 -20 593 -27 573 -27 c 1
 570 -41 568 -41 567 -27 c 1
 547 -27 530 -19 518 -4 c 0
 508 7 504 23 504 43 c 0x90
 504 47 504 55 505 66 c 0
 506 77 506 106 506 154 c 0
 506 252 503 427 495 678 c 0
 487 929 483 1108 483 1214 c 2
 483 1270 l 1
 301 1280 197 1286 170 1290 c 0
 143 1294 121 1302 106 1312 c 0
 91 1322 84 1336 84 1352 c 1
 83 1340 82 1341 82 1356 c 0
 82 1375 88 1392 102 1407 c 0
 112 1418 125 1423 143 1423 c 0
 148 1423 155 1422 162 1421 c 0x60
EndSplineSet
Validated: 1
EndChar

StartChar: U
Encoding: 85 85 53
Width: 1114
GlyphClass: 2
Flags: HW
HStem: -59 145<395 703> 1371 41G<150 162 956 972>
VStem: 74 151<312 1387> 891 152<319 1391>
LayerCount: 2
Fore
SplineSet
1034 512 m 0
 1033 452 1025 396 1011 344 c 0
 997 292 978 247 958 209 c 0
 938 171 914 136 886 105 c 0
 858 74 828 49 797 29 c 0
 768 9 738 -9 707 -22 c 0
 676 -35 644 -44 614 -50 c 0
 584 -56 553 -59 521 -59 c 0
 489 -59 455 -54 420 -44 c 0
 385 -34 347 -16 309 10 c 0
 268 36 232 69 201 108 c 0
 170 147 143 197 121 258 c 0
 99 319 87 390 84 469 c 0
 77 724 74 929 74 1084 c 0
 74 1181 75 1258 78 1315 c 1
 78 1346 86 1371 103 1388 c 0
 119 1404 139 1412 161 1412 c 0
 162 1412 163 1412 164 1412 c 0
 187 1411 203 1404 213 1389 c 0
 221 1375 225 1354 225 1327 c 0
 226 864 231 584 238 487 c 0
 241 441 245 402 252 371 c 0
 259 340 271 305 287 269 c 0
 303 233 322 202 344 176 c 0
 366 150 394 129 427 112 c 0
 460 95 499 86 541 86 c 0
 637 87 713 122 772 190 c 0
 835 258 871 362 881 500 c 0
 885 559 888 625 889 699 c 0
 890 773 891 829 891 866 c 0
 891 903 891 962 890 1043 c 0
 889 1124 889 1209 889 1298 c 0
 889 1354 896 1389 911 1401 c 0
 918 1406 925 1410 933 1412 c 0
 941 1414 951 1415 963 1415 c 0
 982 1415 998 1408 1012 1392 c 0
 1026 1376 1033 1352 1034 1321 c 1
 1039 1215 1042 1093 1042 958 c 0
 1042 823 1039 674 1034 512 c 0
EndSplineSet
Validated: 1
EndChar

StartChar: V
Encoding: 86 86 54
Width: 1114
GlyphClass: 2
Flags: HW
HStem: -25 43G<546 580> 1415 41G<116 126 981 991>
LayerCount: 2
Fore
SplineSet
1063 1352 m 2
 1063 1340 1059 1326 1051 1311 c 0
 1024 1248 953 1050 838 715 c 0
 733 393 666 172 639 55 c 0
 634 30 626 12 616 0 c 0
 605 -16 589 -25 569 -25 c 2
 557 -25 l 2
 535 -25 517 -20 502 -10 c 0
 484 2 471 22 463 49 c 0
 411 198 336 427 238 737 c 0
 136 1047 76 1236 61 1303 c 0
 56 1322 53 1340 53 1356 c 0
 53 1376 56 1393 61 1407 c 0
 66 1426 77 1440 92 1448 c 0
 102 1453 111 1456 121 1456 c 0
 131 1456 141 1453 152 1446 c 0
 172 1432 189 1404 201 1360 c 0
 202 1352 237 1238 305 1018 c 0
 368 793 421 605 465 455 c 0
 491 370 518 284 547 195 c 1
 607 385 680 626 766 918 c 2
 903 1360 l 2
 915 1404 932 1432 954 1444 c 0
 965 1452 976 1456 986 1456 c 0
 996 1456 1007 1453 1018 1448 c 0
 1029 1443 1039 1432 1047 1417 c 0
 1055 1403 1060 1386 1063 1364 c 2
 1063 1352 l 2
EndSplineSet
Validated: 1
EndChar

StartChar: W
Encoding: 87 87 55
Width: 1114
GlyphClass: 2
Flags: HW
HStem: -23 2<274 293> -20 2<196 255> 1417 45G<117 135 593 603 995 1028>
VStem: 47 147<867 1450> 928 141<831 1448>
LayerCount: 2
Fore
SplineSet
195 1352 m 0
 195 1259 217 971 262 489 c 0
 266 441 273 378 283 297 c 0
 293 206 301 116 311 27 c 1
 315 67 321 108 326 150 c 0
 329 162 350 348 391 707 c 0
 422 981 447 1170 463 1274 c 0
 474 1345 482 1389 489 1407 c 0
 500 1440 532 1456 584 1456 c 2
 586 1456 l 2
 589 1457 591 1458 594 1458 c 0
 613 1458 629 1454 641 1444 c 0
 655 1434 663 1421 666 1403 c 0
 681 1346 704 1168 735 870 c 0
 746 769 755 692 762 637 c 0
 770 555 789 419 819 231 c 0
 824 196 831 162 836 129 c 1
 840 163 844 198 848 233 c 0
 873 427 895 686 915 1010 c 0
 923 1148 928 1243 928 1296 c 2
 928 1333 l 2
 928 1336 928 1339 928 1342 c 0
 928 1377 935 1405 950 1425 c 0
 966 1448 986 1460 1006 1460 c 2
 1008 1460 l 2
 1049 1460 1069 1411 1069 1311 c 0
 1069 1241 1063 1135 1049 993 c 2
 1024 705 l 2
 1019 646 1009 559 997 444 c 0
 975 228 954 99 934 57 c 0
 922 28 903 8 877 -6 c 0
 855 -17 834 -23 815 -23 c 2
 803 -23 l 2
 780 -23 760 -18 745 -8 c 0
 727 6 716 26 709 53 c 0
 678 183 653 358 635 578 c 2
 608 891 l 2
 597 1043 589 1146 582 1202 c 0
 577 1250 570 1296 565 1341 c 1
 561 1295 557 1248 553 1200 c 0
 533 980 510 752 485 516 c 0
 460 277 440 123 422 53 c 0
 419 31 410 14 395 2 c 0
 379 -10 363 -17 348 -20 c 0
 337 -21 329 -23 321 -23 c 2
 301 -23 l 2
 291 -22 282 -21 274 -21 c 1
 280 -21 287 -22 293 -23 c 1
 266 -23 l 2
 265 -22 264 -21 263 -21 c 0
 261 -21 260 -20 258 -20 c 0
 206 -19 180 -18 180 -18 c 0
 180 -18 l 0
 181 -18 207 -19 258 -20 c 1
 254 -19 248 -17 240 -16 c 0
 228 -13 218 -9 213 -4 c 0
 208 0 202 8 195 20 c 0
 190 32 185 47 182 63 c 0
 181 67 174 111 160 193 c 0
 146 275 136 348 129 414 c 0
 114 572 87 867 49 1298 c 0
 48 1308 47 1317 47 1327 c 0
 47 1394 64 1436 98 1454 c 0
 106 1459 114 1462 121 1462 c 2
 129 1462 l 2
 141 1461 152 1457 162 1452 c 0
 172 1447 179 1435 186 1419 c 0
 193 1404 197 1387 197 1368 c 0
 196 1363 195 1357 195 1352 c 0
EndSplineSet
Validated: 5
EndChar

StartChar: X
Encoding: 88 88 56
Width: 1114
GlyphClass: 2
Flags: HW
HStem: -50 43G<142 145 982 985> 1405 41G<177 185 948 967>
LayerCount: 2
Fore
SplineSet
950 -37 m 0
 930 -30 909 -15 889 10 c 0
 864 37 834 82 797 143 c 0
 763 203 722 281 674 375 c 0
 628 473 588 551 557 610 c 1
 541 586 l 2
 499 520 437 409 356 252 c 0
 270 99 222 15 211 0 c 0
 196 -22 182 -36 168 -43 c 0
 160 -47 152 -49 147 -50 c 0
 146 -50 145 -50 144 -50 c 0
 140 -50 136 -49 133 -47 c 0
 121 -42 109 -32 98 -20 c 0
 82 -1 74 21 74 47 c 0
 74 59 81 80 96 109 c 0
 107 125 164 212 266 369 c 0
 363 531 433 654 477 737 c 1
 131 1288 l 2
 112 1314 102 1337 102 1356 c 1
 102 1358 102 1359 102 1361 c 0
 102 1383 110 1403 125 1419 c 0
 137 1431 150 1440 164 1444 c 0
 168 1445 173 1446 181 1446 c 0
 189 1446 199 1443 211 1438 c 0
 229 1430 246 1414 262 1391 c 0
 306 1334 412 1151 580 844 c 1
 737 1155 837 1340 879 1399 c 0
 893 1421 907 1436 922 1444 c 0
 933 1449 942 1452 952 1452 c 2
 961 1452 l 2
 973 1449 983 1444 993 1434 c 0
 1011 1416 1020 1393 1020 1364 c 0
 1020 1362 1020 1361 1020 1359 c 0
 1020 1344 1015 1330 1004 1315 c 0
 993 1299 941 1215 848 1065 c 0
 758 909 697 800 666 739 c 0
 665 738 663 736 662 734 c 0
 661 732 656 727 651 717 c 1
 686 654 745 546 827 393 c 0
 914 244 974 151 1004 111 c 0
 1020 91 1031 72 1036 57 c 0
 1040 47 1042 40 1042 35 c 0
 1042 20 1038 5 1028 -10 c 0
 1018 -25 1007 -36 995 -41 c 0
 992 -43 987 -44 982 -44 c 0
 981 -44 980 -44 978 -44 c 0
 970 -43 961 -41 950 -37 c 0
EndSplineSet
Validated: 1
EndChar

StartChar: Y
Encoding: 89 89 57
Width: 1114
GlyphClass: 2
Flags: HW
HStem: -80 43G<517 525> 1374 41G<144 155 965 973>
LayerCount: 2
Fore
SplineSet
150 1415 m 0
 161 1415 171 1413 182 1410 c 0
 193 1407 204 1397 215 1383 c 0
 226 1369 235 1350 242 1327 c 0
 250 1301 259 1274 271 1245 c 0
 283 1216 292 1194 300 1176 c 0
 308 1158 320 1133 336 1100 c 2
 367 1038 l 2
 371 1030 381 1010 398 979 c 0
 415 948 427 925 434 911 c 0
 478 830 516 752 547 674 c 0
 551 647 556 634 561 635 c 0
 568 634 575 646 580 672 c 0
 584 682 595 709 614 753 c 0
 633 797 665 867 709 963 c 0
 753 1059 785 1133 805 1186 c 0
 812 1205 824 1231 840 1262 c 0
 856 1295 869 1320 877 1339 c 0
 887 1362 895 1381 905 1393 c 0
 916 1405 927 1413 938 1418 c 0
 949 1423 960 1425 971 1425 c 0
 976 1425 985 1423 999 1419 c 0
 1007 1415 1015 1409 1023 1401 c 0
 1031 1393 1036 1383 1041 1373 c 0
 1046 1363 1049 1349 1049 1333 c 0
 1049 1317 1044 1298 1034 1276 c 0
 1027 1260 1014 1232 994 1193 c 0
 974 1154 959 1123 948 1098 c 0
 936 1068 910 1017 871 945 c 0
 832 873 802 814 782 768 c 0
 734 660 703 587 672 440 c 0
 659 379 664 192 631 -31 c 0
 628 -55 560 -71 541 -78 c 0
 534 -79 527 -80 522 -80 c 0
 512 -80 499 -76 481 -66 c 0
 470 -58 462 -48 457 -37 c 0
 452 -26 447 -13 446 2 c 0
 445 3 444 5 444 6 c 0
 445 18 458 30 459 47 c 0
 465 192 482 269 494 457 c 5
 468 513 434 604 392 681 c 0
 350 758 321 813 305 844 c 0
 289 875 262 921 227 981 c 0
 192 1041 162 1093 139 1136 c 0
 116 1179 96 1222 80 1264 c 0
 72 1287 68 1307 68 1325 c 2
 68 1335 l 2
 71 1355 75 1371 83 1381 c 0
 91 1391 101 1400 114 1406 c 0
 127 1412 139 1415 150 1415 c 0
EndSplineSet
Validated: 1
EndChar

StartChar: Z
Encoding: 90 90 58
Width: 1114
GlyphClass: 2
Flags: HW
HStem: 8 143<252 1013> 1280 150<129 445> 1286 121<216 796>
LayerCount: 2
Fore
SplineSet
338 1417 m 0xc0
 380 1410 416 1407 446 1407 c 0
 451 1407 456 1407 461 1407 c 0
 473 1406 486 1405 498 1405 c 0
 581 1405 690 1409 827 1419 c 0
 909 1424 951 1427 952 1427 c 0
 967 1427 981 1420 993 1405 c 0
 1007 1387 1015 1366 1016 1341 c 0
 1015 1334 1006 1322 991 1303 c 0
 976 1285 956 1262 931 1235 c 0
 906 1208 889 1185 879 1167 c 0
 838 1100 775 1004 692 877 c 0
 611 750 534 624 458 500 c 0
 382 376 319 265 268 168 c 2
 252 135 l 1
 287 137 l 2
 434 147 568 152 688 152 c 0
 801 152 887 147 944 139 c 0
 978 134 1002 126 1014 115 c 0
 1026 104 1032 90 1032 72 c 0
 1032 52 1026 35 1014 22 c 0
 1002 9 978 2 944 2 c 0
 934 2 860 4 721 8 c 0
 590 11 467 12 354 12 c 0
 305 12 239 11 154 8 c 2
 152 8 l 2
 136 8 121 19 107 39 c 0
 92 62 84 84 84 106 c 0
 84 118 89 140 101 170 c 0
 113 200 135 243 166 299 c 0
 210 377 306 531 453 760 c 0
 596 989 704 1156 776 1260 c 2
 799 1292 l 1
 709 1289 596 1287 461 1286 c 0xa0
 322 1283 228 1281 180 1280 c 2
 174 1280 l 2
 154 1280 139 1285 129 1296 c 0
 118 1310 113 1328 113 1348 c 2
 113 1352 l 2
 113 1370 122 1387 142 1404 c 0
 162 1421 186 1430 215 1430 c 0
 244 1430 285 1425 338 1417 c 0xc0
EndSplineSet
Validated: 1
EndChar

StartChar: bracketleft
Encoding: 91 91 59
Width: 1114
GlyphClass: 2
Flags: HW
HStem: -147 113<373 895> 1592 128<387 884>
VStem: 227 147<53 1567>
LayerCount: 2
Fore
SplineSet
231 1593 m 2
 231 1606 l 1
 231 1612 l 1
 227 1616 l 2
 223 1624 221 1634 221 1645 c 2
 221 1651 l 2
 221 1666 228 1680 242 1694 c 0
 256 1708 276 1714 305 1714 c 1
 402 1718 490 1720 569 1720 c 2
 631 1720 l 2
 703 1720 770 1721 831 1722 c 2
 834 1722 l 2
 859 1722 875 1717 885 1706 c 0
 897 1692 904 1676 905 1657 c 0
 904 1647 902 1638 899 1628 c 0
 896 1618 892 1610 887 1602 c 0
 882 1594 874 1587 866 1583 c 0
 858 1580 851 1579 846 1579 c 0
 839 1578 833 1578 829 1579 c 0
 776 1587 693 1591 580 1591 c 0
 563 1591 544 1592 524 1592 c 0
 484 1592 438 1591 387 1589 c 1
 387 1569 l 2
 387 1540 385 1450 381 1298 c 0
 376 1146 373 1021 373 920 c 0
 374 872 375 821 375 766 c 1
 376 726 377 666 377 588 c 0
 377 510 376 413 375 297 c 0
 374 171 373 89 373 51 c 2
 373 -39 l 1
 406 -40 433 -41 453 -41 c 0
 520 -41 599 -39 690 -35 c 0
 781 -31 832 -29 842 -29 c 0
 868 -29 885 -33 895 -43 c 0
 903 -54 908 -68 909 -86 c 0
 909 -96 908 -105 905 -115 c 0
 901 -137 893 -150 881 -154 c 0
 874 -155 867 -156 862 -156 c 0
 855 -157 849 -157 844 -156 c 0
 811 -151 768 -147 713 -147 c 2
 666 -147 l 2
 641 -147 609 -149 571 -152 c 0
 432 -159 340 -162 295 -162 c 0
 262 -162 239 -156 225 -145 c 0
 213 -135 207 -122 207 -106 c 0
 207 -96 209 -86 213 -72 c 2
 213 -68 l 1
 213 -49 l 2
 218 22 223 150 227 334 c 0
 229 426 230 518 230 610 c 0
 230 702 229 795 227 887 c 2
 227 889 l 2
 224 941 223 997 223 1057 c 0
 222 1086 222 1119 222 1153 c 0
 222 1187 222 1224 223 1264 c 0
 224 1343 226 1415 227 1481 c 0
 230 1548 231 1585 231 1593 c 2
EndSplineSet
Validated: 1
EndChar

StartChar: backslash
Encoding: 92 92 60
Width: 1114
GlyphClass: 2
Flags: HW
LayerCount: 2
Fore
SplineSet
952 -96 m 0
 922 -82 898 -59 879 -25 c 0
 865 -2 834 60 786 158 c 0
 738 259 703 331 680 373 c 0
 645 440 545 609 381 881 c 0
 217 1154 117 1325 82 1395 c 0
 71 1417 66 1436 66 1452 c 2
 70 1468 l 2
 74 1488 85 1503 104 1513 c 0
 120 1520 138 1524 154 1524 c 0
 166 1524 180 1519 195 1509 c 0
 210 1499 221 1486 231 1468 c 0
 329 1269 424 1091 514 934 c 0
 656 679 827 387 1028 59 c 0
 1043 34 1051 9 1051 -20 c 0
 1050 -25 1049 -32 1049 -37 c 0
 1046 -68 1037 -88 1022 -96 c 0
 1011 -103 1000 -106 989 -106 c 0
 978 -106 966 -103 952 -96 c 0
EndSplineSet
Validated: 1
EndChar

StartChar: bracketright
Encoding: 93 93 61
Width: 1114
GlyphClass: 2
Flags: HW
HStem: -162 123<222 407 412 743> 1579 143<230 727>
VStem: 727 158<1074 1589> 739 147<-39 1549>
LayerCount: 2
Fore
SplineSet
823 -162 m 0xd0
 775 -162 684 -159 547 -152 c 0
 507 -149 462 -147 410 -147 c 0
 359 -147 313 -151 272 -156 c 2
 254 -156 l 2
 249 -156 243 -155 236 -152 c 0
 229 -149 223 -144 219 -139 c 0
 211 -125 207 -108 207 -86 c 0
 208 -67 213 -53 221 -43 c 0
 231 -33 248 -29 274 -29 c 0
 284 -29 335 -31 426 -35 c 0
 517 -39 597 -41 664 -41 c 0
 684 -40 710 -39 743 -39 c 1
 743 51 l 2
 743 89 742 171 741 297 c 0
 740 421 739 520 739 592 c 0xd0
 739 664 740 722 741 766 c 2
 741 920 l 2
 742 944 742 968 742 993 c 0
 742 1018 742 1044 741 1071 c 0
 740 1124 735 1297 727 1589 c 1
 651 1590 587 1591 535 1591 c 0
 426 1591 343 1587 287 1579 c 1
 270 1579 l 2
 265 1578 258 1579 250 1583 c 0
 242 1587 234 1592 229 1599 c 0
 217 1617 211 1637 211 1657 c 0
 212 1677 218 1694 229 1706 c 0
 239 1717 256 1722 281 1722 c 2
 285 1722 l 2
 345 1721 411 1720 485 1720 c 2
 547 1720 l 2
 628 1719 715 1717 811 1714 c 0
 841 1714 863 1708 875 1694 c 0
 889 1682 895 1667 895 1651 c 2
 895 1645 l 2
 894 1634 891 1624 887 1616 c 2
 885 1612 l 1
 885 1606 l 1
 885 1593 l 1
 885 1591 l 2xe0
 886 1579 889 1450 893 1204 c 0
 893 1170 894 1136 894 1101 c 0
 894 1031 893 960 891 887 c 0
 888 782 886 676 886 571 c 0
 886 492 887 413 889 334 c 0
 893 150 898 22 903 -49 c 2
 903 -68 l 1
 903 -72 l 2
 907 -84 909 -95 909 -106 c 0
 909 -143 880 -162 823 -162 c 0xd0
EndSplineSet
Validated: 1
EndChar

StartChar: asciicircum
Encoding: 94 94 62
Width: 1114
GlyphClass: 2
Flags: HW
HStem: 1243 670
LayerCount: 2
Fore
SplineSet
985 1251 m 0
 980 1251 974 1252 969 1255 c 0
 954 1265 928 1288 893 1325 c 0
 882 1336 875 1344 872 1348 c 0
 791 1429 737 1487 707 1522 c 0
 676 1557 633 1614 578 1690 c 2
 561 1712 l 1
 545 1690 l 2
 510 1639 478 1598 449 1565 c 0
 420 1534 397 1509 379 1493 c 0
 363 1477 339 1454 309 1425 c 0
 280 1398 251 1367 221 1333 c 0
 214 1326 207 1319 199 1309 c 0
 169 1275 147 1253 133 1243 c 0
 123 1238 112 1238 100 1243 c 0
 81 1253 65 1269 51 1294 c 0
 47 1302 45 1312 45 1323 c 0
 45 1341 53 1360 68 1380 c 0
 94 1415 129 1458 174 1509 c 0
 219 1558 269 1615 324 1679 c 0
 377 1743 430 1812 485 1886 c 0
 495 1900 509 1909 528 1913 c 0
 538 1914 547 1915 557 1915 c 0
 567 1915 577 1914 588 1911 c 0
 606 1906 619 1896 627 1884 c 0
 679 1813 724 1754 762 1706 c 0
 800 1658 830 1624 850 1602 c 0
 870 1580 900 1548 940 1507 c 0
 980 1465 1016 1426 1049 1391 c 0
 1064 1373 1071 1355 1071 1337 c 0
 1071 1327 1068 1319 1063 1311 c 0
 1048 1284 1029 1265 1006 1255 c 1
 1004 1255 l 2
 997 1252 990 1251 985 1251 c 0
EndSplineSet
Validated: 1
EndChar

StartChar: underscore
Encoding: 95 95 63
Width: 1114
GlyphClass: 2
Flags: HW
HStem: -184 133<86 1032>
LayerCount: 2
Fore
SplineSet
68 -109 m 2
 68 -87 74 -71 86 -61 c 0
 96 -54 110 -51 129 -51 c 2
 133 -51 l 1
 135 -51 l 2
 261 -52 367 -53 453 -53 c 0
 482 -53 514 -54 548 -54 c 0
 616 -54 694 -53 782 -51 c 0
 890 -48 956 -47 981 -47 c 0
 1006 -47 1022 -52 1032 -63 c 0
 1042 -74 1048 -91 1049 -111 c 0
 1048 -133 1042 -149 1034 -160 c 0
 1023 -172 1005 -178 979 -178 c 0
 477 -182 196 -184 137 -184 c 0
 111 -184 93 -178 82 -164 c 0
 72 -153 68 -137 68 -115 c 2
 68 -109 l 2
EndSplineSet
Validated: 1
EndChar

StartChar: grave
Encoding: 96 96 64
Width: 1114
GlyphClass: 2
Flags: HW
HStem: 1298 338
VStem: 330 456
LayerCount: 2
Fore
SplineSet
780 1325 m 0
 772 1311 757 1302 735 1298 c 2
 723 1298 l 2
 711 1298 688 1305 655 1317 c 0
 650 1320 629 1331 594 1350 c 0
 559 1370 531 1386 512 1397 c 0
 494 1407 471 1421 442 1440 c 0
 412 1458 388 1474 369 1489 c 0
 357 1500 347 1513 340 1528 c 0
 333 1543 330 1557 330 1571 c 0
 330 1583 333 1595 338 1606 c 0
 349 1621 366 1631 391 1636 c 0
 396 1637 403 1638 410 1638 c 0
 428 1637 444 1632 459 1622 c 0
 467 1615 510 1581 588 1520 c 0
 602 1509 622 1495 649 1477 c 0
 676 1458 701 1443 721 1432 c 0
 748 1418 767 1399 778 1374 c 0
 783 1363 786 1354 786 1346 c 0
 786 1338 784 1330 780 1325 c 0
EndSplineSet
Validated: 1
EndChar

StartChar: a
Encoding: 97 97 65
Width: 1114
GlyphClass: 2
Flags: HW
HStem: -78 43G<913 945> -57 141<395 638> 895 150<447 737>
VStem: 793 147<463 485 671 696 697 837> 862 100<-76 114>
LayerCount: 2
Fore
SplineSet
262 922 m 0x68
 308 964 376 998 463 1024 c 0
 507 1038 554 1044 606 1044 c 2
 625 1044 l 2
 740 1041 815 1011 852 954 c 0
 909 860 939 726 940 553 c 2
 940 508 l 2x70
 940 482 940 438 939 375 c 0
 938 312 938 280 938 279 c 0
 938 244 944 175 956 74 c 0
 960 44 963 18 963 -4 c 0
 963 -53 954 -78 936 -78 c 0xa8
 891 -78 866 -69 862 -51 c 0
 843 10 824 85 805 172 c 1
 797 146 788 133 780 133 c 0
 736 61 693 10 649 -20 c 0
 615 -45 557 -57 475 -57 c 0
 440 -57 399 -47 354 -25 c 0
 306 -2 265 34 230 82 c 0
 195 130 170 178 154 227 c 1
 154 261 158 298 166 338 c 0
 176 380 194 415 221 444 c 0
 262 486 291 512 307 522 c 0
 374 559 413 580 424 584 c 0
 509 611 555 626 565 629 c 0
 626 637 666 643 682 647 c 0
 689 648 724 661 788 686 c 0
 788 694 790 697 791 696 c 1
 795 710 797 723 797 735 c 0
 797 747 796 759 795 771 c 0
 794 783 786 797 772 815 c 0
 753 838 732 856 709 870 c 0
 690 884 658 892 614 895 c 2
 596 895 l 2
 569 895 539 890 508 879 c 0
 477 868 449 854 426 838 c 0
 384 809 354 784 336 762 c 0
 305 718 275 696 246 696 c 0
 232 696 219 701 205 711 c 0
 175 734 169 755 169 772 c 0
 169 793 179 819 199 848 c 0
 217 874 237 899 262 922 c 0x68
651 139 m 0
 674 159 696 184 715 213 c 0
 735 242 752 278 766 321 c 0
 780 364 788 411 791 463 c 2
 793 485 l 1
 770 483 l 2
 522 460 364 393 297 281 c 2
 291 270 l 1
 297 260 l 2
 330 196 364 150 401 123 c 0
 434 97 472 84 514 84 c 0
 516 84 517 84 519 84 c 0
 566 84 610 102 651 139 c 0
EndSplineSet
Validated: 1
EndChar

StartChar: b
Encoding: 98 98 66
Width: 1114
GlyphClass: 2
Flags: HW
HStem: -29 156<383 682> 917 150<392 685> 1532 41G<197 222>
VStem: 123 160<5 85 225 801 956 1552> 834 158<308 748>
LayerCount: 2
Fore
SplineSet
752 244 m 0
 807 318 834 416 834 539 c 2
 834 549 l 2
 833 613 821 672 799 726 c 0
 777 780 744 825 702 860 c 0
 658 898 606 917 543 917 c 0
 541 917 540 917 538 917 c 0
 454 917 371 881 289 807 c 2
 283 801 l 1
 283 791 l 2
 283 616 282 427 279 225 c 1
 285 219 l 2
 318 185 354 161 395 147 c 0
 435 133 480 127 532 127 c 0
 626 127 700 166 752 244 c 0
131 1479 m 0
 131 1516 138 1540 150 1552 c 0
 164 1566 184 1573 211 1573 c 0
 233 1573 251 1566 265 1554 c 0
 279 1542 287 1518 287 1483 c 0
 286 1233 285 1070 285 995 c 2
 285 956 l 1
 295 978 304 986 315 979 c 1
 397 1038 492 1067 598 1067 c 0
 676 1066 745 1043 805 1001 c 0
 868 957 914 899 945 826 c 0
 976 753 991 671 991 578 c 2
 991 567 l 1
 991 549 l 2
 991 479 984 413 970 350 c 0
 956 287 934 232 906 186 c 0
 878 140 846 101 810 69 c 0
 774 37 736 12 698 -4 c 0
 660 -20 622 -29 584 -29 c 0
 478 -29 385 2 307 63 c 1
 299 58 291 66 281 86 c 1
 280 60 277 48 276 49 c 1
 273 23 266 6 254 -4 c 0
 240 -16 222 -23 199 -23 c 0
 170 -23 150 -14 139 4 c 0
 129 19 125 42 125 72 c 0
 124 172 123 295 123 442 c 0
 123 970 126 1317 131 1479 c 0
EndSplineSet
Validated: 1
EndChar

StartChar: c
Encoding: 99 99 67
Width: 1114
GlyphClass: 2
Flags: HW
HStem: -65 149<416 741> 928 152<493 721>
VStem: 141 166<205 671>
LayerCount: 2
Fore
SplineSet
837 1002 m 0
 891 951 926 891 944 821 c 0
 949 802 952 785 952 770 c 0
 952 747 946 728 934 713 c 0
 924 702 911 692 893 684 c 0
 879 679 866 676 854 676 c 0
 844 676 835 677 826 680 c 0
 817 683 809 689 799 700 c 0
 789 711 781 726 776 745 c 2
 768 775 l 2
 763 795 759 809 756 817 c 0
 753 825 748 836 742 849 c 0
 736 862 730 873 723 881 c 0
 718 889 710 897 700 905 c 0
 681 920 656 928 623 928 c 0
 598 928 574 923 549 914 c 0
 524 905 499 889 472 865 c 0
 445 841 421 811 399 776 c 0
 377 741 358 695 341 638 c 0
 324 581 313 519 309 449 c 0
 308 434 307 420 307 406 c 0
 308 317 325 246 358 193 c 0
 398 126 460 89 545 84 c 2
 567 84 l 2
 626 84 675 95 715 115 c 0
 766 138 797 166 809 199 c 0
 817 219 827 236 838 248 c 0
 849 260 858 268 867 271 c 0
 876 274 885 276 895 276 c 0
 905 276 917 273 932 266 c 0
 944 261 955 254 963 244 c 0
 971 234 975 221 975 205 c 0
 975 189 968 167 956 141 c 0
 933 90 887 45 819 4 c 0
 782 -18 739 -35 688 -47 c 0
 640 -58 587 -64 529 -65 c 0
 528 -65 526 -65 525 -65 c 0
 469 -65 416 -52 367 -27 c 0
 315 -1 273 33 241 74 c 0
 209 115 184 160 167 211 c 0
 150 262 141 313 141 365 c 2
 141 375 l 2
 142 471 154 557 174 636 c 0
 194 715 222 781 257 835 c 0
 292 889 333 934 379 971 c 0
 461 1043 556 1079 664 1079 c 0
 725 1079 783 1053 837 1002 c 0
EndSplineSet
Validated: 1
EndChar

StartChar: d
Encoding: 100 100 68
Width: 1114
GlyphClass: 2
Flags: HW
HStem: -29 162<401 692> 889 158<409 684> 1534 41G<911 937>
VStem: 104 158<298 726> 817 147<89 168 265 698 942 1430> 838 156<53 166 973 1543> 862 150<-8 166>
LayerCount: 2
Fore
SplineSet
817 553 m 1xf8
 817 555 l 1
 819 692 l 1
 819 698 l 1
 817 702 l 2
 784 755 744 801 697 836 c 0
 650 871 601 889 549 889 c 2
 541 889 l 2
 484 885 434 867 393 834 c 0
 351 801 319 759 297 708 c 0
 275 657 263 601 262 541 c 2
 262 532 l 2
 262 410 287 315 338 244 c 0
 387 170 456 133 543 133 c 2
 545 133 l 2
 567 133 587 135 606 139 c 0
 625 143 642 149 657 155 c 0
 672 161 686 170 700 182 c 0
 714 194 725 205 735 214 c 0
 745 223 754 236 764 252 c 0
 775 268 782 281 787 289 c 0
 792 297 798 306 804 316 c 0
 810 326 814 335 817 340 c 2
 817 346 l 1
 817 487 l 1
 817 553 l 1xf8
155 810 m 0
 188 882 237 939 303 981 c 0
 364 1023 434 1046 512 1047 c 0
 621 1047 715 1019 793 963 c 1
 803 970 812 962 823 942 c 1
 826 1219 831 1394 838 1466 c 0
 841 1500 848 1526 860 1544 c 0
 874 1564 896 1575 926 1575 c 0
 949 1574 967 1566 979 1552 c 0
 989 1542 993 1522 993 1489 c 2
 993 1468 l 2xf4
 988 1385 982 1231 975 1005 c 0
 968 779 965 606 965 489 c 0xf8
 968 410 972 341 977 282 c 0
 982 223 988 181 995 156 c 0
 1006 110 1012 80 1012 68 c 2
 1012 53 l 2
 1008 33 999 16 985 4 c 0
 973 -7 956 -14 936 -18 c 0
 928 -19 920 -20 913 -20 c 0
 891 -20 874 -12 862 4 c 0xf2
 844 29 833 65 829 113 c 0
 826 118 824 137 823 168 c 1
 813 139 804 124 793 123 c 1
 778 101 763 82 748 66 c 0
 734 50 716 33 695 18 c 0
 674 3 650 -8 622 -16 c 0
 594 -24 562 -29 528 -29 c 0
 443 -29 366 3 295 66 c 0
 257 99 224 137 195 182 c 0
 166 227 143 282 127 345 c 0
 111 408 102 475 102 545 c 0
 103 550 104 556 104 561 c 2
 104 571 l 2
 104 658 122 738 155 810 c 0
EndSplineSet
Validated: 1
EndChar

StartChar: e
Encoding: 101 101 69
Width: 1114
GlyphClass: 2
Flags: HW
HStem: -57 131<409 702> 928 139<450 692>
VStem: 133 162<200 364 520 547>
LayerCount: 2
Fore
SplineSet
805 -8 m 0
 742 -41 657 -57 549 -57 c 2
 524 -57 l 2
 404 -54 309 -6 238 88 c 0
 168 179 133 306 133 467 c 0
 133 568 147 657 174 735 c 0
 201 809 238 870 282 918 c 0
 326 966 377 1002 434 1028 c 0
 489 1054 548 1067 612 1067 c 0
 647 1067 687 1055 731 1032 c 0
 777 1009 822 976 864 934 c 0
 906 892 936 846 952 797 c 1
 952 778 l 2
 952 753 944 727 926 698 c 0
 903 658 878 628 852 608 c 0
 800 568 729 529 639 489 c 0
 595 470 557 454 526 440 c 0
 495 426 456 410 408 391 c 0
 371 375 333 361 295 350 c 1
 296 339 298 333 299 332 c 0
 304 297 313 265 324 236 c 0
 335 207 350 181 369 156 c 0
 388 131 411 111 440 96 c 0
 469 81 505 74 549 74 c 0
 579 74 610 79 641 90 c 0
 672 101 700 115 723 131 c 0
 748 147 767 162 783 175 c 0
 799 188 810 199 815 207 c 0
 846 251 876 272 905 272 c 0
 919 272 932 268 946 258 c 0
 971 240 983 221 983 198 c 0
 983 175 972 150 952 121 c 0
 932 92 911 68 889 48 c 0
 867 28 839 10 805 -8 c 0
434 870 m 0
 411 850 389 826 369 797 c 0
 349 768 331 732 317 689 c 0
 303 646 296 599 293 547 c 2
 291 520 l 1
 317 526 l 1
 559 592 714 658 782 725 c 2
 793 735 l 1
 786 750 l 2
 753 814 720 860 687 887 c 0
 654 914 615 928 573 928 c 0
 524 928 478 908 434 870 c 0
EndSplineSet
Validated: 1
EndChar

StartChar: f
Encoding: 102 102 70
Width: 1114
GlyphClass: 2
Flags: HW
HStem: -29 147<189 404 539 722> -10 115<544 862> 856 143<203 367 512 711 717 917> 1430 137<676 937>
VStem: 365 139<388 860 1001 1269> 397 125<239 291 362 857> 406 133<115 540>
LayerCount: 2
Fore
SplineSet
240 -29 m 2xb2
 213 -27 196 -18 186 -6 c 0
 176 8 170 27 170 45 c 2
 170 51 l 2
 170 71 176 90 188 102 c 0
 200 114 219 121 248 121 c 2
 262 119 l 1
 319 119 l 2
 350 119 379 117 406 115 c 1
 406 166 l 2xb2
 406 180 403 197 401 217 c 0
 399 237 397 262 397 291 c 0xb4
 397 320 395 359 393 414 c 2
 381 631 l 2
 377 719 373 797 371 860 c 1
 332 858 293 856 250 856 c 0
 230 856 213 860 203 870 c 0
 189 880 182 901 182 928 c 2
 182 936 l 2
 182 961 189 977 201 987 c 0
 211 995 228 999 248 999 c 2
 367 999 l 1
 365 1036 365 1075 365 1118 c 0
 365 1181 375 1237 393 1288 c 0
 411 1339 436 1380 465 1415 c 0
 494 1450 530 1478 571 1501 c 0
 612 1524 660 1540 707 1550 c 0
 762 1560 820 1567 879 1567 c 0
 904 1567 924 1560 938 1550 c 0
 950 1540 956 1523 956 1503 c 0
 956 1483 950 1464 940 1450 c 0
 930 1436 915 1430 901 1430 c 0
 774 1430 676 1400 606 1339 c 0
 536 1278 504 1198 504 1098 c 0xb8
 506 1067 506 1036 508 1001 c 1
 576 1009 643 1014 715 1014 c 0
 764 1014 815 1012 866 1008 c 0
 893 1008 910 1001 918 991 c 0
 926 981 932 964 934 946 c 0
 932 923 928 905 920 895 c 0
 910 881 891 874 864 874 c 0
 833 874 764 872 655 868 c 0
 606 866 559 866 512 864 c 1
 514 770 518 671 522 567 c 0xb4
 524 452 528 342 532 233 c 0
 534 170 535 135 537 129 c 0
 537 121 539 115 539 113 c 0
 654 107 740 104 799 104 c 0
 830 104 850 100 862 88 c 0
 874 76 881 61 881 43 c 0
 881 23 874 4 860 -10 c 1x72
 240 -29 l 2xb2
EndSplineSet
Validated: 1
EndChar

StartChar: g
Encoding: 103 103 71
Width: 1114
GlyphClass: 2
Flags: HW
HStem: -598 131<262 585> -63 160<398 671> 891 152<484 856>
VStem: 150 156<207 695> 825 141<-102 123 256 854>
LayerCount: 2
Fore
SplineSet
305 526 m 2
 304 504 304 483 304 462 c 0
 304 441 304 421 305 401 c 0
 306 359 312 320 322 283 c 0
 332 246 344 213 361 184 c 0
 378 155 401 134 428 119 c 0
 454 104 483 96 514 96 c 0
 554 96 592 103 627 117 c 0
 658 131 685 147 707 166 c 0
 729 185 748 207 766 233 c 0
 784 259 797 285 807 310 c 0
 817 335 823 361 827 387 c 0
 827 391 828 458 829 586 c 0
 830 676 831 745 831 791 c 0
 831 805 835 817 842 829 c 2
 856 854 l 1
 827 858 l 1
 815 860 l 1
 749 880 691 891 639 891 c 2
 623 891 l 2
 597 890 571 885 544 876 c 0
 517 867 491 853 464 834 c 0
 437 815 413 791 393 764 c 0
 370 737 351 703 335 663 c 0
 319 623 309 577 305 528 c 2
 305 526 l 2
905 -285 m 0
 882 -340 853 -385 818 -423 c 0
 783 -461 744 -493 700 -520 c 0
 624 -572 536 -598 438 -598 c 0
 401 -598 363 -593 322 -581 c 0
 281 -569 247 -557 221 -543 c 2
 188 -526 l 2
 185 -525 181 -522 176 -518 c 2
 168 -510 l 1
 164 -506 l 2
 163 -503 161 -500 160 -496 c 0
 159 -492 158 -483 158 -471 c 0
 158 -449 164 -432 178 -418 c 0
 189 -408 200 -403 212 -403 c 0
 224 -403 240 -410 262 -422 c 0
 280 -432 302 -442 328 -452 c 0
 354 -462 378 -467 403 -467 c 0
 469 -467 531 -452 588 -421 c 0
 645 -390 693 -347 731 -291 c 0
 773 -234 800 -168 811 -96 c 0
 815 -67 818 -17 821 55 c 0
 822 65 824 88 825 123 c 1
 811 92 798 74 786 70 c 0
 725 -19 630 -63 502 -63 c 0
 383 -60 295 -17 238 68 c 0
 179 155 150 286 150 459 c 0
 151 542 162 617 183 683 c 0
 204 749 232 804 266 848 c 0
 300 892 341 928 389 958 c 0
 431 988 476 1010 522 1023 c 0
 568 1036 619 1042 672 1042 c 0
 740 1042 789 1039 818 1033 c 0
 847 1027 877 1015 907 999 c 0
 914 995 920 989 924 979 c 0
 928 969 930 959 930 948 c 0
 930 937 928 928 924 920 c 2
 918 913 l 1
 913 905 l 1
 910 908 907 901 903 883 c 1
 910 891 918 889 926 877 c 1
 940 873 949 865 954 854 c 0
 959 843 963 829 963 813 c 0
 966 589 967 445 967 379 c 0
 967 184 961 24 950 -102 c 0
 943 -169 928 -230 905 -285 c 0
EndSplineSet
Validated: 1
EndChar

StartChar: h
Encoding: 104 104 72
Width: 1114
GlyphClass: 2
Flags: HW
HStem: -46 43G<885 895> 848 193<523 741> 1532 41G<236 265>
VStem: 172 159<31 621 776 1550> 795 174<-18 789> 801 147<330 780>
LayerCount: 2
Fore
SplineSet
958 325 m 0xf4
 965 200 969 114 969 68 c 0
 969 30 960 1 942 -18 c 0
 925 -36 906 -46 885 -46 c 0
 884 -46 884 -46 883 -46 c 0
 861 -45 840 -36 821 -18 c 0
 803 -2 795 19 795 45 c 0xf8
 795 85 796 154 799 253 c 0
 801 332 802 392 802 433 c 0
 802 443 802 452 802 460 c 0
 801 499 801 525 801 539 c 0
 800 682 775 775 727 819 c 0
 708 838 687 848 662 848 c 0
 624 848 588 840 555 826 c 0
 522 812 495 794 472 772 c 0
 449 750 430 725 414 698 c 0
 398 669 384 642 374 616 c 0
 364 590 355 566 349 541 c 0
 343 516 339 496 337 481 c 0
 335 466 334 455 333 447 c 0
 332 439 332 422 331 394 c 0
 330 366 330 324 330 268 c 2
 330 178 l 2
 329 129 324 81 319 33 c 0
 316 10 306 -10 288 -24 c 0
 270 -38 248 -45 225 -45 c 1
 224 -57 222 -57 219 -43 c 1
 197 -44 180 -38 166 -23 c 0
 154 -9 147 9 147 31 c 0
 148 34 150 37 150 41 c 0
 154 100 159 194 164 324 c 0
 169 454 172 547 172 606 c 0
 171 624 170 639 170 653 c 0
 165 791 162 932 162 1075 c 0
 162 1213 163 1349 166 1481 c 0
 167 1512 175 1535 190 1550 c 0
 205 1565 225 1573 248 1573 c 2
 254 1573 l 2
 276 1573 294 1566 309 1553 c 0
 324 1540 332 1519 332 1489 c 0
 333 1336 335 1098 338 776 c 1
 350 811 363 834 375 844 c 0
 389 869 405 891 423 914 c 0
 441 937 465 958 492 977 c 0
 519 996 552 1011 591 1023 c 0
 630 1035 673 1040 721 1040 c 0
 763 1040 799 1031 829 1012 c 0
 859 993 883 965 899 930 c 0
 932 862 948 775 948 670 c 2
 948 635 l 2
 948 553 951 450 958 325 c 0xf4
EndSplineSet
Validated: 1
EndChar

StartChar: i
Encoding: 105 105 73
Width: 1114
GlyphClass: 2
Flags: HW
HStem: -23 126<142 516 659 974> 827 139<217 260 261 507> 1180 279<462 646>
VStem: 420 266<1230 1416> 516 143<102 807>
LayerCount: 2
Fore
SplineSet
649 360 m 0xe8
 650 309 654 224 659 102 c 1
 928 102 l 2
 953 102 969 98 977 88 c 0
 985 76 989 60 989 41 c 0
 988 22 983 7 975 -4 c 0
 964 -18 947 -25 923 -24 c 0
 920 -24 914 -23 907 -23 c 0
 865 -23 757 -25 584 -29 c 0
 386 -33 254 -35 190 -35 c 0
 164 -35 147 -29 138 -17 c 0
 129 -5 125 10 125 29 c 0
 126 32 127 34 127 37 c 0
 127 57 131 74 141 86 c 0
 149 97 167 102 193 102 c 2
 516 102 l 1
 516 102 516 103 516 123 c 0
 516 186 515 240 514 285 c 0
 513 330 512 376 512 424 c 0
 512 440 513 497 514 594 c 0
 514 612 515 650 518 708 c 0
 521 766 522 799 522 807 c 2
 522 823 l 1
 518 811 513 812 508 827 c 0
 498 830 483 831 463 831 c 0
 443 831 418 830 389 829 c 0
 358 828 331 827 310 827 c 2
 262 827 l 1
 261 813 260 813 260 827 c 1
 241 827 226 833 216 845 c 0
 206 857 201 870 201 885 c 2
 201 891 l 2
 201 909 205 924 215 936 c 0
 225 948 240 954 260 954 c 0
 358 962 446 967 522 967 c 2
 582 967 l 2
 598 967 612 963 623 955 c 0
 634 947 641 939 645 928 c 0
 655 905 659 884 659 868 c 0
 651 756 647 636 647 506 c 0
 647 460 648 411 649 360 c 0xe8
462 1414 m 0
 490 1441 522 1455 559 1456 c 0
 560 1457 562 1458 565 1458 c 0
 599 1458 627 1446 649 1421 c 0
 674 1395 686 1363 686 1325 c 0
 686 1287 674 1255 650 1229 c 0
 626 1203 595 1187 555 1182 c 0
 550 1181 545 1180 541 1180 c 0
 508 1180 481 1192 459 1217 c 0
 433 1247 420 1281 420 1321 c 0xf0
 420 1356 434 1387 462 1414 c 0
EndSplineSet
Validated: 1
EndChar

StartChar: j
Encoding: 106 106 74
Width: 1114
GlyphClass: 2
Flags: HW
HStem: -588 145<212 502> 813 137<253 311 313 714> 1174 275<679 884>
VStem: 643 281<1222 1410> 707 162<-47 814> 725 150<-231 439>
LayerCount: 2
Fore
SplineSet
716 137 m 0xe4
 710 249 707 357 707 459 c 0
 707 548 710 666 715 815 c 1
 707 801 699 801 692 813 c 1
 676 812 648 811 608 811 c 0
 568 811 470 812 313 813 c 0
 287 813 267 821 252 837 c 0
 237 853 229 870 229 889 c 0
 230 890 231 892 231 893 c 2
 231 894 l 2
 231 907 238 920 252 932 c 0
 266 944 285 950 311 950 c 1
 312 936 313 936 313 950 c 1
 359 953 427 955 514 958 c 0
 596 961 656 963 694 963 c 0
 736 963 770 962 795 961 c 2
 799 961 l 2
 814 961 827 957 839 950 c 0
 851 943 859 935 864 924 c 0
 875 899 881 879 881 864 c 0
 878 850 874 832 871 809 c 0
 868 786 865 767 864 751 c 0
 863 735 862 714 862 687 c 0
 862 660 864 553 868 365 c 0xe8
 872 177 874 29 874 -76 c 0
 874 -132 868 -183 855 -231 c 0
 842 -279 824 -320 800 -353 c 0
 776 -386 748 -417 715 -444 c 0
 684 -471 652 -494 620 -512 c 0
 588 -530 553 -544 515 -556 c 0
 477 -568 439 -576 399 -580 c 0
 358 -585 315 -588 270 -588 c 0
 245 -587 226 -580 211 -569 c 0
 199 -559 193 -544 193 -524 c 0
 193 -504 199 -485 213 -468 c 0
 227 -451 242 -442 258 -442 c 0
 367 -442 458 -423 530 -385 c 0
 567 -366 600 -341 628 -310 c 0
 656 -279 678 -242 696 -197 c 0
 715 -152 725 -102 725 -47 c 0
 725 -36 722 25 716 137 c 0xe4
678 1413 m 0
 708 1436 743 1448 784 1448 c 0
 786 1448 789 1448 791 1448 c 0
 829 1448 860 1436 885 1411 c 0
 911 1385 924 1353 924 1314 c 0
 924 1275 911 1241 885 1214 c 0
 859 1187 823 1174 779 1174 c 0
 735 1174 701 1190 676 1221 c 0
 654 1251 643 1287 643 1329 c 0xf0
 643 1364 655 1393 678 1413 c 0
EndSplineSet
Validated: 1
EndChar

StartChar: k
Encoding: 107 107 75
Width: 1114
GlyphClass: 2
Flags: HW
HStem: -47 43G<208 235 899 909> 1532 41G<219 244>
VStem: 145 168<-18 348 611 712 722 1548> 147 152<592 1452>
LayerCount: 2
Fore
SplineSet
307 84 m 2xd0
 307 66 l 2
 304 24 295 -7 279 -23 c 0
 265 -39 246 -47 223 -47 c 0
 193 -47 170 -37 152 -18 c 0
 140 -3 133 19 133 49 c 2
 133 57 l 2
 140 120 144 220 145 358 c 0xe0
 146 496 147 616 147 717 c 0xd0
 147 818 146 1069 145 1470 c 0
 145 1505 154 1532 170 1548 c 0
 186 1564 206 1573 231 1573 c 0
 256 1573 276 1564 291 1548 c 0
 306 1533 313 1508 313 1473 c 0xe0
 313 1296 309 1002 299 592 c 1
 334 623 l 1
 405 697 493 785 598 889 c 0
 704 985 763 1038 774 1049 c 0
 797 1078 821 1092 844 1092 c 0
 856 1092 869 1083 883 1067 c 0
 897 1046 899 1027 899 1011 c 0
 899 993 887 972 864 950 c 0
 838 919 743 821 578 659 c 1
 584 645 l 2
 609 594 653 523 717 430 c 0
 787 333 846 250 897 182 c 0
 948 119 976 82 983 68 c 2
 983 63 l 2
 983 22 971 -8 946 -27 c 0
 930 -39 915 -45 903 -45 c 0
 895 -45 885 -42 874 -35 c 0
 862 -27 850 -12 838 8 c 0
 830 19 807 47 770 92 c 0
 733 138 699 185 666 231 c 0
 633 280 599 336 565 397 c 0
 530 453 506 501 492 539 c 2
 483 565 l 1
 309 403 l 1
 297 403 l 1
 296 380 295 362 295 350 c 0
 295 305 297 256 301 201 c 0
 305 148 307 109 307 84 c 2xd0
EndSplineSet
Validated: 1
EndChar

StartChar: l
Encoding: 108 108 76
Width: 991
GlyphClass: 2
Flags: HMW
HStem: -57 139<600 645 627 645 627 669>
VStem: 289 150<317 487> 319 141<1123 1152>
LayerCount: 2
Fore
SplineSet
289 510 m 2xa0
 289 526 290 555 292 596 c 0
 294 637 295 664 296 677 c 0
 297 690 299 717 302 757 c 0
 319 962 319 962 319 1118 c 0
 319 1186 316 1258 309 1333 c 2
 309 1341 l 2
 309 1355 314 1369 323 1383 c 0
 332 1397 344 1405 360 1405 c 0
 379 1405 400 1397 421 1382 c 0
 442 1367 454 1353 457 1339 c 0
 460 1316 461 1278 461 1225 c 0
 461 1022 460 1022 446 707 c 0
 443 647 442 606 441 585 c 0
 440 564 439 530 438 485 c 0xc0
 437 440 436 412 436 402 c 0
 436 392 436 384 437 378 c 0
 438 372 438 351 438 317 c 0
 441 249 461 194 497 151 c 0
 533 108 564 85 627 82 c 2
 645 82 l 2
 721 82 780 117 854 150 c 0
 861 153 867 154 873 154 c 0
 879 154 886 151 891 147 c 0
 903 139 913 124 918 102 c 2
 918 90 l 2
 918 74 912 59 901 45 c 0
 886 26 866 11 840 0 c 0
 774 -26 714 -57 625 -57 c 2
 600 -57 l 2
 556 -54 534 -46 496 -31 c 0
 457 -16 424 8 395 37 c 0
 365 66 341 102 321 148 c 0
 301 194 290 246 289 303 c 0
 288 318 287 339 287 365 c 0
 288 403 289 443 289 487 c 2
 289 510 l 2xa0
EndSplineSet
Validated: 1
EndChar

StartChar: m
Encoding: 109 109 77
Width: 1114
GlyphClass: 2
Flags: HW
HStem: -47 43G<164 180 565 574 948 952> 852 193<383 507 768 849>
VStem: 91 150<298 697 748 952> 96 156<-28 543 548 717 748 1050> 489 133<-27 566> 508 118<76 721 803 829> 874 150<-30 835>
LayerCount: 2
Fore
SplineSet
125 -29 m 0xd2
 113 -17 106 8 106 43 c 0
 106 57 105 95 102 157 c 0
 99 219 97 265 96 295 c 0xd2
 92 371 91 455 91 547 c 0xe2
 91 562 91 578 91 594 c 0
 92 705 93 826 96 958 c 0
 96 1002 105 1033 123 1051 c 0
 142 1067 162 1075 184 1075 c 1
 185 1089 187 1089 188 1075 c 1
 210 1076 228 1069 240 1053 c 0
 248 1041 252 1022 252 997 c 0
 252 987 251 978 250 967 c 0
 243 919 239 884 236 862 c 0
 231 836 225 797 221 745 c 1
 239 794 256 830 272 852 c 0
 332 980 412 1044 510 1044 c 0
 528 1044 545 1029 561 999 c 0
 580 964 596 915 608 854 c 0
 611 851 614 834 618 803 c 1
 625 832 633 847 641 850 c 0
 705 980 799 1044 922 1044 c 0
 923 1044 923 1045 924 1045 c 0
 947 1045 967 1028 981 995 c 0
 999 955 1010 903 1015 836 c 0
 1020 769 1023 691 1024 604 c 0
 1024 575 1025 545 1025 516 c 0
 1025 457 1024 398 1022 338 c 0
 1022 315 1021 293 1021 270 c 0
 1021 202 1023 135 1026 68 c 2
 1026 57 l 2
 1026 35 1024 17 1021 2 c 0
 1018 -13 1013 -24 1008 -31 c 0
 1003 -36 996 -40 989 -42 c 0
 982 -44 975 -45 967 -46 c 0
 959 -47 953 -47 950 -47 c 0
 946 -47 940 -46 932 -43 c 0
 924 -40 915 -36 906 -30 c 0
 897 -24 890 -13 884 3 c 0
 878 19 873 44 871 77 c 0
 869 110 868 138 868 160 c 0
 869 189 870 211 870 229 c 0
 873 387 874 521 874 627 c 0
 874 687 871 736 866 776 c 0
 862 805 857 825 849 836 c 0
 841 847 832 852 821 852 c 2
 817 852 l 2
 775 852 738 829 707 784 c 0
 677 742 651 686 629 616 c 1
 630 582 631 541 631 493 c 0
 631 445 629 380 626 299 c 0xd6
 623 218 621 160 621 125 c 0
 621 90 622 64 623 49 c 2
 623 31 l 2
 623 16 621 3 618 -8 c 0
 615 -19 611 -28 606 -33 c 0
 594 -43 581 -47 567 -47 c 0
 563 -46 560 -45 557 -45 c 0
 538 -45 523 -40 511 -28 c 0
 499 -16 492 10 489 51 c 2
 489 92 l 2xca
 489 137 493 207 499 301 c 0
 505 395 508 474 508 535 c 2
 508 584 l 2
 507 686 504 753 500 786 c 0
 499 804 494 818 487 829 c 0
 477 844 464 852 446 852 c 0
 411 852 375 827 338 776 c 0
 301 730 269 674 242 608 c 1
 242 593 241 573 241 550 c 0xe6
 241 503 242 440 244 362 c 0
 244 314 245 253 248 178 c 0
 251 103 252 57 252 39 c 0
 252 21 250 6 246 -6 c 0
 242 -18 235 -28 227 -33 c 0
 219 -38 211 -42 203 -44 c 0
 195 -46 185 -47 174 -47 c 0
 154 -46 137 -40 125 -29 c 0xd2
EndSplineSet
Validated: 1
EndChar

StartChar: n
Encoding: 110 110 78
Width: 1114
GlyphClass: 2
Flags: HW
HStem: -47 43G<224 249 900 912> 854 190<485 725>
VStem: 133 158<42 648> 154 162<-24 320 807 1029> 819 166<-22 417> 819 102<223 501>
LayerCount: 2
Fore
SplineSet
133 379 m 0xe0
 133 459 135 568 145 705 c 0
 155 842 160 921 160 948 c 0
 160 987 170 1014 188 1030 c 0
 206 1046 229 1055 252 1055 c 2
 256 1055 l 1
 258 1069 258 1069 258 1055 c 1
 281 1053 299 1046 313 1032 c 0
 323 1022 328 1004 328 977 c 0
 328 963 325 934 319 891 c 0
 317 877 313 848 309 805 c 1
 323 842 340 867 356 877 c 0
 387 924 426 962 477 995 c 0
 528 1028 587 1044 659 1044 c 0
 741 1044 805 1012 848 946 c 0
 895 878 920 780 922 655 c 0xe4
 924 567 934 452 954 309 c 0
 974 166 985 78 985 47 c 0
 985 14 979 -11 967 -25 c 0
 955 -39 938 -45 915 -45 c 0
 913 -47 913 -47 911 -47 c 0
 888 -47 868 -39 850 -23 c 0
 832 -7 821 18 819 57 c 2
 819 59 l 2
 813 110 805 176 799 254 c 0
 785 371 776 467 774 541 c 0
 768 660 757 739 739 782 c 0
 729 809 715 828 692 840 c 0
 676 850 656 854 633 854 c 0
 602 854 570 850 539 838 c 0
 508 826 482 811 459 793 c 0
 436 775 413 754 393 729 c 0
 370 704 354 682 340 659 c 0
 326 636 311 613 297 586 c 5
 291 424 l 5
 291 418 l 2xe8
 291 338 295 256 305 168 c 0
 311 105 315 61 315 41 c 0xd0
 315 8 307 -15 291 -29 c 0xe0
 277 -41 261 -47 238 -47 c 0
 211 -47 190 -39 176 -25 c 0
 162 -11 156 12 154 45 c 0xd0
 154 57 149 93 143 150 c 0
 137 207 135 256 133 295 c 0
 133 303 133 312 133 321 c 0
 133 339 133 359 133 379 c 0xe0
EndSplineSet
Validated: 1
EndChar

StartChar: o
Encoding: 111 111 79
Width: 1114
GlyphClass: 2
Flags: HW
HStem: -55 154<420 696> 932 139<432 694>
VStem: 127 170<234 740> 821 168<263 782>
LayerCount: 2
Fore
SplineSet
326 266 m 0
 338 232 355 203 377 180 c 0
 396 157 422 138 453 124 c 0
 484 110 521 101 563 98 c 2
 575 98 l 2
 612 98 645 107 674 125 c 0
 705 144 732 173 752 211 c 0
 798 292 821 400 821 535 c 0
 821 662 799 757 754 821 c 0
 708 895 641 932 555 932 c 0
 474 931 414 890 373 811 c 0
 331 735 305 630 297 496 c 1
 297 444 l 2
 297 377 307 318 326 266 c 0
987 459 m 0
 982 374 969 301 949 239 c 0
 929 177 900 123 862 78 c 0
 787 -11 676 -55 530 -55 c 0
 471 -55 418 -39 367 -8 c 0
 314 22 269 62 234 113 c 0
 199 164 173 220 155 283 c 0
 137 346 127 410 127 477 c 2
 127 489 l 2
 127 572 138 650 159 721 c 0
 180 792 210 853 249 904 c 0
 288 955 336 996 395 1026 c 0
 450 1056 512 1071 580 1071 c 0
 622 1071 662 1065 700 1051 c 0
 740 1039 779 1017 817 986 c 0
 855 955 887 917 914 871 c 0
 941 825 961 767 975 696 c 0
 985 644 989 588 989 528 c 0
 989 506 988 484 987 459 c 0
EndSplineSet
Validated: 1
EndChar

StartChar: p
Encoding: 112 112 80
Width: 1114
GlyphClass: 2
Flags: HW
HStem: -608 43G<231 256> -63 147<340 671> 891 152<426 697>
VStem: 144 151<107 758 922 1071> 162 156<-581 -31 922 1114> 801 172<247 755>
LayerCount: 2
Fore
SplineSet
303 344 m 2xf4
 307 106 l 1
 319 100 l 2
 348 90 386 85 432 84 c 0
 477 83 l 0
 507 83 537 84 567 86 c 0
 608 89 645 104 676 131 c 0
 707 158 733 194 752 236 c 0
 785 311 801 396 801 492 c 0
 800 500 799 507 799 514 c 0
 796 573 790 624 781 668 c 0
 772 712 762 747 748 775 c 0
 734 803 717 826 699 844 c 0
 681 862 662 874 643 881 c 0
 624 888 603 891 580 891 c 0
 536 891 489 879 440 854 c 0
 389 829 344 799 303 764 c 2
 295 758 l 1
 295 750 l 1
 295 725 l 2
 295 703 298 576 303 344 c 2xf4
297 -588 m 0
 283 -602 266 -608 246 -608 c 0
 217 -607 196 -598 182 -582 c 0
 170 -567 163 -546 162 -520 c 0xec
 157 -393 151 -196 148 71 c 0
 145 293 144 459 144 570 c 0
 144 592 144 612 144 630 c 0xf4
 145 736 145 812 145 860 c 0
 145 926 147 975 150 1008 c 0
 153 1041 157 1061 162 1071 c 0xec
 172 1089 185 1102 203 1112 c 0
 217 1119 230 1122 244 1122 c 0
 267 1122 286 1114 301 1098 c 0
 309 1090 313 1081 313 1071 c 0
 313 1067 312 1064 311 1061 c 0
 304 1038 300 1005 297 963 c 2
 295 922 l 1xf4
 307 944 319 951 330 946 c 1
 419 1010 505 1042 588 1042 c 0
 593 1042 598 1043 603 1043 c 0
 643 1043 679 1038 709 1028 c 0
 746 1017 780 999 813 972 c 0
 846 945 873 909 896 865 c 0
 919 821 936 763 949 693 c 0
 962 623 970 540 971 444 c 0
 972 441 973 439 973 436 c 0
 973 394 967 350 956 304 c 0
 945 258 929 213 906 169 c 0
 883 125 856 85 824 50 c 0
 792 15 755 -13 713 -33 c 0
 675 -52 633 -62 588 -63 c 2
 555 -63 l 2
 548 -63 540 -64 533 -64 c 0
 447 -64 382 -56 338 -41 c 1
 328 -51 319 -47 311 -31 c 1
 311 -116 312 -211 314 -319 c 0
 316 -427 317 -495 317 -524 c 2
 317 -528 l 2xec
 317 -554 311 -574 297 -588 c 0
EndSplineSet
Validated: 1
EndChar

StartChar: q
Encoding: 113 113 81
Width: 1114
GlyphClass: 2
Flags: HW
HStem: -606 43G<806 827> -63 150<421 739> 901 164<475 790>
VStem: 125 172<242 689> 748 160<-581 -25>
LayerCount: 2
Fore
SplineSet
308 349 m 0
 316 307 329 267 348 227 c 0
 366 187 391 155 422 129 c 0
 453 103 490 89 532 86 c 2
 563 86 l 2
 644 86 711 102 766 133 c 2
 776 139 l 1
 779 232 784 472 791 860 c 1
 780 866 l 2
 754 881 731 891 708 895 c 0
 685 899 652 901 610 901 c 0
 587 901 563 897 538 889 c 0
 513 881 487 866 460 846 c 0
 433 826 409 800 387 770 c 0
 364 740 344 700 328 652 c 0
 312 604 302 551 299 492 c 0
 298 485 297 478 297 471 c 0
 297 431 300 391 308 349 c 0
989 867 m 0
 989 857 986 849 981 842 c 0
 973 832 962 824 948 819 c 0
 944 826 940 825 936 815 c 0
 935 485 933 288 932 225 c 0
 931 125 929 36 928 -43 c 0
 925 -244 918 -399 907 -508 c 0
 903 -541 892 -566 874 -582 c 0
 856 -598 837 -606 816 -606 c 0
 795 -606 778 -599 764 -584 c 0
 753 -572 748 -553 748 -528 c 2
 748 -512 l 1
 756 -410 763 -243 770 -14 c 1
 760 -32 751 -37 741 -27 c 1
 690 -52 621 -63 532 -63 c 2
 512 -63 l 2
 467 -62 425 -52 385 -33 c 0
 341 -14 303 12 272 45 c 0
 241 78 214 116 191 158 c 0
 168 200 152 243 141 287 c 0
 130 331 125 373 125 414 c 0
 126 417 127 419 127 422 c 0
 127 516 138 601 159 675 c 0
 180 749 208 811 242 859 c 0
 276 907 317 948 365 979 c 0
 409 1010 454 1033 500 1047 c 0
 548 1059 598 1065 651 1065 c 0
 715 1065 777 1053 834 1030 c 0
 891 1007 934 978 961 944 c 0
 972 930 979 917 983 903 c 0
 987 889 989 877 989 867 c 0
EndSplineSet
Validated: 1
EndChar

StartChar: r
Encoding: 114 114 82
Width: 1114
GlyphClass: 2
Flags: HW
HStem: 895 141<613 775> 1014 41G<282 307>
VStem: 170 159<23 631> 199 168<-30 422 735 1030> 785 161<670 895>
LayerCount: 2
Fore
SplineSet
184 686 m 0xa8
 194 821 199 909 199 950 c 0
 200 988 210 1015 228 1031 c 0
 246 1047 269 1055 295 1055 c 0
 318 1055 336 1047 350 1032 c 0
 361 1018 367 997 367 967 c 2
 367 956 l 1x58
 359 889 351 814 344 731 c 1
 360 765 376 793 391 813 c 0
 405 838 426 863 453 889 c 0
 480 915 513 940 553 963 c 0
 593 986 638 1004 690 1016 c 0
 746 1030 804 1036 864 1036 c 2
 889 1036 l 2
 897 1032 905 1020 913 1001 c 0
 924 976 933 946 938 908 c 0
 943 870 946 834 946 797 c 0
 946 770 943 747 938 729 c 0
 934 707 926 691 914 680 c 0
 902 669 887 660 868 655 c 0
 864 654 860 653 856 653 c 0
 842 653 829 658 817 668 c 0
 801 682 791 699 788 719 c 0
 787 733 786 751 785 775 c 0
 784 799 782 821 778 839 c 0
 774 857 766 874 754 889 c 0
 751 900 749 902 748 895 c 2
 739 895 l 2
 694 895 652 885 612 866 c 0
 572 847 538 825 509 798 c 0
 480 771 453 742 428 709 c 0
 380 652 348 599 332 551 c 1
 330 500 329 458 329 423 c 0
 329 406 330 390 330 377 c 0
 330 325 334 254 342 163 c 0
 350 72 354 26 354 23 c 0
 354 -4 348 -24 334 -35 c 0
 322 -45 303 -49 278 -48 c 0
 253 -47 233 -42 219 -31 c 0
 207 -20 200 1 197 31 c 1
 193 54 188 89 184 135 c 0
 176 199 171 253 170 295 c 2
 170 365 l 2
 170 444 174 551 184 686 c 0xa8
EndSplineSet
Validated: 1
EndChar

StartChar: s
Encoding: 115 115 83
Width: 1114
GlyphClass: 2
Flags: HW
HStem: -72 143<354 642> 918 145<484 743>
VStem: 131 176<119 258> 186 166<663 820> 819 164<215 383>
LayerCount: 2
Fore
SplineSet
324 -51 m 0xd8
 280 -37 241 -16 207 15 c 0
 173 46 150 83 139 127 c 0
 134 147 131 166 131 182 c 0
 131 219 145 245 172 260 c 0
 188 267 205 270 222 270 c 0
 239 270 255 264 271 252 c 0
 287 240 299 223 307 202 c 0xe8
 315 181 323 165 328 155 c 0
 333 145 341 133 351 120 c 0
 361 107 373 97 385 90 c 0
 410 78 441 72 481 72 c 0
 518 72 561 81 609 101 c 0
 657 121 701 149 741 184 c 0
 789 221 815 260 819 301 c 2
 819 307 l 2
 819 332 810 353 790 371 c 0
 770 389 743 403 709 414 c 0
 676 425 643 434 610 444 c 2
 492 477 l 2
 446 489 406 502 373 514 c 0
 298 540 248 567 223 595 c 0
 198 623 186 664 186 719 c 0
 186 824 243 908 358 969 c 0
 467 1032 632 1063 852 1063 c 1
 858 1057 l 2
 863 1047 870 1034 877 1016 c 0
 891 976 900 939 906 904 c 0
 912 869 917 843 918 825 c 2
 918 801 l 1
 918 776 l 2
 918 764 914 752 907 742 c 0
 900 732 891 725 877 721 c 0
 867 718 858 717 848 716 c 0
 838 715 828 718 817 725 c 0
 799 737 787 751 780 766 c 0
 761 812 746 858 735 903 c 0
 734 918 732 923 731 918 c 2
 717 918 l 2
 682 918 643 914 602 906 c 0
 561 898 522 887 484 873 c 0
 446 859 416 840 391 815 c 0
 365 789 352 760 352 729 c 2
 352 717 l 2
 355 695 372 675 405 657 c 0
 439 639 492 622 563 606 c 0
 615 594 659 582 694 571 c 0
 734 559 774 543 815 525 c 0
 856 507 889 487 914 467 c 0
 939 447 959 422 971 393 c 0
 979 373 983 351 983 328 c 0
 984 320 984 311 983 303 c 0
 973 227 943 159 891 102 c 0
 839 45 774 1 696 -29 c 0
 624 -58 544 -72 457 -72 c 0
 412 -72 368 -65 324 -51 c 0xd8
EndSplineSet
Validated: 1
EndChar

StartChar: t
Encoding: 116 116 84
Width: 1114
GlyphClass: 2
Flags: HW
HStem: -57 139<542 899> 850 131<620 922> 858 143<162 332 477 866>
VStem: 309 150<169 854> 330 152<403 854 997 1385>
LayerCount: 2
Fore
SplineSet
309 510 m 2xd0
 309 526 310 555 312 596 c 0
 314 637 315 664 316 677 c 0
 317 690 320 717 323 757 c 0
 326 797 329 831 332 858 c 1
 209 858 l 2
 189 859 173 864 162 872 c 0
 148 882 141 899 141 924 c 0
 142 925 143 927 143 930 c 2
 143 932 l 2
 142 959 148 978 162 989 c 0
 173 997 189 1001 211 1001 c 0
 253 1001 288 1000 315 999 c 1
 322 1009 329 1008 336 997 c 1
 339 1043 340 1084 340 1118 c 0
 340 1186 337 1258 330 1333 c 2
 330 1341 l 2
 330 1355 334 1369 343 1383 c 0
 352 1397 365 1405 381 1405 c 0
 400 1405 420 1397 441 1382 c 0
 462 1367 474 1353 477 1339 c 0
 480 1316 481 1278 481 1225 c 0xa8
 481 1170 480 1093 477 993 c 1
 708 985 838 981 868 981 c 0
 894 981 913 975 924 961 c 0
 934 949 938 931 938 909 c 0
 937 890 932 875 923 865 c 0
 914 855 896 850 870 850 c 0
 783 854 698 856 616 856 c 0
 567 856 519 856 471 854 c 1
 471 816 470 767 467 707 c 0
 464 647 463 606 462 585 c 0
 461 564 460 530 459 485 c 0
 458 440 457 412 457 402 c 0
 457 392 457 384 458 378 c 0
 459 372 459 351 459 317 c 0
 462 249 481 194 517 151 c 0
 553 108 603 85 666 82 c 2
 684 82 l 2
 760 82 835 98 909 131 c 0
 916 134 923 135 929 135 c 0
 935 135 941 133 946 129 c 0
 958 121 968 106 973 84 c 2
 973 72 l 2
 973 56 967 41 956 27 c 0
 941 8 921 -7 895 -18 c 0
 829 -44 753 -57 664 -57 c 2
 639 -57 l 2
 595 -54 554 -46 516 -31 c 0
 478 -15 445 8 416 37 c 0
 386 66 361 102 341 148 c 0
 321 194 310 246 309 303 c 0
 308 318 307 339 307 365 c 0
 308 403 309 443 309 487 c 2
 309 510 l 2xd0
EndSplineSet
Validated: 1
EndChar

StartChar: u
Encoding: 117 117 85
Width: 1114
GlyphClass: 2
Flags: HW
HStem: -49 43G<876 889> -35 152<353 612>
VStem: 150 163<154 971> 799 158<260 969>
LayerCount: 2
Fore
SplineSet
952 -26 m 0x70
 938 -40 921 -47 899 -47 c 0
 895 -48 891 -49 887 -49 c 0xb0
 865 -49 846 -43 831 -31 c 0
 813 -19 805 6 805 43 c 2
 805 143 l 1
 794 120 783 111 772 115 c 1
 739 88 705 63 669 40 c 0
 633 17 590 -1 541 -16 c 0
 504 -28 467 -35 432 -35 c 0
 421 -35 411 -34 401 -33 c 0
 359 -29 319 -12 280 17 c 0
 241 46 210 82 188 122 c 0
 166 162 155 203 154 244 c 0
 147 338 143 447 143 571 c 0
 143 615 144 676 147 753 c 0
 149 804 150 845 150 875 c 0
 150 890 150 903 150 913 c 0
 151 940 158 961 172 973 c 0
 186 985 204 991 227 991 c 0
 250 991 271 985 288 972 c 0
 305 959 313 939 313 913 c 0
 313 901 311 859 308 788 c 0
 305 717 303 667 303 638 c 2
 303 582 l 2
 304 429 309 321 319 258 c 0
 323 229 330 205 338 185 c 0
 346 165 358 151 373 141 c 0
 388 130 403 124 417 121 c 0
 431 118 449 117 469 117 c 0
 524 117 579 131 636 159 c 0
 693 187 747 220 799 260 c 1
 802 249 804 251 807 266 c 0
 808 317 809 367 809 418 c 0
 809 469 808 523 807 580 c 0
 807 732 804 843 799 915 c 0
 799 938 805 957 819 970 c 0
 833 983 849 990 868 991 c 0
 891 991 912 985 930 971 c 0
 948 957 956 938 956 915 c 2
 956 913 l 2
 959 893 962 849 963 781 c 0
 964 713 966 673 967 659 c 0
 971 539 973 334 973 45 c 0
 973 12 966 -12 952 -26 c 0x70
EndSplineSet
Validated: 1
EndChar

StartChar: v
Encoding: 118 118 86
Width: 1114
GlyphClass: 2
Flags: HW
HStem: -55 43G<558 567> 981 41G<181 191 941 949>
LayerCount: 2
Fore
SplineSet
1016 924 m 0
 1016 909 1012 890 1004 868 c 0
 988 815 965 757 936 696 c 0
 907 632 859 527 791 381 c 0
 727 236 670 105 621 -14 c 0
 617 -32 606 -44 590 -51 c 0
 580 -54 571 -55 562 -55 c 0
 553 -55 543 -53 532 -49 c 0
 514 -42 503 -30 496 -14 c 0
 340 300 213 591 113 860 c 0
 105 878 100 895 100 911 c 0
 100 944 109 971 127 991 c 0
 134 999 143 1007 154 1012 c 0
 165 1019 175 1022 186 1022 c 0
 196 1022 207 1019 219 1014 c 0
 231 1009 243 997 254 979 c 0
 265 963 274 941 281 915 c 0
 296 866 317 802 346 723 c 0
 354 694 365 661 379 621 c 0
 393 586 403 557 411 537 c 0
 419 517 425 496 432 476 c 0
 439 456 449 430 463 397 c 0
 477 362 492 323 508 281 c 0
 524 241 534 217 537 209 c 0
 541 189 546 174 551 166 c 1
 556 173 562 186 569 205 c 0
 699 484 795 726 858 932 c 0
 870 977 887 1006 909 1020 c 0
 923 1028 935 1032 946 1032 c 0
 951 1032 961 1030 973 1026 c 0
 984 1019 992 1008 999 993 c 0
 1006 981 1011 963 1014 938 c 0
 1015 934 1016 929 1016 924 c 0
EndSplineSet
Validated: 1
EndChar

StartChar: w
Encoding: 119 119 87
Width: 1114
GlyphClass: 2
Flags: HW
HStem: -55 43G<313 328 776 808> 975 41G<129 139 984 994>
VStem: 928 125<913 1001>
LayerCount: 2
Fore
SplineSet
131 1016 m 0
 147 1016 162 1010 176 999 c 0
 192 985 203 961 207 926 c 0
 223 753 260 497 317 158 c 0
 322 118 329 81 334 47 c 1
 397 414 l 2
 417 540 437 648 453 739 c 0
 471 830 485 898 496 942 c 0
 501 967 508 985 518 997 c 0
 530 1013 547 1022 568 1021 c 0
 589 1020 607 1013 621 1001 c 0
 633 991 643 971 651 940 c 0
 654 925 662 872 676 782 c 0
 690 692 707 585 727 459 c 0
 747 331 766 228 784 150 c 0
 791 119 798 91 805 66 c 1
 810 92 816 121 821 152 c 0
 848 286 884 544 928 926 c 0
 931 964 939 989 954 1001 c 0
 965 1009 977 1014 991 1014 c 0
 996 1014 1003 1013 1010 1012 c 0
 1030 1007 1045 994 1053 975 c 0
 1060 959 1063 937 1063 911 c 0
 1064 908 1064 902 1063 891 c 0
 1047 753 1022 596 989 420 c 0
 956 243 925 109 895 20 c 0
 888 -9 875 -29 856 -41 c 0
 840 -51 820 -55 797 -55 c 2
 786 -55 l 2
 764 -55 746 -51 731 -41 c 0
 716 -30 704 -11 696 18 c 0
 676 75 659 145 645 227 c 0
 631 308 618 405 606 520 c 0
 594 635 586 704 582 729 c 0
 578 763 572 795 567 825 c 1
 559 798 552 767 545 733 c 0
 533 681 519 609 504 518 c 0
 488 427 471 336 453 246 c 0
 435 155 414 70 391 -8 c 0
 386 -28 376 -45 362 -57 c 0
 348 -68 335 -74 321 -74 c 0
 307 -74 291 -68 275 -56 c 0
 259 -44 249 -24 242 6 c 0
 137 353 73 654 53 909 c 1
 53 928 l 2
 53 953 58 971 66 983 c 0
 77 999 93 1010 115 1014 c 0
 122 1015 127 1016 131 1016 c 0
EndSplineSet
Validated: 1
EndChar

StartChar: x
Encoding: 120 120 88
Width: 1114
GlyphClass: 2
Flags: HW
HStem: 989 41G<217 225 905 924>
LayerCount: 2
Fore
SplineSet
922 -37 m 0
 902 -30 880 -15 860 10 c 0
 744 145 646 271 567 387 c 2
 553 408 l 1
 539 387 l 2
 502 335 448 261 377 164 c 1
 299 74 254 19 240 0 c 0
 226 -22 212 -36 197 -43 c 0
 189 -47 181 -49 176 -50 c 0
 171 -51 166 -50 162 -47 c 0
 151 -42 140 -32 129 -20 c 0
 111 0 102 23 102 49 c 0
 103 67 112 87 127 109 c 0
 142 132 170 164 211 205 c 0
 252 251 298 304 350 363 c 0
 396 416 435 466 465 512 c 2
 473 524 l 1
 465 537 l 2
 425 594 373 661 307 737 c 0
 237 807 194 854 176 877 c 0
 156 900 145 922 145 942 c 0
 145 965 154 987 172 1006 c 0
 182 1017 193 1024 207 1028 c 0
 211 1029 215 1030 219 1030 c 0
 230 1030 242 1027 254 1022 c 0
 272 1014 289 999 307 977 c 0
 337 946 377 896 428 829 c 0
 479 759 529 687 578 612 c 1
 665 749 715 827 727 846 c 0
 775 914 811 960 834 983 c 0
 864 1018 892 1036 918 1036 c 0
 930 1036 940 1031 950 1020 c 0
 970 997 981 971 981 944 c 2
 981 938 l 2
 980 927 973 917 961 907 c 2
 668 520 l 1
 662 516 l 1
 649 504 l 1
 659 487 l 2
 692 439 728 392 768 346 c 0
 810 295 850 249 887 207 c 0
 925 170 955 138 975 111 c 0
 991 91 1003 72 1008 57 c 0
 1012 47 1014 40 1014 35 c 0
 1014 20 1009 5 999 -10 c 0
 989 -25 979 -36 967 -41 c 0
 962 -44 955 -45 948 -44 c 0
 941 -43 933 -41 922 -37 c 0
EndSplineSet
Validated: 1
EndChar

StartChar: y
Encoding: 121 121 89
Width: 1114
GlyphClass: 2
Flags: HW
LayerCount: 2
Fore
SplineSet
160 997 m 0
 171 997 182 995 193 991 c 0
 204 987 214 979 225 966 c 0
 236 953 245 934 252 909 c 0
 275 835 305 752 342 659 c 0
 377 565 407 490 432 434 c 0
 457 378 495 291 547 174 c 0
 552 173 558 185 563 211 c 0
 694 499 795 736 866 922 c 0
 874 944 884 961 895 973 c 0
 905 987 915 995 926 999 c 0
 948 1007 968 1007 987 999 c 0
 1006 991 1020 976 1030 956 c 0
 1035 945 1038 931 1038 915 c 0
 1038 899 1034 880 1024 858 c 0
 991 780 943 675 879 541 c 0
 815 407 755 281 700 162 c 0
 613 -41 525 -233 436 -410 c 0
 395 -495 364 -559 344 -604 c 0
 334 -626 319 -640 299 -647 c 0
 292 -648 286 -649 279 -649 c 0
 265 -650 251 -646 236 -635 c 0
 225 -627 216 -617 210 -606 c 0
 204 -595 200 -582 199 -567 c 2
 199 -563 l 2
 199 -551 203 -537 211 -522 c 0
 300 -360 386 -184 469 6 c 1
 307 327 181 607 92 846 c 0
 82 868 78 887 78 905 c 0
 79 909 80 914 80 918 c 0
 81 938 85 954 93 964 c 0
 101 974 111 982 125 987 c 0
 137 994 149 997 160 997 c 0
EndSplineSet
Validated: 1
EndChar

StartChar: z
Encoding: 122 122 90
Width: 1114
GlyphClass: 2
Flags: HW
HStem: 8 143<314 960> 8 129<313 670> 848 135<189 803>
LayerCount: 2
Fore
SplineSet
139 106 m 0x60
 139 114 141 123 143 131 c 0
 145 139 156 151 172 174 c 0
 188 197 213 223 246 256 c 0
 269 276 319 328 401 408 c 0
 477 488 548 567 618 645 c 0
 688 723 739 780 774 821 c 2
 803 856 l 1
 672 850 570 848 496 848 c 0
 383 848 299 852 240 862 c 0
 217 866 200 873 188 883 c 0
 174 895 168 912 168 932 c 2
 168 938 l 2
 168 958 174 977 184 991 c 0
 192 1001 207 1008 225 1008 c 2
 236 1008 l 1
 388 992 531 983 664 983 c 0
 740 983 815 985 895 989 c 2
 897 989 l 2
 911 989 926 981 938 967 c 0
 952 949 961 926 963 903 c 0
 963 895 958 880 948 860 c 0
 938 840 922 809 897 770 c 0
 858 713 813 655 762 600 c 0
 713 545 670 498 631 459 c 0
 592 420 544 372 489 319 c 0
 434 266 387 217 348 174 c 2
 313 137 l 1x60
 365 139 l 2
 484 147 586 152 674 152 c 0
 762 152 834 147 891 139 c 0
 926 133 949 125 961 115 c 0
 973 105 977 90 977 76 c 2
 977 70 l 2
 977 52 971 35 961 23 c 0
 951 11 926 2 891 2 c 0
 881 2 817 4 700 8 c 0xa0
 591 10 491 12 395 12 c 0
 352 12 291 10 209 8 c 2
 207 8 l 2
 191 8 176 19 162 39 c 0
 148 62 139 83 139 106 c 0x60
EndSplineSet
Validated: 1
EndChar

StartChar: braceleft
Encoding: 123 123 91
Width: 1114
GlyphClass: 2
Flags: HW
HStem: -184 133<680 964> 676 166<142 369> 1589 133<704 976>
VStem: 432 152<1155 1481> 432 154<27 304> 539 166<396 560 892 1073> 553 152<395 611>
LayerCount: 2
Fore
SplineSet
911 -184 m 0xe8
 847 -184 786 -178 729 -166 c 0
 672 -154 620 -136 575 -113 c 0
 531 -91 497 -62 471 -25 c 0
 445 10 432 51 432 96 c 0xe8
 432 133 436 169 444 203 c 0
 451 237 461 268 473 295 c 0
 484 324 496 352 508 379 c 0
 520 406 531 436 539 467 c 0
 549 498 553 530 553 561 c 0xe2
 553 568 551 575 547 580 c 0
 543 585 536 591 528 598 c 0
 520 605 505 613 485 623 c 0
 443 643 390 658 324 668 c 0
 287 673 249 676 209 676 c 0
 207 676 206 676 204 676 c 0
 183 676 165 684 150 702 c 0
 134 721 125 743 125 766 c 0
 125 789 130 807 141 821 c 0
 153 835 171 842 193 842 c 0
 231 842 264 843 293 844 c 0
 320 845 350 849 381 854 c 0
 412 859 439 866 461 874 c 0
 483 882 501 895 516 911 c 0
 531 929 539 950 539 973 c 0xe4
 540 988 534 1006 522 1028 c 0
 508 1050 495 1072 483 1094 c 0
 471 1117 460 1149 449 1190 c 0
 438 1231 432 1275 432 1321 c 0
 432 1444 474 1542 559 1614 c 0
 642 1686 759 1722 911 1722 c 0
 934 1721 954 1715 969 1704 c 0
 984 1693 991 1681 991 1667 c 0
 990 1651 978 1634 958 1616 c 0
 939 1598 921 1589 903 1589 c 0
 805 1589 727 1567 670 1522 c 0
 613 1478 584 1418 584 1343 c 0xf0
 585 1308 592 1269 604 1227 c 0
 616 1185 630 1147 645 1116 c 0
 685 1040 705 994 705 979 c 0xe4
 705 956 697 933 682 913 c 0
 667 893 648 874 623 858 c 0
 570 824 510 800 446 786 c 2
 371 770 l 1
 446 748 l 2
 521 726 584 697 635 662 c 0
 662 643 681 624 692 608 c 0
 700 596 705 585 705 575 c 0xe2
 705 546 700 517 692 487 c 0
 684 457 675 429 664 403 c 0
 652 377 640 351 629 322 c 0
 617 293 606 260 598 223 c 0
 590 188 586 151 586 113 c 0
 586 84 598 58 621 35 c 0
 641 15 667 -2 698 -14 c 0
 729 -25 764 -34 799 -41 c 0
 834 -48 869 -51 903 -51 c 0
 926 -51 947 -58 965 -70 c 0
 980 -81 987 -95 987 -113 c 0
 987 -131 981 -147 969 -162 c 0
 958 -177 938 -184 911 -184 c 0xe8
EndSplineSet
Validated: 1
EndChar

StartChar: bar
Encoding: 124 124 92
Width: 1114
GlyphClass: 2
Flags: HW
VStem: 481 141<-343 1057> 496 129<279 1670>
LayerCount: 2
Fore
SplineSet
481 -299 m 2x80
 481 -281 l 2x80
 486 -225 491 -63 492 203 c 2
 496 1057 l 2
 497 1360 499 1543 500 1604 c 0
 501 1633 506 1655 516 1671 c 0
 526 1687 541 1696 563 1696 c 2
 569 1696 l 2
 594 1695 611 1686 621 1671 c 0
 631 1657 635 1637 635 1610 c 2
 625 745 l 2x40
 622 431 620 185 620 5 c 0
 620 -130 621 -229 623 -289 c 0
 619 -312 609 -330 594 -344 c 0
 579 -356 561 -362 541 -362 c 2
 535 -362 l 2
 534 -362 532 -363 531 -363 c 0
 498 -363 481 -341 481 -299 c 2x80
EndSplineSet
Validated: 1
EndChar

StartChar: braceright
Encoding: 125 125 93
Width: 1114
GlyphClass: 2
Flags: HW
HStem: -184 133<138 411> 717 168<744 972> 1589 133<146 433>
VStem: 412 164<475 667 981 1157> 530 154<57 396 1243 1510>
LayerCount: 2
Fore
SplineSet
684 217 m 0xe8
 684 94 642 -4 557 -76 c 0
 472 -148 355 -184 203 -184 c 0
 181 -183 162 -177 147 -166 c 0
 132 -155 125 -143 125 -129 c 0
 125 -113 136 -96 156 -78 c 0
 178 -60 197 -51 213 -51 c 0
 311 -51 389 -29 446 16 c 0
 502 60 530 120 530 195 c 0xe8
 530 230 524 269 512 313 c 0
 500 358 486 397 471 430 c 0
 456 464 442 495 430 524 c 0
 418 553 412 572 412 582 c 0
 412 604 419 625 434 645 c 0
 449 667 469 686 494 702 c 0
 543 735 601 759 668 774 c 2
 743 791 l 1
 670 813 l 2
 595 835 532 864 481 899 c 0
 454 918 435 936 424 952 c 0
 416 963 412 973 412 983 c 0
 412 1012 416 1040 424 1069 c 0
 432 1098 442 1124 453 1149 c 0
 464 1174 474 1199 485 1225 c 0
 497 1252 508 1283 516 1317 c 0
 524 1351 528 1387 528 1425 c 0
 528 1454 518 1479 496 1501 c 0
 474 1523 447 1540 416 1552 c 0
 386 1563 352 1572 317 1579 c 0
 282 1586 247 1589 213 1589 c 0
 190 1589 170 1596 152 1608 c 0
 136 1619 127 1633 127 1651 c 0
 127 1669 133 1685 145 1700 c 0
 156 1715 176 1722 203 1722 c 0
 269 1722 330 1716 387 1704 c 0
 443 1692 494 1674 539 1651 c 0
 584 1629 619 1600 645 1563 c 0
 671 1528 684 1487 684 1442 c 0
 684 1405 680 1370 672 1337 c 0
 664 1306 654 1277 643 1251 c 2
 606 1174 l 2
 594 1149 583 1122 575 1092 c 0
 567 1062 563 1030 563 999 c 0
 562 992 563 986 567 981 c 0
 572 976 580 970 588 963 c 0
 596 956 611 948 631 938 c 0
 650 928 672 919 698 911 c 0
 724 904 756 898 793 893 c 0
 830 888 867 885 907 885 c 0
 929 886 949 877 965 858 c 0
 983 839 991 818 991 795 c 0
 990 772 984 753 973 739 c 0
 962 725 945 719 922 719 c 0
 885 719 852 718 823 717 c 0
 794 716 764 712 733 707 c 0
 703 702 677 694 655 686 c 0
 632 676 613 663 598 647 c 0
 583 631 575 611 575 588 c 0xf0
 575 574 582 555 594 530 c 0
 605 504 617 480 631 455 c 0
 645 430 657 396 668 352 c 0
 679 308 684 263 684 217 c 0xe8
EndSplineSet
Validated: 1
EndChar

StartChar: asciitilde
Encoding: 126 126 94
Width: 1114
GlyphClass: 2
Flags: HW
HStem: 561 174<654 845> 891 176<284 451> 991 41G<1019 1025>
LayerCount: 2
Fore
SplineSet
1038 1028 m 0xa0
 1046 1025 1052 1021 1055 1014 c 0
 1058 1006 1059 998 1059 991 c 0
 1059 984 1058 976 1057 965 c 0
 1056 954 1052 940 1047 922 c 0
 1042 906 1034 885 1026 862 c 0
 945 661 851 561 743 561 c 0
 716 561 692 565 670 573 c 0
 650 581 629 594 610 612 c 0
 591 630 574 650 559 670 c 0
 545 690 530 717 512 748 c 2
 492 782 l 2
 482 797 476 808 473 813 c 2
 457 838 l 2
 450 850 443 858 436 862 c 0
 432 863 426 867 418 874 c 0
 410 881 401 886 391 887 c 0
 383 890 372 891 360 891 c 0
 348 890 337 887 326 883 c 0
 314 879 303 871 293 860 c 0
 285 849 277 839 270 829 c 0
 260 814 245 780 225 727 c 0
 220 712 212 688 201 657 c 0
 193 634 176 613 150 594 c 0
 130 579 112 571 98 571 c 0
 95 572 93 573 90 573 c 0
 82 576 74 586 66 602 c 0
 61 613 57 623 57 633 c 0
 57 644 58 654 61 662 c 0
 95 790 142 891 199 963 c 0
 254 1033 305 1067 356 1067 c 0xc0
 378 1067 396 1066 410 1065 c 0
 425 1062 440 1058 455 1053 c 0
 470 1048 484 1039 496 1028 c 0
 510 1017 525 1000 541 977 c 0
 559 955 579 919 602 870 c 0
 609 855 614 844 618 836 c 0
 623 828 630 817 637 805 c 0
 644 794 650 785 655 778 c 2
 678 756 l 2
 686 749 695 744 705 741 c 0
 715 737 724 735 735 735 c 2
 743 735 l 2
 755 736 765 737 772 737 c 0
 779 737 789 739 801 743 c 0
 812 747 821 754 829 762 c 0
 849 782 868 808 883 838 c 0
 893 857 902 880 913 907 c 0
 927 941 946 972 969 999 c 0
 980 1013 992 1023 1006 1028 c 0
 1011 1031 1017 1032 1022 1032 c 0
 1027 1032 1033 1031 1038 1028 c 0xa0
EndSplineSet
Validated: 1
EndChar

StartChar: endash
Encoding: 8211 8211 95
Width: 1114
GlyphClass: 2
Flags: HW
HStem: 530 137<205 915>
LayerCount: 2
Fore
SplineSet
184 606 m 2
 184 629 191 645 203 655 c 0
 214 663 230 668 250 668 c 0
 352 668 475 667 618 664 c 0
 763 663 845 662 864 662 c 0
 890 662 907 657 915 647 c 0
 925 636 931 622 932 604 c 0
 931 582 926 566 918 555 c 0
 908 541 890 535 864 535 c 0
 498 532 295 530 254 530 c 0
 232 530 216 535 205 543 c 0
 191 554 184 572 184 598 c 2
 184 606 l 2
EndSplineSet
Validated: 1
EndChar

StartChar: emdash
Encoding: 8212 8212 96
Width: 1114
GlyphClass: 2
Flags: HW
HStem: 530 133<84 1036>
LayerCount: 2
Fore
SplineSet
63 606 m 2
 63 629 70 645 82 653 c 0
 92 660 107 664 127 664 c 2
 129 664 l 2
 256 663 361 662 446 662 c 0
 531 662 643 663 784 664 c 0
 893 665 960 666 985 666 c 0
 1010 666 1026 660 1036 649 c 0
 1046 639 1052 624 1053 604 c 0
 1052 582 1046 566 1038 555 c 0
 1027 541 1009 535 983 535 c 0
 472 532 188 530 131 530 c 0
 111 530 95 535 84 543 c 0
 70 554 63 572 63 598 c 2
 63 606 l 2
EndSplineSet
Validated: 1
EndChar

StartChar: quoteleft
Encoding: 8216 8216 97
Width: 1114
GlyphClass: 2
Flags: HW
HStem: 1010 492
VStem: 389 338
LayerCount: 2
Fore
SplineSet
604 1010 m 2
 594 1011 586 1015 578 1022 c 0
 568 1027 560 1037 553 1051 c 0
 530 1093 502 1150 469 1221 c 0
 438 1291 413 1349 395 1397 c 0
 391 1407 389 1415 389 1425 c 0
 390 1435 393 1444 397 1452 c 0
 405 1470 418 1482 434 1489 c 0
 450 1497 466 1501 481 1501 c 0
 493 1500 505 1496 516 1491 c 0
 527 1486 536 1476 541 1462 c 0
 567 1391 626 1276 717 1118 c 0
 724 1107 727 1098 727 1090 c 0
 727 1065 704 1042 659 1020 c 0
 643 1013 628 1010 616 1010 c 2
 604 1010 l 2
EndSplineSet
Validated: 1
EndChar

StartChar: quoteright
Encoding: 8217 8217 98
Width: 1114
GlyphClass: 2
Flags: HW
HStem: 952 526
VStem: 395 322
LayerCount: 2
Fore
SplineSet
717 1376 m 0
 653 1199 603 1079 569 1016 c 0
 553 987 534 968 512 958 c 0
 501 954 491 952 481 952 c 0
 473 952 465 954 457 958 c 0
 435 968 417 987 403 1014 c 0
 398 1026 395 1038 395 1049 c 0
 395 1061 399 1072 406 1083 c 0
 428 1124 457 1182 492 1257 c 0
 527 1332 553 1394 569 1440 c 0
 576 1455 585 1465 596 1470 c 0
 607 1475 619 1479 633 1479 c 0
 645 1479 660 1474 676 1466 c 0
 692 1459 705 1448 715 1432 c 0
 719 1424 721 1415 721 1405 c 0
 722 1395 721 1386 717 1376 c 0
EndSplineSet
Validated: 1
EndChar

StartChar: quotesinglbase
Encoding: 8218 8218 99
Width: 1114
GlyphClass: 2
Flags: HW
HStem: 995 500
VStem: 420 281
LayerCount: 2
Fore
SplineSet
489 1487 m 0
 505 1492 520 1495 532 1495 c 0
 543 1496 554 1493 565 1485 c 0
 577 1477 587 1464 594 1446 c 0
 610 1397 629 1336 651 1262 c 0
 674 1187 690 1125 700 1077 c 1
 700 1061 l 2
 701 1047 698 1035 690 1024 c 0
 678 1010 663 1000 647 995 c 0
 633 992 620 991 606 991 c 0
 591 991 578 996 567 1004 c 0
 555 1012 548 1022 545 1036 c 0
 533 1099 491 1221 420 1403 c 0
 416 1410 414 1415 414 1419 c 0
 415 1423 416 1426 416 1427 c 0
 417 1437 420 1445 424 1450 c 0
 428 1455 434 1461 442 1466 c 0
 449 1470 457 1475 465 1479 c 0
 472 1483 479 1486 489 1487 c 0
EndSplineSet
Validated: 1
EndChar

StartChar: quotedblleft
Encoding: 8220 8220 100
Width: 1114
GlyphClass: 2
Flags: HW
HStem: 987 602
VStem: 236 645
LayerCount: 2
Fore
SplineSet
588 1577 m 0
 604 1584 619 1588 633 1589 c 0
 647 1588 659 1584 670 1579 c 0
 681 1574 689 1564 694 1550 c 0
 720 1479 779 1364 870 1206 c 0
 877 1195 881 1186 881 1178 c 0
 881 1153 858 1130 813 1108 c 0
 797 1101 782 1098 768 1098 c 2
 758 1098 l 2
 750 1098 741 1101 731 1108 c 0
 721 1116 714 1127 707 1139 c 0
 684 1181 656 1238 623 1309 c 0
 592 1379 567 1437 549 1485 c 0
 545 1495 543 1503 543 1513 c 0
 544 1523 547 1532 551 1540 c 0
 559 1558 572 1570 588 1577 c 0
451 987 m 2
 441 988 432 992 424 999 c 0
 414 1004 406 1014 399 1028 c 0
 376 1070 348 1127 315 1198 c 0
 284 1269 260 1328 242 1376 c 0
 238 1386 236 1395 236 1405 c 0
 237 1415 240 1424 244 1432 c 0
 252 1448 265 1459 281 1466 c 0
 297 1474 313 1479 328 1479 c 0
 340 1479 351 1475 362 1470 c 0
 373 1465 382 1456 387 1442 c 0
 413 1370 472 1254 563 1096 c 0
 570 1085 573 1075 573 1067 c 0
 573 1044 552 1021 508 999 c 0
 490 991 475 987 463 987 c 2
 451 987 l 2
EndSplineSet
Validated: 1
EndChar

StartChar: quotedblright
Encoding: 8221 8221 101
Width: 1114
GlyphClass: 2
Flags: HW
HStem: 958 631 1069 43G<333 347>
VStem: 238 182<1086 1219>
LayerCount: 2
Fore
SplineSet
567 1485 m 0xa0
 503 1308 454 1187 420 1124 c 0
 409 1106 396 1093 381 1083 c 0
 367 1073 354 1069 340 1069 c 0x60
 326 1070 314 1073 303 1077 c 0
 259 1093 238 1116 238 1145 c 0
 238 1155 241 1164 246 1174 c 0
 268 1212 298 1273 338 1358 c 0
 376 1439 404 1502 420 1550 c 0
 427 1564 435 1574 446 1579 c 0
 457 1586 469 1589 483 1589 c 0
 497 1589 512 1585 528 1577 c 0
 543 1569 555 1556 565 1540 c 0
 570 1532 573 1523 573 1513 c 0
 573 1503 571 1495 567 1485 c 0xa0
754 1470 m 0
 765 1475 777 1479 791 1479 c 0
 803 1479 818 1474 834 1466 c 0
 850 1459 862 1448 870 1432 c 0
 880 1416 881 1396 874 1376 c 0
 810 1199 761 1079 727 1016 c 0
 711 987 692 968 670 958 c 0
 658 954 647 952 639 952 c 0
 631 952 622 954 614 958 c 0xa0
 594 968 576 987 561 1014 c 0
 554 1026 551 1038 551 1049 c 0
 551 1061 554 1072 561 1083 c 0
 586 1124 615 1182 649 1257 c 0
 683 1333 709 1396 727 1442 c 0
 734 1456 743 1465 754 1470 c 0
EndSplineSet
Validated: 1
EndChar

StartChar: bullet
Encoding: 8226 8226 102
Width: 1114
GlyphClass: 2
Flags: HW
HStem: 707 336<445 675>
VStem: 379 358<767 979>
LayerCount: 2
Fore
SplineSet
379 879 m 0
 379 921 398 958 436 991 c 0
 473 1022 515 1039 563 1042 c 2
 571 1042 l 2
 620 1042 660 1027 690 997 c 0
 721 966 737 927 737 881 c 0
 737 835 721 795 690 764 c 0
 659 734 616 716 561 709 c 0
 553 708 546 707 539 707 c 0
 495 707 459 722 430 752 c 0
 396 786 379 828 379 879 c 0
EndSplineSet
Validated: 1
EndChar

StartChar: lambda
Encoding: 955 955 103
Width: 1114
Flags: HW
HStem: -58 43G<154 165>
LayerCount: 2
Fore
SplineSet
160 -58 m 0
 149 -58 137 -54 125 -47 c 0
 111 -42 101 -34 93 -24 c 0
 85 -14 81 2 80 22 c 0
 80 26 79 31 78 35 c 0
 78 53 82 72 92 94 c 0
 181 333 307 613 469 934 c 1
 386 1124 300 1300 211 1462 c 0
 203 1477 199 1491 199 1503 c 2
 199 1507 l 2
 200 1522 204 1535 210 1546 c 0
 216 1557 225 1567 236 1575 c 0
 251 1586 265 1590 279 1589 c 0
 286 1589 292 1588 299 1587 c 0
 319 1580 334 1566 344 1544 c 0
 364 1499 395 1434 436 1349 c 0
 525 1172 613 981 700 778 c 0
 755 659 815 533 879 399 c 0
 943 265 991 160 1024 82 c 0
 1034 60 1038 40 1038 24 c 0
 1038 8 1035 -6 1030 -17 c 0
 1020 -37 1006 -52 987 -60 c 0
 968 -68 948 -68 926 -60 c 0
 915 -56 905 -47 895 -33 c 0
 884 -21 874 -4 866 18 c 0
 795 204 694 441 563 729 c 0
 558 755 552 767 547 766 c 0
 495 649 457 562 432 506 c 0
 407 450 377 374 342 280 c 0
 305 187 275 104 252 30 c 0
 245 5 236 -13 225 -26 c 0
 214 -39 204 -47 193 -51 c 0
 182 -55 171 -58 160 -58 c 0
EndSplineSet
Validated: 1
EndChar
